<svg width="28" height="28" viewBox="0 0 28 28" fill="none" xmlns="http://www.w3.org/2000/svg">
<path d="M4.66674 16.3334C4.44596 16.3341 4.22951 16.2722 4.04252 16.1548C3.85553 16.0375 3.70568 15.8694 3.61038 15.6703C3.51508 15.4711 3.47825 15.249 3.50416 15.0298C3.53006 14.8105 3.61765 14.6031 3.75674 14.4317L15.3067 2.53169C15.3934 2.43169 15.5114 2.36411 15.6416 2.34005C15.7717 2.31599 15.9061 2.33688 16.0228 2.39928C16.1394 2.46169 16.2314 2.56191 16.2836 2.68349C16.3358 2.80507 16.3452 2.94078 16.3101 3.06836L14.0701 10.0917C14.004 10.2685 13.9818 10.4586 14.0054 10.6459C14.029 10.8331 14.0977 11.0118 14.2055 11.1667C14.3133 11.3216 14.4571 11.448 14.6246 11.535C14.792 11.6221 14.978 11.6673 15.1667 11.6667H23.3334C23.5542 11.6659 23.7706 11.7278 23.9576 11.8452C24.1446 11.9626 24.2945 12.1306 24.3898 12.3298C24.4851 12.5289 24.5219 12.751 24.496 12.9703C24.4701 13.1895 24.3825 13.3969 24.2434 13.5684L12.6934 25.4684C12.6068 25.5684 12.4887 25.6359 12.3586 25.66C12.2285 25.6841 12.0941 25.6632 11.9774 25.6008C11.8607 25.5384 11.7687 25.4381 11.7165 25.3166C11.6643 25.195 11.655 25.0593 11.6901 24.9317L13.9301 17.9084C13.9961 17.7316 14.0183 17.5414 13.9947 17.3542C13.9711 17.167 13.9025 16.9882 13.7946 16.8334C13.6868 16.6785 13.543 16.5521 13.3756 16.465C13.2082 16.3779 13.0221 16.3327 12.8334 16.3334H4.66674Z" stroke="#EF4444" stroke-width="2.33333" stroke-linecap="round" stroke-linejoin="round"/>
</svg>
