<svg width="39" height="47" viewBox="0 0 39 47" fill="none" xmlns="http://www.w3.org/2000/svg">
<path id="Vector" d="M7.65 34.5938C7.65 35.6508 8.51062 36.5156 9.5625 36.5156H11.475V43.2422C11.475 44.8373 12.7564 46.125 14.3438 46.125C15.9311 46.125 17.2125 44.8373 17.2125 43.2422V36.5156H21.0375V43.2422C21.0375 44.8373 22.3189 46.125 23.9062 46.125C25.4936 46.125 26.775 44.8373 26.775 43.2422V36.5156H28.6875C29.7394 36.5156 30.6 35.6508 30.6 34.5938V15.375H7.65V34.5938ZM2.86875 15.375C1.28138 15.375 0 16.6627 0 18.2578V31.7109C0 33.3061 1.28138 34.5938 2.86875 34.5938C4.45613 34.5938 5.7375 33.3061 5.7375 31.7109V18.2578C5.7375 16.6627 4.45613 15.375 2.86875 15.375ZM35.3813 15.375C33.7939 15.375 32.5125 16.6627 32.5125 18.2578V31.7109C32.5125 33.3061 33.7939 34.5938 35.3813 34.5938C36.9686 34.5938 38.25 33.3061 38.25 31.7109V18.2578C38.25 16.6627 36.9686 15.375 35.3813 15.375ZM25.8761 4.15125L28.3624 1.65281C28.7449 1.26844 28.7449 0.672656 28.3624 0.288281C27.9799 -0.0960937 27.387 -0.0960937 27.0045 0.288281L24.174 3.13266C22.6631 2.36391 20.9419 1.92188 19.125 1.92188C17.289 1.92188 15.5678 2.36391 14.0378 3.13266L11.1881 0.288281C10.8056 -0.0960937 10.2127 -0.0960937 9.83025 0.288281C9.44775 0.672656 9.44775 1.26844 9.83025 1.65281L12.3356 4.17047C9.50513 6.26531 7.65 9.62859 7.65 13.4531H30.6C30.6 9.62859 28.7449 6.24609 25.8761 4.15125ZM15.3 9.60938H13.3875V7.6875H15.3V9.60938ZM24.8625 9.60938H22.95V7.6875H24.8625V9.60938Z" fill="#FBC13C"/>
</svg>
