<svg width="80" height="96" viewBox="0 0 80 96" fill="none" xmlns="http://www.w3.org/2000/svg">
<path id="Vector" d="M16 72C16 74.2 17.8 76 20 76H24V90C24 93.32 26.68 96 30 96C33.32 96 36 93.32 36 90V76H44V90C44 93.32 46.68 96 50 96C53.32 96 56 93.32 56 90V76H60C62.2 76 64 74.2 64 72V32H16V72ZM6 32C2.68 32 0 34.68 0 38V66C0 69.32 2.68 72 6 72C9.32 72 12 69.32 12 66V38C12 34.68 9.32 32 6 32ZM74 32C70.68 32 68 34.68 68 38V66C68 69.32 70.68 72 74 72C77.32 72 80 69.32 80 66V38C80 34.68 77.32 32 74 32ZM54.12 8.64L59.32 3.44C60.12 2.64 60.12 1.4 59.32 0.6C58.52 -0.2 57.28 -0.2 56.48 0.6L50.56 6.52C47.4 4.92 43.8 4 40 4C36.16 4 32.56 4.92 29.36 6.52L23.4 0.6C22.6 -0.2 21.36 -0.2 20.56 0.6C19.76 1.4 19.76 2.64 20.56 3.44L25.8 8.68C19.88 13.04 16 20.04 16 28H64C64 20.04 60.12 13 54.12 8.64ZM32 20H28V16H32V20ZM52 20H48V16H52V20Z" fill="url(#paint0_linear_1_10)"/>
<defs>
<linearGradient id="paint0_linear_1_10" x1="40" y1="0" x2="40" y2="96" gradientUnits="userSpaceOnUse">
<stop stop-color="#EC368D"/>
<stop offset="1" stop-color="#D72828"/>
</linearGradient>
</defs>
</svg>
