<svg xmlns="http://www.w3.org/2000/svg" width="158" height="53" viewBox="0 0 158 53" fill="none">
  <g clip-path="url(#clip0_73_772)">
    <path d="M145.224 0H12.7841C12.3009 0 11.823 0 11.3425 0.002633C10.9396 0.005266 10.5394 0.013165 10.1326 0.0197475C9.24863 0.0294005 8.36665 0.106419 7.49436 0.250135C6.62379 0.397855 5.78051 0.676139 4.99301 1.07558C4.20536 1.47889 3.48573 2.00307 2.86028 2.62905C2.23264 3.25218 1.70944 3.97231 1.31076 4.76178C0.910645 5.55016 0.63318 6.39499 0.487945 7.26708C0.341455 8.13822 0.262668 9.0194 0.252291 9.90271C0.239126 10.3069 0.239126 10.7124 0.232544 11.1152V41.5487C0.239126 41.9569 0.240443 42.3518 0.252291 42.7612C0.263098 43.6446 0.342325 44.5258 0.489261 45.3969C0.63356 46.2699 0.910599 47.1156 1.31076 47.9048C1.70982 48.6912 2.23354 49.4079 2.86159 50.027C3.48397 50.6551 4.20316 51.1791 4.99169 51.5792C5.77965 51.9794 6.6233 52.259 7.49436 52.4085C8.36673 52.5519 9.24862 52.6298 10.1326 52.6416C10.5407 52.6508 10.9396 52.6561 11.3425 52.6561C11.8243 52.6587 12.3009 52.6587 12.7841 52.6587H145.224C145.698 52.6587 146.177 52.6587 146.651 52.6561C147.051 52.6561 147.463 52.6508 147.865 52.6429C148.747 52.6313 149.627 52.553 150.498 52.4085C151.372 52.2579 152.218 51.9784 153.01 51.5792C153.798 51.1789 154.517 50.6549 155.139 50.027C155.765 49.4047 156.291 48.6877 156.695 47.9022C157.092 47.1125 157.367 46.2668 157.51 45.3942C157.656 44.523 157.738 43.642 157.753 42.7586C157.758 42.3505 157.758 41.9555 157.758 41.5461C157.769 41.0669 157.769 40.5916 157.769 40.1059V12.5541C157.769 12.0723 157.769 11.5931 157.758 11.1165C157.758 10.7137 157.758 10.3082 157.753 9.90535C157.738 9.02153 157.656 8.1401 157.51 7.2684C157.366 6.39675 157.091 5.55199 156.693 4.7631C155.881 3.1795 154.593 1.89034 153.01 1.0769C152.218 0.678356 151.372 0.400145 150.498 0.251451C149.627 0.106686 148.747 0.029222 147.865 0.0197475C147.463 0.013165 147.051 0.005266 146.651 0.002633C146.177 0 145.697 0 145.224 0Z" fill="black"/>
    <path d="M11.349 51.508C10.9475 51.508 10.5565 51.5028 10.1589 51.4949C9.33409 51.4838 8.51122 51.4116 7.69706 51.279C6.93854 51.1481 6.20376 50.905 5.51694 50.5575C4.83616 50.2131 4.21518 49.7615 3.67779 49.22C3.13284 48.6843 2.67924 48.063 2.33496 47.3808C1.98617 46.6945 1.74464 45.9588 1.61878 45.1994C1.48357 44.3833 1.41051 43.5581 1.40024 42.7309C1.39103 42.4545 1.38049 41.529 1.38049 41.529V11.1178C1.38049 11.1178 1.39234 10.2068 1.40024 9.93956C1.41005 9.11374 1.48267 8.28987 1.61746 7.47507C1.74334 6.7135 1.98485 5.97564 2.33364 5.28704C2.67686 4.60549 3.12811 3.98397 3.66989 3.44658C4.21091 2.90388 4.83373 2.44943 5.51562 2.0998C6.20104 1.75341 6.93462 1.51199 7.69179 1.38362C8.5085 1.25008 9.33406 1.17791 10.1615 1.16771L11.349 1.15192H146.644L147.846 1.16903C148.666 1.17854 149.484 1.24984 150.292 1.3823C151.057 1.51227 151.799 1.75541 152.492 2.10375C153.859 2.80791 154.97 3.92193 155.672 5.28968C156.015 5.97366 156.252 6.70557 156.376 7.46058C156.513 8.28198 156.589 9.11227 156.605 9.94482C156.609 10.3174 156.609 10.7189 156.609 11.1165C156.62 11.6102 156.62 12.0802 156.62 12.5541V40.1072C156.62 40.585 156.62 41.0524 156.609 41.5224C156.609 41.9503 156.609 42.3426 156.604 42.7467C156.589 43.5643 156.514 44.3796 156.38 45.1862C156.257 45.9512 156.017 46.6927 155.669 47.3848C155.322 48.0595 154.87 48.6753 154.331 49.2094C153.793 49.754 153.171 50.2083 152.488 50.5549C151.797 50.9052 151.057 51.1493 150.292 51.279C149.479 51.4118 148.656 51.4836 147.832 51.4936C147.446 51.5028 147.042 51.508 146.651 51.508L145.224 51.5107L11.349 51.508Z" fill="white"/>
    <path d="M33.1397 26.1852C33.1543 25.0425 33.4576 23.9221 34.0216 22.9282C34.5855 21.9342 35.3917 21.0991 36.3652 20.5005C35.7468 19.6173 34.931 18.8904 33.9826 18.3776C33.0342 17.8648 31.9793 17.5802 30.9017 17.5463C28.6031 17.3054 26.3729 18.922 25.2012 18.922C24.0085 18.922 22.2049 17.57 20.2617 17.6095C19.0057 17.6504 17.7816 18.0159 16.7088 18.6704C15.636 19.325 14.751 20.2462 14.14 21.3444C11.4912 25.9285 13.466 32.6663 16.0029 36.3709C17.2706 38.1851 18.7543 40.2125 20.6949 40.1401C22.5933 40.0611 23.3028 38.9289 25.5949 38.9289C27.8658 38.9289 28.5307 40.1401 30.5107 40.0953C32.5486 40.0611 33.8322 38.272 35.0566 36.4407C35.9688 35.1479 36.6708 33.719 37.1366 32.2068C35.9527 31.7062 34.9424 30.868 34.2316 29.797C33.5208 28.7259 33.1411 27.4706 33.1397 26.1852ZM29.3996 15.1095C30.5111 13.7759 31.0589 12.0616 30.9267 10.3306C29.2291 10.5087 27.661 11.3201 26.5349 12.6028C25.9842 13.2292 25.5624 13.958 25.2936 14.7475C25.0248 15.537 24.9142 16.3718 24.9682 17.204C25.8172 17.2128 26.6571 17.0289 27.4246 16.6661C28.1922 16.3033 28.8675 15.771 29.3996 15.1095Z" fill="black"/>
    <path d="M55.9218 35.7298H49.6895L48.1939 40.148H45.5543L51.4562 23.7997H54.1985L60.1016 40.148H57.416L55.9218 35.7298ZM50.3358 33.6892H55.2754L52.8398 26.5196H52.7714L50.3358 33.6892ZM72.8493 34.1895C72.8493 37.8928 70.8654 40.2717 67.8729 40.2717C67.1154 40.3112 66.362 40.1367 65.699 39.7682C65.0359 39.3996 64.49 38.8519 64.1236 38.1877H64.0669V44.0909H61.6209V28.2284H63.9893V30.211H64.034C64.4172 29.5497 64.9725 29.0046 65.6409 28.6337C66.3092 28.2627 67.0656 28.0799 67.8295 28.1046C70.8548 28.1046 72.8493 30.4954 72.8493 34.1895ZM70.3335 34.1895C70.3335 31.7763 69.0868 30.19 67.1831 30.19C65.3137 30.19 64.0564 31.8093 64.0564 34.1895C64.0564 36.5908 65.315 38.1996 67.1831 38.1996C69.0868 38.1996 70.3335 36.6237 70.3335 34.1895ZM85.9682 34.1895C85.9682 37.8928 83.9843 40.2717 80.9919 40.2717C80.2343 40.3112 79.4809 40.1367 78.8179 39.7682C78.1548 39.3996 77.6089 38.8519 77.2425 38.1877H77.1859V44.0909H74.7398V28.2284H77.1082V30.211H77.153C77.5362 29.5497 78.0915 29.0046 78.7598 28.6337C79.4281 28.2627 80.1845 28.0799 80.9484 28.1046C83.9724 28.1046 85.9682 30.4954 85.9682 34.1895ZM83.4524 34.1895C83.4524 31.7763 82.2057 30.19 80.302 30.19C78.4326 30.19 77.1753 31.8093 77.1753 34.1895C77.1753 36.5908 78.4326 38.1996 80.302 38.1996C82.2057 38.1996 83.4524 36.6237 83.4524 34.1895ZM94.6374 35.5929C94.8177 37.2148 96.3923 38.2785 98.5448 38.2785C100.608 38.2785 102.091 37.2148 102.091 35.7522C102.091 34.4831 101.196 33.7248 99.0766 33.2034L96.9584 32.6926C93.9568 31.9686 92.5626 30.5639 92.5626 28.285C92.5626 25.465 95.0205 23.5272 98.5105 23.5272C101.966 23.5272 104.335 25.465 104.414 28.285H101.944C101.797 26.6538 100.448 25.6691 98.4763 25.6691C96.5042 25.6691 95.1574 26.6657 95.1574 28.1152C95.1574 29.2711 96.0184 29.9517 98.1261 30.4717L99.9271 30.914C103.282 31.7079 104.673 33.0547 104.673 35.4467C104.673 38.505 102.238 40.4205 98.3631 40.4205C94.7388 40.4205 92.2901 38.5511 92.1321 35.5929H94.6374ZM109.956 25.4084V28.2284H112.223V30.1663H109.956V36.7369C109.956 37.7585 110.41 38.2338 111.407 38.2338C111.676 38.2291 111.944 38.2102 112.211 38.1772V40.1032C111.763 40.1869 111.308 40.2248 110.853 40.2164C108.44 40.2164 107.498 39.3094 107.498 36.9976V30.1663H105.766V28.2284H107.498V25.4084H109.956ZM113.534 34.1895C113.534 30.4388 115.744 28.0822 119.187 28.0822C122.643 28.0822 124.842 30.4388 124.842 34.1895C124.842 37.9494 122.655 40.2954 119.187 40.2954C115.721 40.2954 113.534 37.9494 113.534 34.1895ZM122.348 34.1895C122.348 31.6171 121.17 30.0978 119.187 30.0978C117.205 30.0978 116.027 31.6276 116.027 34.1895C116.027 36.7725 117.205 38.2785 119.186 38.2785C121.168 38.2785 122.348 36.7725 122.348 34.1895ZM126.859 28.2284H129.193V30.2571H129.248C129.406 29.6239 129.778 29.0644 130.299 28.6725C130.821 28.2805 131.462 28.08 132.114 28.1046C132.396 28.1035 132.678 28.1339 132.953 28.1955V30.4835C132.597 30.3749 132.226 30.3251 131.854 30.3361C131.498 30.3217 131.144 30.3843 130.815 30.5198C130.486 30.6552 130.19 30.8602 129.948 31.1207C129.706 31.3812 129.522 31.6911 129.411 32.029C129.3 32.3669 129.263 32.7249 129.303 33.0784V40.148H126.857L126.859 28.2284ZM144.234 36.6474C143.905 38.8104 141.798 40.2954 139.102 40.2954C135.635 40.2954 133.482 37.9731 133.482 34.2461C133.482 30.5072 135.646 28.0822 138.998 28.0822C142.297 28.0822 144.369 30.3466 144.369 33.9617V34.8003H135.952V34.9478C135.913 35.3865 135.968 35.8284 136.113 36.2441C136.258 36.6599 136.49 37.04 136.794 37.3593C137.097 37.6786 137.465 37.9296 137.872 38.0958C138.28 38.262 138.719 38.3396 139.159 38.3233C139.737 38.3773 140.317 38.2434 140.812 37.9415C141.308 37.6396 141.693 37.1857 141.91 36.6474H144.234ZM135.964 33.0902H141.922C141.944 32.6958 141.884 32.3012 141.747 31.931C141.609 31.5608 141.396 31.223 141.122 30.939C140.847 30.6549 140.517 30.4306 140.152 30.2802C139.787 30.1298 139.394 30.0565 138.999 30.0649C138.601 30.0625 138.206 30.139 137.837 30.29C137.469 30.4411 137.133 30.6636 136.851 30.9449C136.569 31.2262 136.345 31.5606 136.193 31.9288C136.04 32.297 135.963 32.6917 135.964 33.0902Z" fill="black"/>
    <path d="M50.0291 11.4944C50.5421 11.4575 51.0568 11.535 51.5362 11.7212C52.0156 11.9074 52.4477 12.1977 52.8014 12.5711C53.155 12.9445 53.4213 13.3918 53.5812 13.8806C53.7411 14.3694 53.7905 14.8876 53.7259 15.3978C53.7259 17.907 52.3699 19.3499 50.0291 19.3499H47.1921V11.493L50.0291 11.4944ZM48.4125 18.2388H49.8935C50.26 18.2605 50.6266 18.2003 50.9669 18.0625C51.3071 17.9247 51.6123 17.7128 51.8603 17.4422C52.1084 17.1716 52.293 16.8491 52.4007 16.4982C52.5084 16.1472 52.5366 15.7767 52.4831 15.4136C52.5328 15.0518 52.5018 14.6836 52.3925 14.3352C52.2831 13.9868 52.0981 13.6669 51.8506 13.3984C51.6031 13.1299 51.2993 12.9195 50.961 12.7822C50.6226 12.6449 50.2581 12.5841 49.8935 12.6042H48.4125V18.2388ZM55.1029 16.3825C55.0671 15.9937 55.1127 15.6016 55.237 15.2314C55.3612 14.8612 55.5613 14.521 55.8244 14.2325C56.0876 13.944 56.408 13.7135 56.7652 13.5559C57.1225 13.3982 57.5087 13.3167 57.8992 13.3167C58.2897 13.3167 58.6759 13.3982 59.0331 13.5559C59.3903 13.7135 59.7108 13.944 59.9739 14.2325C60.237 14.521 60.4371 14.8612 60.5614 15.2314C60.6856 15.6016 60.7313 15.9937 60.6954 16.3825C60.7343 16.773 60.6909 17.1673 60.5681 17.54C60.4454 17.9127 60.2458 18.2555 59.9825 18.5464C59.7191 18.8373 59.3977 19.0698 59.039 19.229C58.6803 19.3881 58.2922 19.4703 57.8998 19.4703C57.5074 19.4703 57.1194 19.3881 56.7607 19.229C56.4019 19.0698 56.0806 18.8373 55.8172 18.5464C55.5538 18.2555 55.3543 17.9127 55.2315 17.54C55.1087 17.1673 55.064 16.773 55.1029 16.3825ZM59.4921 16.3825C59.4921 15.0976 58.9142 14.3459 57.9018 14.3459C56.8841 14.3459 56.3128 15.0976 56.3128 16.3825C56.3128 17.678 56.8841 18.4231 57.9018 18.4231C58.9155 18.4231 59.4921 17.6727 59.4921 16.3825ZM68.1271 19.3499H66.9132L65.6889 14.9831H65.5967L64.3763 19.3499H63.1744L61.5393 13.4217H62.7268L63.7879 17.9452H63.8761L65.0952 13.4217H66.2168L67.4359 17.9452H67.5281L68.5852 13.4217H69.7556L68.1271 19.3499ZM71.13 13.4217H72.2556V14.363H72.3425C72.4909 14.0248 72.7411 13.7413 73.0583 13.552C73.3754 13.3627 73.7437 13.2772 74.1119 13.3072C74.4004 13.2855 74.69 13.329 74.9594 13.4345C75.2288 13.5399 75.471 13.7046 75.6681 13.9164C75.8652 14.1282 76.0122 14.3816 76.098 14.6578C76.1839 14.9341 76.2066 15.2261 76.1643 15.5123V19.3499H74.9939V15.8059C74.9939 14.8527 74.5805 14.3788 73.7143 14.3788C73.5185 14.3697 73.323 14.4031 73.1413 14.4766C72.9596 14.5501 72.796 14.6621 72.6616 14.8047C72.5271 14.9474 72.4252 15.1174 72.3626 15.3032C72.3 15.4889 72.2783 15.686 72.299 15.8809V19.3499H71.13V13.4217ZM78.0285 11.1073H79.1975V19.3486H78.0285V11.1073ZM80.8247 16.3825C80.7878 15.9932 80.8327 15.6004 80.9564 15.2294C81.0801 14.8584 81.28 14.5174 81.5432 14.2281C81.8064 13.9388 82.1271 13.7077 82.4847 13.5495C82.8424 13.3914 83.2292 13.3097 83.6203 13.3097C84.0114 13.3097 84.3981 13.3914 84.7558 13.5495C85.1135 13.7077 85.4342 13.9388 85.6974 14.2281C85.9606 14.5174 86.1604 14.8584 86.2842 15.2294C86.4079 15.6004 86.4527 15.9932 86.4159 16.3825C86.4548 16.773 86.4114 17.1673 86.2886 17.54C86.1658 17.9127 85.9663 18.2555 85.7029 18.5464C85.4396 18.8373 85.1182 19.0698 84.7595 19.229C84.4008 19.3881 84.0127 19.4703 83.6203 19.4703C83.2279 19.4703 82.8398 19.3881 82.4811 19.229C82.1224 19.0698 81.801 18.8373 81.5376 18.5464C81.2743 18.2555 81.0748 17.9127 80.952 17.54C80.8292 17.1673 80.7858 16.773 80.8247 16.3825ZM85.2126 16.3825C85.2126 15.0976 84.6346 14.3459 83.6223 14.3459C82.6046 14.3459 82.0332 15.0976 82.0332 16.3825C82.0332 17.678 82.6046 18.4231 83.6223 18.4231C84.636 18.4231 85.2126 17.6727 85.2126 16.3825ZM87.6468 17.6727C87.6468 16.6063 88.442 15.9902 89.8533 15.9033L91.4594 15.8112V15.299C91.4594 14.6737 91.0447 14.3196 90.2456 14.3196C89.5913 14.3196 89.1397 14.5592 89.0094 14.9778H87.8772C87.9957 13.9602 88.9541 13.3059 90.2996 13.3059C91.7846 13.3059 92.6232 14.047 92.6232 15.299V19.3499H91.4976V18.5166H91.4054C91.2175 18.8155 90.9535 19.0592 90.6406 19.2227C90.3277 19.3862 89.9769 19.4637 89.6242 19.4473C89.3753 19.4733 89.1237 19.4468 88.8856 19.3695C88.6476 19.2922 88.4284 19.1659 88.2422 18.9986C88.056 18.8314 87.907 18.627 87.8046 18.3986C87.7023 18.1702 87.6477 17.9229 87.6468 17.6727ZM91.4581 17.1671V16.6708L90.0099 16.763C89.1937 16.8183 88.8251 17.0961 88.8251 17.6187C88.8251 18.1519 89.2872 18.4613 89.923 18.4613C90.1093 18.4801 90.2975 18.4612 90.4764 18.4059C90.6553 18.3506 90.8213 18.2598 90.9645 18.1391C91.1077 18.0184 91.2251 17.8702 91.3099 17.7032C91.3947 17.5363 91.4451 17.354 91.4581 17.1671ZM94.1608 16.3825C94.1608 14.5091 95.1245 13.323 96.6227 13.323C96.993 13.3061 97.3604 13.395 97.6821 13.5791C98.0038 13.7633 98.2665 14.0352 98.4395 14.363H98.5277V11.1073H99.6967V19.3486H98.5764V18.4139H98.4842C98.2976 18.7397 98.0253 19.0083 97.697 19.1904C97.3686 19.3726 96.9966 19.4614 96.6214 19.4473C95.114 19.4473 94.1608 18.2612 94.1608 16.3825ZM95.3694 16.3825C95.3694 17.6398 95.9618 18.3968 96.9531 18.3968C97.9405 18.3968 98.5487 17.6292 98.5487 16.3878C98.5487 15.1529 97.9326 14.3735 96.9531 14.3735C95.9684 14.3735 95.3694 15.1371 95.3694 16.3825ZM104.538 16.3825C104.501 15.9932 104.545 15.6004 104.669 15.2294C104.793 14.8584 104.993 14.5174 105.256 14.2281C105.519 13.9388 105.84 13.7077 106.198 13.5495C106.555 13.3914 106.942 13.3097 107.333 13.3097C107.724 13.3097 108.111 13.3914 108.469 13.5495C108.826 13.7077 109.147 13.9388 109.41 14.2281C109.673 14.5174 109.873 14.8584 109.997 15.2294C110.121 15.6004 110.166 15.9932 110.129 16.3825C110.168 16.773 110.124 17.1673 110.001 17.54C109.879 17.9127 109.679 18.2555 109.416 18.5464C109.152 18.8373 108.831 19.0698 108.472 19.229C108.114 19.3881 107.725 19.4703 107.333 19.4703C106.941 19.4703 106.553 19.3881 106.194 19.229C105.835 19.0698 105.514 18.8373 105.25 18.5464C104.987 18.2555 104.788 17.9127 104.665 17.54C104.542 17.1673 104.499 16.773 104.538 16.3825ZM108.925 16.3825C108.925 15.0976 108.349 14.3459 107.335 14.3459C106.319 14.3459 105.746 15.0976 105.746 16.3825C105.746 17.678 106.319 18.4231 107.335 18.4231C108.349 18.4231 108.925 17.6727 108.925 16.3825ZM111.699 13.4217H112.825V14.363H112.912C113.06 14.0248 113.31 13.7413 113.628 13.552C113.945 13.3627 114.313 13.2772 114.681 13.3072C114.97 13.2855 115.259 13.329 115.529 13.4345C115.798 13.5399 116.04 13.7046 116.237 13.9164C116.434 14.1282 116.581 14.3816 116.667 14.6578C116.753 14.9341 116.776 15.2261 116.734 15.5123V19.3499H115.563V15.8059C115.563 14.8527 115.15 14.3788 114.284 14.3788C114.088 14.3697 113.892 14.4031 113.711 14.4766C113.529 14.5501 113.365 14.6621 113.231 14.8047C113.096 14.9474 112.994 15.1174 112.932 15.3032C112.869 15.4889 112.848 15.686 112.868 15.8809V19.3499H111.698L111.699 13.4217ZM123.344 11.9459V13.448H124.629V14.4341H123.344V17.4818C123.344 18.1032 123.599 18.3757 124.182 18.3757C124.331 18.375 124.48 18.3658 124.629 18.348V19.3223C124.418 19.3601 124.205 19.3804 123.991 19.3828C122.691 19.3828 122.173 18.9247 122.173 17.782V14.4341H121.232V13.448H122.173V11.9459H123.344ZM126.227 11.1073H127.385V14.3735H127.478C127.633 14.0321 127.891 13.747 128.214 13.5572C128.538 13.3673 128.912 13.2818 129.286 13.3124C129.573 13.2969 129.86 13.3448 130.126 13.4529C130.393 13.561 130.632 13.7265 130.827 13.9376C131.022 14.1487 131.167 14.4003 131.254 14.6743C131.34 14.9483 131.365 15.2381 131.327 15.5228V19.3499H130.157V15.8112C130.157 14.8633 129.716 14.3841 128.889 14.3841C128.688 14.3675 128.485 14.3952 128.296 14.465C128.107 14.5349 127.935 14.6453 127.793 14.7885C127.65 14.9317 127.541 15.1043 127.473 15.2941C127.404 15.484 127.378 15.6865 127.396 15.8875V19.3499H126.227V11.1073ZM138.149 17.749C137.99 18.2906 137.646 18.7591 137.177 19.0727C136.708 19.3863 136.143 19.5249 135.582 19.4644C135.191 19.475 134.803 19.4004 134.444 19.2457C134.085 19.091 133.764 18.86 133.503 18.5687C133.242 18.2774 133.048 17.9329 132.934 17.559C132.82 17.1851 132.789 16.7908 132.842 16.4036C132.79 16.0154 132.823 15.6207 132.936 15.246C133.05 14.8714 133.243 14.5256 133.502 14.232C133.762 13.9384 134.081 13.7039 134.438 13.5443C134.796 13.3848 135.184 13.3039 135.575 13.3072C137.225 13.3072 138.22 14.4341 138.22 16.2956V16.7037H134.034V16.7696C134.015 16.9872 134.043 17.2063 134.114 17.4127C134.185 17.6192 134.299 17.8084 134.448 17.9684C134.596 18.1283 134.777 18.2553 134.978 18.3414C135.179 18.4274 135.395 18.4705 135.613 18.4679C135.893 18.501 136.176 18.4503 136.427 18.3224C136.678 18.1944 136.885 17.9949 137.022 17.749H138.149ZM134.034 15.8388H137.029C137.044 15.6397 137.017 15.4397 136.95 15.2516C136.883 15.0635 136.777 14.8916 136.639 14.7469C136.502 14.6021 136.336 14.4878 136.151 14.4113C135.967 14.3347 135.768 14.2977 135.569 14.3024C135.366 14.3 135.165 14.338 134.978 14.4144C134.791 14.4907 134.62 14.6038 134.477 14.747C134.334 14.8902 134.221 15.0605 134.145 15.248C134.069 15.4356 134.031 15.6364 134.034 15.8388Z" fill="black"/>
  </g>
  <defs>
    <clipPath id="clip0_73_772">
      <rect width="157.538" height="52.66" fill="white" transform="translate(0.231201)"/>
    </clipPath>
  </defs>
</svg>