<svg width="71" height="84" viewBox="0 0 71 84" fill="none" xmlns="http://www.w3.org/2000/svg">
<path id="Vector" d="M71 61.3341C69.6748 65.5409 67.5851 69.7476 64.7308 73.9543C60.3475 80.5505 55.9811 83.8486 51.6317 83.8486C49.9667 83.8486 47.5882 83.3101 44.4961 82.2332C41.5738 81.1562 39.0084 80.6178 36.7997 80.6178C34.727 80.6178 32.3144 81.1731 29.5621 82.2837C26.8098 83.4279 24.5671 84 22.8342 84C17.6693 84 12.5554 79.6418 7.49246 70.9255C2.49749 62.1418 0 53.6779 0 45.5337C0 37.8606 1.91984 31.5673 5.75951 26.6538C9.59919 21.8077 14.4243 19.3846 20.2347 19.3846C22.6813 19.3846 25.6884 19.8894 29.2563 20.899C32.7901 21.9087 35.1347 22.4135 36.29 22.4135C37.8191 22.4135 40.2486 21.8413 43.5786 20.6971C47.0445 19.5529 49.9837 18.9808 52.3963 18.9808C56.4398 18.9808 60.0586 20.0745 63.2527 22.262C65.0196 23.4736 66.7866 25.1562 68.5535 27.3101C65.8691 29.5649 63.9323 31.5505 62.743 33.2668C60.5343 36.4303 59.43 39.9135 59.43 43.7163C59.43 47.8894 60.6023 51.6418 62.9469 54.9736C65.2915 58.3053 67.9758 60.4255 71 61.3341ZM51.8356 2.12019C51.8356 4.17308 51.3429 6.46154 50.3575 8.98558C49.3381 11.5096 47.7581 13.8317 45.6174 15.9519C43.7825 17.7692 41.9476 18.9808 40.1127 19.5865C38.8555 19.9567 37.0885 20.2428 34.8119 20.4447C34.9139 15.4303 36.2391 11.1058 38.7875 7.47115C41.302 3.87019 45.5494 1.37981 51.5298 0C51.5638 0.100962 51.6062 0.286058 51.6572 0.555288C51.7082 0.824519 51.7507 1.00962 51.7846 1.11058C51.7846 1.24519 51.7931 1.41346 51.8101 1.61538C51.8271 1.81731 51.8356 1.98558 51.8356 2.12019Z" fill="url(#paint0_linear_1_4)"/>
<defs>
<linearGradient id="paint0_linear_1_4" x1="35.5" y1="0" x2="35.5" y2="84" gradientUnits="userSpaceOnUse">
<stop stop-color="#EC368D"/>
<stop offset="1" stop-color="#D72828"/>
</linearGradient>
</defs>
</svg>
