<svg width="17" height="17" viewBox="0 0 17 17" fill="none" xmlns="http://www.w3.org/2000/svg"><path d="M1.10215 5.09711C1.24278 4.95666 1.4334 4.87777 1.63215 4.87777C1.8309 4.87777 2.02153 4.95666 2.16215 5.09711L8.63215 11.5671L15.1022 5.09711C15.1708 5.02342 15.2536 4.96432 15.3456 4.92333C15.4376 4.88233 15.5369 4.86029 15.6376 4.85852C15.7383 4.85674 15.8384 4.87526 15.9318 4.91298C16.0251 4.9507 16.11 5.00685 16.1812 5.07807C16.2524 5.14929 16.3086 5.23412 16.3463 5.32751C16.384 5.4209 16.4025 5.52093 16.4007 5.62163C16.399 5.72233 16.3769 5.82165 16.3359 5.91364C16.2949 6.00564 16.2358 6.08844 16.1622 6.15711L8.63215 13.6871L1.10215 6.15711C0.961702 6.01648 0.882813 5.82586 0.882812 5.62711C0.882813 5.42836 0.961702 5.23773 1.10215 5.09711Z" fill="#fff"></path></svg>