<svg xmlns="http://www.w3.org/2000/svg" width="47" height="48" viewBox="0 0 47 48" fill="none">
  <mask id="mask0_168_539" style="mask-type:luminance" maskUnits="userSpaceOnUse" x="0" y="0" width="47" height="48">
    <path d="M46.9759 0.580017H0V47.5559H46.9759V0.580017Z" fill="white"/>
  </mask>
  <g mask="url(#mask0_168_539)">
    <path d="M39.0193 47.5559C28.6392 47.5559 18.2577 47.5559 7.87752 47.5559C7.79182 47.5278 7.7088 47.4863 7.62176 47.4742C4.01441 46.9801 1.12612 44.3851 0.245042 40.8353C0.149971 40.4537 0.0816809 40.0654 0 39.6797C0.00133903 29.3022 0.00133903 18.9234 0.00133903 8.54593C0.0294586 8.46023 0.0709686 8.37587 0.0830199 8.28749C0.725754 3.84593 4.31569 0.685805 8.82287 0.676432C18.5763 0.656346 28.3312 0.669736 38.0847 0.671076C39.3354 0.671076 40.5619 0.859879 41.6827 1.42227C45.0477 3.10946 46.8821 5.80359 46.8928 9.61983C46.9089 15.4339 46.8969 21.2493 46.8969 27.0634C46.8969 30.9399 46.9076 34.8164 46.8942 38.6929C46.8795 42.6136 44.5161 45.9022 40.8351 47.1274C40.2472 47.3216 39.6259 47.4153 39.0193 47.5559ZM14.0799 8.50574C13.8857 8.51913 13.7639 8.52182 13.642 8.53521C11.9053 8.74142 10.3695 9.31452 9.46025 10.9415C9.09068 11.6043 8.75056 12.2899 8.46401 12.9942C7.8976 14.3881 7.678 15.8329 7.93911 17.3367C8.30199 19.4296 9.0947 21.3832 9.97176 23.2887C12.1651 28.061 15.6707 31.7567 19.7815 34.9262C22.252 36.8316 25.068 38.0542 27.9978 39.0477C29.2337 39.4668 30.487 39.7735 31.8006 39.7146C33.5025 39.6382 35.0411 39.0169 36.4899 38.1773C37.2987 37.7073 38.0285 37.1142 38.4154 36.2183C38.8118 35.3011 39.0301 34.3383 39.0796 33.3381C39.1037 32.8587 38.9685 32.4811 38.5212 32.2334C38.0686 31.983 37.6401 31.6871 37.1916 31.4286C35.8043 30.6319 34.389 29.8807 33.0285 29.0411C31.581 28.148 31.2128 28.1574 30.0733 29.4228C29.389 30.182 28.7356 30.9693 28.0446 31.7219C27.3564 32.4704 26.9667 32.5574 26.0722 32.0767C24.2565 31.1006 22.5171 30.0026 20.9505 28.6488C18.6527 26.663 16.9668 24.2099 15.518 21.5747C15.4095 21.3765 15.3439 21.1529 15.2663 20.9387C15.1283 20.5611 15.1779 20.2102 15.4711 19.9264C15.9612 19.4483 16.4593 18.9783 16.9628 18.515C17.5466 17.9794 18.1773 17.4907 18.721 16.9189C19.2994 16.3123 19.3008 15.8557 18.8763 15.1393C18.504 14.51 18.1238 13.886 17.7582 13.2526C16.9909 11.9189 16.225 10.5826 15.4711 9.24088C15.1431 8.65974 14.6891 8.36916 14.0799 8.50574Z" fill="#0078BF"/>
  </g>
</svg>