<svg xmlns="http://www.w3.org/2000/svg" width="29" height="28" viewBox="0 0 29 28" fill="none">
<g clip-path="url(#clip0_73_822)">
<path d="M24.631 9.33335C25.2532 9.33335 25.8498 9.57918 26.2898 10.0168C26.7297 10.4544 26.9768 11.0478 26.9768 11.6667V16.3333C26.9768 16.9522 26.7297 17.5457 26.2898 17.9833C25.8498 18.4208 25.2532 18.6667 24.631 18.6667H23.3854C23.0995 20.9222 21.9958 22.9964 20.2816 24.5C18.5674 26.0036 16.3604 26.8333 14.0749 26.8333V24.5C15.9413 24.5 17.7313 23.7625 19.0511 22.4498C20.3709 21.137 21.1123 19.3565 21.1123 17.5V10.5C21.1123 8.6435 20.3709 6.86302 19.0511 5.55027C17.7313 4.23751 15.9413 3.50002 14.0749 3.50002C12.2084 3.50002 10.4184 4.23751 9.09866 5.55027C7.77888 6.86302 7.03744 8.6435 7.03744 10.5V18.6667H3.51872C2.89658 18.6667 2.29991 18.4208 1.85998 17.9833C1.42006 17.5457 1.17291 16.9522 1.17291 16.3333V11.6667C1.17291 11.0478 1.42006 10.4544 1.85998 10.0168C2.29991 9.57918 2.89658 9.33335 3.51872 9.33335H4.76435C5.05057 7.07806 6.15434 5.00417 7.86853 3.5008C9.58272 1.99744 11.7895 1.16794 14.0749 1.16794C16.3602 1.16794 18.567 1.99744 20.2812 3.5008C21.9954 5.00417 23.0992 7.07806 23.3854 9.33335H24.631ZM9.10175 18.4158L10.345 16.4372C11.4629 17.1337 12.7558 17.5021 14.0749 17.5C15.394 17.5021 16.6868 17.1337 17.8047 16.4372L19.048 18.4158C17.5575 19.3447 15.8337 19.836 14.0749 19.8333C12.3161 19.836 10.5922 19.3447 9.10175 18.4158Z" fill="white"/>
</g>
<defs>
<clipPath id="clip0_73_822">
<rect width="28.1497" height="28" fill="white"/>
</clipPath>
</defs>
</svg>