<svg xmlns="http://www.w3.org/2000/svg" width="1920" height="925" viewBox="0 0 1920 925" fill="none">
  <path fill-rule="evenodd" clip-rule="evenodd" d="M-102.5 9C-100.015 9 -98 6.98528 -98 4.5C-98 2.01472 -100.015 0 -102.5 0C-104.985 0 -107 2.01472 -107 4.5C-107 6.98528 -104.985 9 -102.5 9ZM-102.5 89C-100.015 89 -98 86.9853 -98 84.5C-98 82.0147 -100.015 80 -102.5 80C-104.985 80 -107 82.0147 -107 84.5C-107 86.9853 -104.985 89 -102.5 89ZM-98 164.5C-98 166.985 -100.015 169 -102.5 169C-104.985 169 -107 166.985 -107 164.5C-107 162.015 -104.985 160 -102.5 160C-100.015 160 -98 162.015 -98 164.5ZM-102.5 249C-100.015 249 -98 246.985 -98 244.5C-98 242.015 -100.015 240 -102.5 240C-104.985 240 -107 242.015 -107 244.5C-107 246.985 -104.985 249 -102.5 249ZM-98 324.5C-98 326.985 -100.015 329 -102.5 329C-104.985 329 -107 326.985 -107 324.5C-107 322.015 -104.985 320 -102.5 320C-100.015 320 -98 322.015 -98 324.5ZM-102.5 409C-100.015 409 -98 406.985 -98 404.5C-98 402.015 -100.015 400 -102.5 400C-104.985 400 -107 402.015 -107 404.5C-107 406.985 -104.985 409 -102.5 409ZM-98 484.5C-98 486.985 -100.015 489 -102.5 489C-104.985 489 -107 486.985 -107 484.5C-107 482.015 -104.985 480 -102.5 480C-100.015 480 -98 482.015 -98 484.5ZM-102.5 569C-100.015 569 -98 566.985 -98 564.5C-98 562.015 -100.015 560 -102.5 560C-104.985 560 -107 562.015 -107 564.5C-107 566.985 -104.985 569 -102.5 569ZM-98 644.5C-98 646.985 -100.015 649 -102.5 649C-104.985 649 -107 646.985 -107 644.5C-107 642.015 -104.985 640 -102.5 640C-100.015 640 -98 642.015 -98 644.5ZM-102.5 729C-100.015 729 -98 726.985 -98 724.5C-98 722.015 -100.015 720 -102.5 720C-104.985 720 -107 722.015 -107 724.5C-107 726.985 -104.985 729 -102.5 729ZM-98 804.5C-98 806.985 -100.015 809 -102.5 809C-104.985 809 -107 806.985 -107 804.5C-107 802.015 -104.985 800 -102.5 800C-100.015 800 -98 802.015 -98 804.5ZM-102.5 889C-100.015 889 -98 886.985 -98 884.5C-98 882.015 -100.015 880 -102.5 880C-104.985 880 -107 882.015 -107 884.5C-107 886.985 -104.985 889 -102.5 889ZM-98 964.5C-98 966.985 -100.015 969 -102.5 969C-104.985 969 -107 966.985 -107 964.5C-107 962.015 -104.985 960 -102.5 960C-100.015 960 -98 962.015 -98 964.5ZM-102.5 1049C-100.015 1049 -98 1046.99 -98 1044.5C-98 1042.01 -100.015 1040 -102.5 1040C-104.985 1040 -107 1042.01 -107 1044.5C-107 1046.99 -104.985 1049 -102.5 1049ZM20 4.5C20 6.98528 17.9853 9 15.5 9C13.0147 9 11 6.98528 11 4.5C11 2.01472 13.0147 0 15.5 0C17.9853 0 20 2.01472 20 4.5ZM15.5 89C17.9853 89 20 86.9853 20 84.5C20 82.0147 17.9853 80 15.5 80C13.0147 80 11 82.0147 11 84.5C11 86.9853 13.0147 89 15.5 89ZM20 164.5C20 166.985 17.9853 169 15.5 169C13.0147 169 11 166.985 11 164.5C11 162.015 13.0147 160 15.5 160C17.9853 160 20 162.015 20 164.5ZM15.5 249C17.9853 249 20 246.985 20 244.5C20 242.015 17.9853 240 15.5 240C13.0147 240 11 242.015 11 244.5C11 246.985 13.0147 249 15.5 249ZM20 324.5C20 326.985 17.9853 329 15.5 329C13.0147 329 11 326.985 11 324.5C11 322.015 13.0147 320 15.5 320C17.9853 320 20 322.015 20 324.5ZM15.5 409C17.9853 409 20 406.985 20 404.5C20 402.015 17.9853 400 15.5 400C13.0147 400 11 402.015 11 404.5C11 406.985 13.0147 409 15.5 409ZM20 484.5C20 486.985 17.9853 489 15.5 489C13.0147 489 11 486.985 11 484.5C11 482.015 13.0147 480 15.5 480C17.9853 480 20 482.015 20 484.5ZM15.5 569C17.9853 569 20 566.985 20 564.5C20 562.015 17.9853 560 15.5 560C13.0147 560 11 562.015 11 564.5C11 566.985 13.0147 569 15.5 569ZM20 644.5C20 646.985 17.9853 649 15.5 649C13.0147 649 11 646.985 11 644.5C11 642.015 13.0147 640 15.5 640C17.9853 640 20 642.015 20 644.5ZM15.5 729C17.9853 729 20 726.985 20 724.5C20 722.015 17.9853 720 15.5 720C13.0147 720 11 722.015 11 724.5C11 726.985 13.0147 729 15.5 729ZM20 804.5C20 806.985 17.9853 809 15.5 809C13.0147 809 11 806.985 11 804.5C11 802.015 13.0147 800 15.5 800C17.9853 800 20 802.015 20 804.5ZM15.5 889C17.9853 889 20 886.985 20 884.5C20 882.015 17.9853 880 15.5 880C13.0147 880 11 882.015 11 884.5C11 886.985 13.0147 889 15.5 889ZM20 964.5C20 966.985 17.9853 969 15.5 969C13.0147 969 11 966.985 11 964.5C11 962.015 13.0147 960 15.5 960C17.9853 960 20 962.015 20 964.5ZM15.5 1049C17.9853 1049 20 1046.99 20 1044.5C20 1042.01 17.9853 1040 15.5 1040C13.0147 1040 11 1042.01 11 1044.5C11 1046.99 13.0147 1049 15.5 1049ZM138 4.5C138 6.98528 135.985 9 133.5 9C131.015 9 129 6.98528 129 4.5C129 2.01472 131.015 0 133.5 0C135.985 0 138 2.01472 138 4.5ZM133.5 89C135.985 89 138 86.9853 138 84.5C138 82.0147 135.985 80 133.5 80C131.015 80 129 82.0147 129 84.5C129 86.9853 131.015 89 133.5 89ZM138 164.5C138 166.985 135.985 169 133.5 169C131.015 169 129 166.985 129 164.5C129 162.015 131.015 160 133.5 160C135.985 160 138 162.015 138 164.5ZM133.5 249C135.985 249 138 246.985 138 244.5C138 242.015 135.985 240 133.5 240C131.015 240 129 242.015 129 244.5C129 246.985 131.015 249 133.5 249ZM138 324.5C138 326.985 135.985 329 133.5 329C131.015 329 129 326.985 129 324.5C129 322.015 131.015 320 133.5 320C135.985 320 138 322.015 138 324.5ZM133.5 409C135.985 409 138 406.985 138 404.5C138 402.015 135.985 400 133.5 400C131.015 400 129 402.015 129 404.5C129 406.985 131.015 409 133.5 409ZM138 484.5C138 486.985 135.985 489 133.5 489C131.015 489 129 486.985 129 484.5C129 482.015 131.015 480 133.5 480C135.985 480 138 482.015 138 484.5ZM133.5 569C135.985 569 138 566.985 138 564.5C138 562.015 135.985 560 133.5 560C131.015 560 129 562.015 129 564.5C129 566.985 131.015 569 133.5 569ZM138 644.5C138 646.985 135.985 649 133.5 649C131.015 649 129 646.985 129 644.5C129 642.015 131.015 640 133.5 640C135.985 640 138 642.015 138 644.5ZM133.5 729C135.985 729 138 726.985 138 724.5C138 722.015 135.985 720 133.5 720C131.015 720 129 722.015 129 724.5C129 726.985 131.015 729 133.5 729ZM138 804.5C138 806.985 135.985 809 133.5 809C131.015 809 129 806.985 129 804.5C129 802.015 131.015 800 133.5 800C135.985 800 138 802.015 138 804.5ZM133.5 889C135.985 889 138 886.985 138 884.5C138 882.015 135.985 880 133.5 880C131.015 880 129 882.015 129 884.5C129 886.985 131.015 889 133.5 889ZM138 964.5C138 966.985 135.985 969 133.5 969C131.015 969 129 966.985 129 964.5C129 962.015 131.015 960 133.5 960C135.985 960 138 962.015 138 964.5ZM133.5 1049C135.985 1049 138 1046.99 138 1044.5C138 1042.01 135.985 1040 133.5 1040C131.015 1040 129 1042.01 129 1044.5C129 1046.99 131.015 1049 133.5 1049ZM256 4.5C256 6.98528 253.985 9 251.5 9C249.015 9 247 6.98528 247 4.5C247 2.01472 249.015 0 251.5 0C253.985 0 256 2.01472 256 4.5ZM251.5 89C253.985 89 256 86.9853 256 84.5C256 82.0147 253.985 80 251.5 80C249.015 80 247 82.0147 247 84.5C247 86.9853 249.015 89 251.5 89ZM256 164.5C256 166.985 253.985 169 251.5 169C249.015 169 247 166.985 247 164.5C247 162.015 249.015 160 251.5 160C253.985 160 256 162.015 256 164.5ZM251.5 249C253.985 249 256 246.985 256 244.5C256 242.015 253.985 240 251.5 240C249.015 240 247 242.015 247 244.5C247 246.985 249.015 249 251.5 249ZM256 324.5C256 326.985 253.985 329 251.5 329C249.015 329 247 326.985 247 324.5C247 322.015 249.015 320 251.5 320C253.985 320 256 322.015 256 324.5ZM251.5 409C253.985 409 256 406.985 256 404.5C256 402.015 253.985 400 251.5 400C249.015 400 247 402.015 247 404.5C247 406.985 249.015 409 251.5 409ZM256 484.5C256 486.985 253.985 489 251.5 489C249.015 489 247 486.985 247 484.5C247 482.015 249.015 480 251.5 480C253.985 480 256 482.015 256 484.5ZM251.5 569C253.985 569 256 566.985 256 564.5C256 562.015 253.985 560 251.5 560C249.015 560 247 562.015 247 564.5C247 566.985 249.015 569 251.5 569ZM256 644.5C256 646.985 253.985 649 251.5 649C249.015 649 247 646.985 247 644.5C247 642.015 249.015 640 251.5 640C253.985 640 256 642.015 256 644.5ZM251.5 729C253.985 729 256 726.985 256 724.5C256 722.015 253.985 720 251.5 720C249.015 720 247 722.015 247 724.5C247 726.985 249.015 729 251.5 729ZM256 804.5C256 806.985 253.985 809 251.5 809C249.015 809 247 806.985 247 804.5C247 802.015 249.015 800 251.5 800C253.985 800 256 802.015 256 804.5ZM251.5 889C253.985 889 256 886.985 256 884.5C256 882.015 253.985 880 251.5 880C249.015 880 247 882.015 247 884.5C247 886.985 249.015 889 251.5 889ZM256 964.5C256 966.985 253.985 969 251.5 969C249.015 969 247 966.985 247 964.5C247 962.015 249.015 960 251.5 960C253.985 960 256 962.015 256 964.5ZM251.5 1049C253.985 1049 256 1046.99 256 1044.5C256 1042.01 253.985 1040 251.5 1040C249.015 1040 247 1042.01 247 1044.5C247 1046.99 249.015 1049 251.5 1049ZM374 4.5C374 6.98528 371.985 9 369.5 9C367.015 9 365 6.98528 365 4.5C365 2.01472 367.015 0 369.5 0C371.985 0 374 2.01472 374 4.5ZM369.5 89C371.985 89 374 86.9853 374 84.5C374 82.0147 371.985 80 369.5 80C367.015 80 365 82.0147 365 84.5C365 86.9853 367.015 89 369.5 89ZM374 164.5C374 166.985 371.985 169 369.5 169C367.015 169 365 166.985 365 164.5C365 162.015 367.015 160 369.5 160C371.985 160 374 162.015 374 164.5ZM369.5 249C371.985 249 374 246.985 374 244.5C374 242.015 371.985 240 369.5 240C367.015 240 365 242.015 365 244.5C365 246.985 367.015 249 369.5 249ZM374 324.5C374 326.985 371.985 329 369.5 329C367.015 329 365 326.985 365 324.5C365 322.015 367.015 320 369.5 320C371.985 320 374 322.015 374 324.5ZM369.5 409C371.985 409 374 406.985 374 404.5C374 402.015 371.985 400 369.5 400C367.015 400 365 402.015 365 404.5C365 406.985 367.015 409 369.5 409ZM374 484.5C374 486.985 371.985 489 369.5 489C367.015 489 365 486.985 365 484.5C365 482.015 367.015 480 369.5 480C371.985 480 374 482.015 374 484.5ZM369.5 569C371.985 569 374 566.985 374 564.5C374 562.015 371.985 560 369.5 560C367.015 560 365 562.015 365 564.5C365 566.985 367.015 569 369.5 569ZM374 644.5C374 646.985 371.985 649 369.5 649C367.015 649 365 646.985 365 644.5C365 642.015 367.015 640 369.5 640C371.985 640 374 642.015 374 644.5ZM369.5 729C371.985 729 374 726.985 374 724.5C374 722.015 371.985 720 369.5 720C367.015 720 365 722.015 365 724.5C365 726.985 367.015 729 369.5 729ZM374 804.5C374 806.985 371.985 809 369.5 809C367.015 809 365 806.985 365 804.5C365 802.015 367.015 800 369.5 800C371.985 800 374 802.015 374 804.5ZM369.5 889C371.985 889 374 886.985 374 884.5C374 882.015 371.985 880 369.5 880C367.015 880 365 882.015 365 884.5C365 886.985 367.015 889 369.5 889ZM374 964.5C374 966.985 371.985 969 369.5 969C367.015 969 365 966.985 365 964.5C365 962.015 367.015 960 369.5 960C371.985 960 374 962.015 374 964.5ZM369.5 1049C371.985 1049 374 1046.99 374 1044.5C374 1042.01 371.985 1040 369.5 1040C367.015 1040 365 1042.01 365 1044.5C365 1046.99 367.015 1049 369.5 1049ZM492 4.5C492 6.98528 489.985 9 487.5 9C485.015 9 483 6.98528 483 4.5C483 2.01472 485.015 0 487.5 0C489.985 0 492 2.01472 492 4.5ZM487.5 89C489.985 89 492 86.9853 492 84.5C492 82.0147 489.985 80 487.5 80C485.015 80 483 82.0147 483 84.5C483 86.9853 485.015 89 487.5 89ZM492 164.5C492 166.985 489.985 169 487.5 169C485.015 169 483 166.985 483 164.5C483 162.015 485.015 160 487.5 160C489.985 160 492 162.015 492 164.5ZM487.5 249C489.985 249 492 246.985 492 244.5C492 242.015 489.985 240 487.5 240C485.015 240 483 242.015 483 244.5C483 246.985 485.015 249 487.5 249ZM492 324.5C492 326.985 489.985 329 487.5 329C485.015 329 483 326.985 483 324.5C483 322.015 485.015 320 487.5 320C489.985 320 492 322.015 492 324.5ZM487.5 409C489.985 409 492 406.985 492 404.5C492 402.015 489.985 400 487.5 400C485.015 400 483 402.015 483 404.5C483 406.985 485.015 409 487.5 409ZM492 484.5C492 486.985 489.985 489 487.5 489C485.015 489 483 486.985 483 484.5C483 482.015 485.015 480 487.5 480C489.985 480 492 482.015 492 484.5ZM487.5 569C489.985 569 492 566.985 492 564.5C492 562.015 489.985 560 487.5 560C485.015 560 483 562.015 483 564.5C483 566.985 485.015 569 487.5 569ZM492 644.5C492 646.985 489.985 649 487.5 649C485.015 649 483 646.985 483 644.5C483 642.015 485.015 640 487.5 640C489.985 640 492 642.015 492 644.5ZM487.5 729C489.985 729 492 726.985 492 724.5C492 722.015 489.985 720 487.5 720C485.015 720 483 722.015 483 724.5C483 726.985 485.015 729 487.5 729ZM492 804.5C492 806.985 489.985 809 487.5 809C485.015 809 483 806.985 483 804.5C483 802.015 485.015 800 487.5 800C489.985 800 492 802.015 492 804.5ZM487.5 889C489.985 889 492 886.985 492 884.5C492 882.015 489.985 880 487.5 880C485.015 880 483 882.015 483 884.5C483 886.985 485.015 889 487.5 889ZM492 964.5C492 966.985 489.985 969 487.5 969C485.015 969 483 966.985 483 964.5C483 962.015 485.015 960 487.5 960C489.985 960 492 962.015 492 964.5ZM487.5 1049C489.985 1049 492 1046.99 492 1044.5C492 1042.01 489.985 1040 487.5 1040C485.015 1040 483 1042.01 483 1044.5C483 1046.99 485.015 1049 487.5 1049ZM610 4.5C610 6.98528 607.985 9 605.5 9C603.015 9 601 6.98528 601 4.5C601 2.01472 603.015 0 605.5 0C607.985 0 610 2.01472 610 4.5ZM605.5 89C607.985 89 610 86.9853 610 84.5C610 82.0147 607.985 80 605.5 80C603.015 80 601 82.0147 601 84.5C601 86.9853 603.015 89 605.5 89ZM610 164.5C610 166.985 607.985 169 605.5 169C603.015 169 601 166.985 601 164.5C601 162.015 603.015 160 605.5 160C607.985 160 610 162.015 610 164.5ZM605.5 249C607.985 249 610 246.985 610 244.5C610 242.015 607.985 240 605.5 240C603.015 240 601 242.015 601 244.5C601 246.985 603.015 249 605.5 249ZM610 324.5C610 326.985 607.985 329 605.5 329C603.015 329 601 326.985 601 324.5C601 322.015 603.015 320 605.5 320C607.985 320 610 322.015 610 324.5ZM605.5 409C607.985 409 610 406.985 610 404.5C610 402.015 607.985 400 605.5 400C603.015 400 601 402.015 601 404.5C601 406.985 603.015 409 605.5 409ZM610 484.5C610 486.985 607.985 489 605.5 489C603.015 489 601 486.985 601 484.5C601 482.015 603.015 480 605.5 480C607.985 480 610 482.015 610 484.5ZM605.5 569C607.985 569 610 566.985 610 564.5C610 562.015 607.985 560 605.5 560C603.015 560 601 562.015 601 564.5C601 566.985 603.015 569 605.5 569ZM610 644.5C610 646.985 607.985 649 605.5 649C603.015 649 601 646.985 601 644.5C601 642.015 603.015 640 605.5 640C607.985 640 610 642.015 610 644.5ZM605.5 729C607.985 729 610 726.985 610 724.5C610 722.015 607.985 720 605.5 720C603.015 720 601 722.015 601 724.5C601 726.985 603.015 729 605.5 729ZM610 804.5C610 806.985 607.985 809 605.5 809C603.015 809 601 806.985 601 804.5C601 802.015 603.015 800 605.5 800C607.985 800 610 802.015 610 804.5ZM605.5 889C607.985 889 610 886.985 610 884.5C610 882.015 607.985 880 605.5 880C603.015 880 601 882.015 601 884.5C601 886.985 603.015 889 605.5 889ZM610 964.5C610 966.985 607.985 969 605.5 969C603.015 969 601 966.985 601 964.5C601 962.015 603.015 960 605.5 960C607.985 960 610 962.015 610 964.5ZM605.5 1049C607.985 1049 610 1046.99 610 1044.5C610 1042.01 607.985 1040 605.5 1040C603.015 1040 601 1042.01 601 1044.5C601 1046.99 603.015 1049 605.5 1049ZM728 4.5C728 6.98528 725.985 9 723.5 9C721.015 9 719 6.98528 719 4.5C719 2.01472 721.015 0 723.5 0C725.985 0 728 2.01472 728 4.5ZM723.5 89C725.985 89 728 86.9853 728 84.5C728 82.0147 725.985 80 723.5 80C721.015 80 719 82.0147 719 84.5C719 86.9853 721.015 89 723.5 89ZM728 164.5C728 166.985 725.985 169 723.5 169C721.015 169 719 166.985 719 164.5C719 162.015 721.015 160 723.5 160C725.985 160 728 162.015 728 164.5ZM723.5 249C725.985 249 728 246.985 728 244.5C728 242.015 725.985 240 723.5 240C721.015 240 719 242.015 719 244.5C719 246.985 721.015 249 723.5 249ZM728 324.5C728 326.985 725.985 329 723.5 329C721.015 329 719 326.985 719 324.5C719 322.015 721.015 320 723.5 320C725.985 320 728 322.015 728 324.5ZM723.5 409C725.985 409 728 406.985 728 404.5C728 402.015 725.985 400 723.5 400C721.015 400 719 402.015 719 404.5C719 406.985 721.015 409 723.5 409ZM728 484.5C728 486.985 725.985 489 723.5 489C721.015 489 719 486.985 719 484.5C719 482.015 721.015 480 723.5 480C725.985 480 728 482.015 728 484.5ZM723.5 569C725.985 569 728 566.985 728 564.5C728 562.015 725.985 560 723.5 560C721.015 560 719 562.015 719 564.5C719 566.985 721.015 569 723.5 569ZM728 644.5C728 646.985 725.985 649 723.5 649C721.015 649 719 646.985 719 644.5C719 642.015 721.015 640 723.5 640C725.985 640 728 642.015 728 644.5ZM723.5 729C725.985 729 728 726.985 728 724.5C728 722.015 725.985 720 723.5 720C721.015 720 719 722.015 719 724.5C719 726.985 721.015 729 723.5 729ZM728 804.5C728 806.985 725.985 809 723.5 809C721.015 809 719 806.985 719 804.5C719 802.015 721.015 800 723.5 800C725.985 800 728 802.015 728 804.5ZM723.5 889C725.985 889 728 886.985 728 884.5C728 882.015 725.985 880 723.5 880C721.015 880 719 882.015 719 884.5C719 886.985 721.015 889 723.5 889ZM728 964.5C728 966.985 725.985 969 723.5 969C721.015 969 719 966.985 719 964.5C719 962.015 721.015 960 723.5 960C725.985 960 728 962.015 728 964.5ZM723.5 1049C725.985 1049 728 1046.99 728 1044.5C728 1042.01 725.985 1040 723.5 1040C721.015 1040 719 1042.01 719 1044.5C719 1046.99 721.015 1049 723.5 1049ZM846 4.5C846 6.98528 843.985 9 841.5 9C839.015 9 837 6.98528 837 4.5C837 2.01472 839.015 0 841.5 0C843.985 0 846 2.01472 846 4.5ZM841.5 89C843.985 89 846 86.9853 846 84.5C846 82.0147 843.985 80 841.5 80C839.015 80 837 82.0147 837 84.5C837 86.9853 839.015 89 841.5 89ZM846 164.5C846 166.985 843.985 169 841.5 169C839.015 169 837 166.985 837 164.5C837 162.015 839.015 160 841.5 160C843.985 160 846 162.015 846 164.5ZM841.5 249C843.985 249 846 246.985 846 244.5C846 242.015 843.985 240 841.5 240C839.015 240 837 242.015 837 244.5C837 246.985 839.015 249 841.5 249ZM846 324.5C846 326.985 843.985 329 841.5 329C839.015 329 837 326.985 837 324.5C837 322.015 839.015 320 841.5 320C843.985 320 846 322.015 846 324.5ZM841.5 409C843.985 409 846 406.985 846 404.5C846 402.015 843.985 400 841.5 400C839.015 400 837 402.015 837 404.5C837 406.985 839.015 409 841.5 409ZM846 484.5C846 486.985 843.985 489 841.5 489C839.015 489 837 486.985 837 484.5C837 482.015 839.015 480 841.5 480C843.985 480 846 482.015 846 484.5ZM841.5 569C843.985 569 846 566.985 846 564.5C846 562.015 843.985 560 841.5 560C839.015 560 837 562.015 837 564.5C837 566.985 839.015 569 841.5 569ZM846 644.5C846 646.985 843.985 649 841.5 649C839.015 649 837 646.985 837 644.5C837 642.015 839.015 640 841.5 640C843.985 640 846 642.015 846 644.5ZM841.5 729C843.985 729 846 726.985 846 724.5C846 722.015 843.985 720 841.5 720C839.015 720 837 722.015 837 724.5C837 726.985 839.015 729 841.5 729ZM846 804.5C846 806.985 843.985 809 841.5 809C839.015 809 837 806.985 837 804.5C837 802.015 839.015 800 841.5 800C843.985 800 846 802.015 846 804.5ZM841.5 889C843.985 889 846 886.985 846 884.5C846 882.015 843.985 880 841.5 880C839.015 880 837 882.015 837 884.5C837 886.985 839.015 889 841.5 889ZM846 964.5C846 966.985 843.985 969 841.5 969C839.015 969 837 966.985 837 964.5C837 962.015 839.015 960 841.5 960C843.985 960 846 962.015 846 964.5ZM841.5 1049C843.985 1049 846 1046.99 846 1044.5C846 1042.01 843.985 1040 841.5 1040C839.015 1040 837 1042.01 837 1044.5C837 1046.99 839.015 1049 841.5 1049ZM964 4.5C964 6.98528 961.985 9 959.5 9C957.015 9 955 6.98528 955 4.5C955 2.01472 957.015 0 959.5 0C961.985 0 964 2.01472 964 4.5ZM959.5 89C961.985 89 964 86.9853 964 84.5C964 82.0147 961.985 80 959.5 80C957.015 80 955 82.0147 955 84.5C955 86.9853 957.015 89 959.5 89ZM964 164.5C964 166.985 961.985 169 959.5 169C957.015 169 955 166.985 955 164.5C955 162.015 957.015 160 959.5 160C961.985 160 964 162.015 964 164.5ZM959.5 249C961.985 249 964 246.985 964 244.5C964 242.015 961.985 240 959.5 240C957.015 240 955 242.015 955 244.5C955 246.985 957.015 249 959.5 249ZM964 324.5C964 326.985 961.985 329 959.5 329C957.015 329 955 326.985 955 324.5C955 322.015 957.015 320 959.5 320C961.985 320 964 322.015 964 324.5ZM959.5 409C961.985 409 964 406.985 964 404.5C964 402.015 961.985 400 959.5 400C957.015 400 955 402.015 955 404.5C955 406.985 957.015 409 959.5 409ZM964 484.5C964 486.985 961.985 489 959.5 489C957.015 489 955 486.985 955 484.5C955 482.015 957.015 480 959.5 480C961.985 480 964 482.015 964 484.5ZM959.5 569C961.985 569 964 566.985 964 564.5C964 562.015 961.985 560 959.5 560C957.015 560 955 562.015 955 564.5C955 566.985 957.015 569 959.5 569ZM964 644.5C964 646.985 961.985 649 959.5 649C957.015 649 955 646.985 955 644.5C955 642.015 957.015 640 959.5 640C961.985 640 964 642.015 964 644.5ZM959.5 729C961.985 729 964 726.985 964 724.5C964 722.015 961.985 720 959.5 720C957.015 720 955 722.015 955 724.5C955 726.985 957.015 729 959.5 729ZM964 804.5C964 806.985 961.985 809 959.5 809C957.015 809 955 806.985 955 804.5C955 802.015 957.015 800 959.5 800C961.985 800 964 802.015 964 804.5ZM959.5 889C961.985 889 964 886.985 964 884.5C964 882.015 961.985 880 959.5 880C957.015 880 955 882.015 955 884.5C955 886.985 957.015 889 959.5 889ZM964 964.5C964 966.985 961.985 969 959.5 969C957.015 969 955 966.985 955 964.5C955 962.015 957.015 960 959.5 960C961.985 960 964 962.015 964 964.5ZM959.5 1049C961.985 1049 964 1046.99 964 1044.5C964 1042.01 961.985 1040 959.5 1040C957.015 1040 955 1042.01 955 1044.5C955 1046.99 957.015 1049 959.5 1049ZM1082 4.5C1082 6.98528 1079.99 9 1077.5 9C1075.01 9 1073 6.98528 1073 4.5C1073 2.01472 1075.01 0 1077.5 0C1079.99 0 1082 2.01472 1082 4.5ZM1077.5 89C1079.99 89 1082 86.9853 1082 84.5C1082 82.0147 1079.99 80 1077.5 80C1075.01 80 1073 82.0147 1073 84.5C1073 86.9853 1075.01 89 1077.5 89ZM1082 164.5C1082 166.985 1079.99 169 1077.5 169C1075.01 169 1073 166.985 1073 164.5C1073 162.015 1075.01 160 1077.5 160C1079.99 160 1082 162.015 1082 164.5ZM1077.5 249C1079.99 249 1082 246.985 1082 244.5C1082 242.015 1079.99 240 1077.5 240C1075.01 240 1073 242.015 1073 244.5C1073 246.985 1075.01 249 1077.5 249ZM1082 324.5C1082 326.985 1079.99 329 1077.5 329C1075.01 329 1073 326.985 1073 324.5C1073 322.015 1075.01 320 1077.5 320C1079.99 320 1082 322.015 1082 324.5ZM1077.5 409C1079.99 409 1082 406.985 1082 404.5C1082 402.015 1079.99 400 1077.5 400C1075.01 400 1073 402.015 1073 404.5C1073 406.985 1075.01 409 1077.5 409ZM1082 484.5C1082 486.985 1079.99 489 1077.5 489C1075.01 489 1073 486.985 1073 484.5C1073 482.015 1075.01 480 1077.5 480C1079.99 480 1082 482.015 1082 484.5ZM1077.5 569C1079.99 569 1082 566.985 1082 564.5C1082 562.015 1079.99 560 1077.5 560C1075.01 560 1073 562.015 1073 564.5C1073 566.985 1075.01 569 1077.5 569ZM1082 644.5C1082 646.985 1079.99 649 1077.5 649C1075.01 649 1073 646.985 1073 644.5C1073 642.015 1075.01 640 1077.5 640C1079.99 640 1082 642.015 1082 644.5ZM1077.5 729C1079.99 729 1082 726.985 1082 724.5C1082 722.015 1079.99 720 1077.5 720C1075.01 720 1073 722.015 1073 724.5C1073 726.985 1075.01 729 1077.5 729ZM1082 804.5C1082 806.985 1079.99 809 1077.5 809C1075.01 809 1073 806.985 1073 804.5C1073 802.015 1075.01 800 1077.5 800C1079.99 800 1082 802.015 1082 804.5ZM1077.5 889C1079.99 889 1082 886.985 1082 884.5C1082 882.015 1079.99 880 1077.5 880C1075.01 880 1073 882.015 1073 884.5C1073 886.985 1075.01 889 1077.5 889ZM1082 964.5C1082 966.985 1079.99 969 1077.5 969C1075.01 969 1073 966.985 1073 964.5C1073 962.015 1075.01 960 1077.5 960C1079.99 960 1082 962.015 1082 964.5ZM1077.5 1049C1079.99 1049 1082 1046.99 1082 1044.5C1082 1042.01 1079.99 1040 1077.5 1040C1075.01 1040 1073 1042.01 1073 1044.5C1073 1046.99 1075.01 1049 1077.5 1049ZM1200 4.5C1200 6.98528 1197.99 9 1195.5 9C1193.01 9 1191 6.98528 1191 4.5C1191 2.01472 1193.01 0 1195.5 0C1197.99 0 1200 2.01472 1200 4.5ZM1195.5 89C1197.99 89 1200 86.9853 1200 84.5C1200 82.0147 1197.99 80 1195.5 80C1193.01 80 1191 82.0147 1191 84.5C1191 86.9853 1193.01 89 1195.5 89ZM1200 164.5C1200 166.985 1197.99 169 1195.5 169C1193.01 169 1191 166.985 1191 164.5C1191 162.015 1193.01 160 1195.5 160C1197.99 160 1200 162.015 1200 164.5ZM1195.5 249C1197.99 249 1200 246.985 1200 244.5C1200 242.015 1197.99 240 1195.5 240C1193.01 240 1191 242.015 1191 244.5C1191 246.985 1193.01 249 1195.5 249ZM1200 324.5C1200 326.985 1197.99 329 1195.5 329C1193.01 329 1191 326.985 1191 324.5C1191 322.015 1193.01 320 1195.5 320C1197.99 320 1200 322.015 1200 324.5ZM1195.5 409C1197.99 409 1200 406.985 1200 404.5C1200 402.015 1197.99 400 1195.5 400C1193.01 400 1191 402.015 1191 404.5C1191 406.985 1193.01 409 1195.5 409ZM1200 484.5C1200 486.985 1197.99 489 1195.5 489C1193.01 489 1191 486.985 1191 484.5C1191 482.015 1193.01 480 1195.5 480C1197.99 480 1200 482.015 1200 484.5ZM1195.5 569C1197.99 569 1200 566.985 1200 564.5C1200 562.015 1197.99 560 1195.5 560C1193.01 560 1191 562.015 1191 564.5C1191 566.985 1193.01 569 1195.5 569ZM1200 644.5C1200 646.985 1197.99 649 1195.5 649C1193.01 649 1191 646.985 1191 644.5C1191 642.015 1193.01 640 1195.5 640C1197.99 640 1200 642.015 1200 644.5ZM1195.5 729C1197.99 729 1200 726.985 1200 724.5C1200 722.015 1197.99 720 1195.5 720C1193.01 720 1191 722.015 1191 724.5C1191 726.985 1193.01 729 1195.5 729ZM1200 804.5C1200 806.985 1197.99 809 1195.5 809C1193.01 809 1191 806.985 1191 804.5C1191 802.015 1193.01 800 1195.5 800C1197.99 800 1200 802.015 1200 804.5ZM1195.5 889C1197.99 889 1200 886.985 1200 884.5C1200 882.015 1197.99 880 1195.5 880C1193.01 880 1191 882.015 1191 884.5C1191 886.985 1193.01 889 1195.5 889ZM1200 964.5C1200 966.985 1197.99 969 1195.5 969C1193.01 969 1191 966.985 1191 964.5C1191 962.015 1193.01 960 1195.5 960C1197.99 960 1200 962.015 1200 964.5ZM1195.5 1049C1197.99 1049 1200 1046.99 1200 1044.5C1200 1042.01 1197.99 1040 1195.5 1040C1193.01 1040 1191 1042.01 1191 1044.5C1191 1046.99 1193.01 1049 1195.5 1049ZM1318 4.5C1318 6.98528 1315.99 9 1313.5 9C1311.01 9 1309 6.98528 1309 4.5C1309 2.01472 1311.01 0 1313.5 0C1315.99 0 1318 2.01472 1318 4.5ZM1313.5 89C1315.99 89 1318 86.9853 1318 84.5C1318 82.0147 1315.99 80 1313.5 80C1311.01 80 1309 82.0147 1309 84.5C1309 86.9853 1311.01 89 1313.5 89ZM1318 164.5C1318 166.985 1315.99 169 1313.5 169C1311.01 169 1309 166.985 1309 164.5C1309 162.015 1311.01 160 1313.5 160C1315.99 160 1318 162.015 1318 164.5ZM1313.5 249C1315.99 249 1318 246.985 1318 244.5C1318 242.015 1315.99 240 1313.5 240C1311.01 240 1309 242.015 1309 244.5C1309 246.985 1311.01 249 1313.5 249ZM1318 324.5C1318 326.985 1315.99 329 1313.5 329C1311.01 329 1309 326.985 1309 324.5C1309 322.015 1311.01 320 1313.5 320C1315.99 320 1318 322.015 1318 324.5ZM1313.5 409C1315.99 409 1318 406.985 1318 404.5C1318 402.015 1315.99 400 1313.5 400C1311.01 400 1309 402.015 1309 404.5C1309 406.985 1311.01 409 1313.5 409ZM1318 484.5C1318 486.985 1315.99 489 1313.5 489C1311.01 489 1309 486.985 1309 484.5C1309 482.015 1311.01 480 1313.5 480C1315.99 480 1318 482.015 1318 484.5ZM1313.5 569C1315.99 569 1318 566.985 1318 564.5C1318 562.015 1315.99 560 1313.5 560C1311.01 560 1309 562.015 1309 564.5C1309 566.985 1311.01 569 1313.5 569ZM1318 644.5C1318 646.985 1315.99 649 1313.5 649C1311.01 649 1309 646.985 1309 644.5C1309 642.015 1311.01 640 1313.5 640C1315.99 640 1318 642.015 1318 644.5ZM1313.5 729C1315.99 729 1318 726.985 1318 724.5C1318 722.015 1315.99 720 1313.5 720C1311.01 720 1309 722.015 1309 724.5C1309 726.985 1311.01 729 1313.5 729ZM1318 804.5C1318 806.985 1315.99 809 1313.5 809C1311.01 809 1309 806.985 1309 804.5C1309 802.015 1311.01 800 1313.5 800C1315.99 800 1318 802.015 1318 804.5ZM1313.5 889C1315.99 889 1318 886.985 1318 884.5C1318 882.015 1315.99 880 1313.5 880C1311.01 880 1309 882.015 1309 884.5C1309 886.985 1311.01 889 1313.5 889ZM1318 964.5C1318 966.985 1315.99 969 1313.5 969C1311.01 969 1309 966.985 1309 964.5C1309 962.015 1311.01 960 1313.5 960C1315.99 960 1318 962.015 1318 964.5ZM1313.5 1049C1315.99 1049 1318 1046.99 1318 1044.5C1318 1042.01 1315.99 1040 1313.5 1040C1311.01 1040 1309 1042.01 1309 1044.5C1309 1046.99 1311.01 1049 1313.5 1049ZM1436 4.5C1436 6.98528 1433.99 9 1431.5 9C1429.01 9 1427 6.98528 1427 4.5C1427 2.01472 1429.01 0 1431.5 0C1433.99 0 1436 2.01472 1436 4.5ZM1431.5 89C1433.99 89 1436 86.9853 1436 84.5C1436 82.0147 1433.99 80 1431.5 80C1429.01 80 1427 82.0147 1427 84.5C1427 86.9853 1429.01 89 1431.5 89ZM1436 164.5C1436 166.985 1433.99 169 1431.5 169C1429.01 169 1427 166.985 1427 164.5C1427 162.015 1429.01 160 1431.5 160C1433.99 160 1436 162.015 1436 164.5ZM1431.5 249C1433.99 249 1436 246.985 1436 244.5C1436 242.015 1433.99 240 1431.5 240C1429.01 240 1427 242.015 1427 244.5C1427 246.985 1429.01 249 1431.5 249ZM1436 324.5C1436 326.985 1433.99 329 1431.5 329C1429.01 329 1427 326.985 1427 324.5C1427 322.015 1429.01 320 1431.5 320C1433.99 320 1436 322.015 1436 324.5ZM1431.5 409C1433.99 409 1436 406.985 1436 404.5C1436 402.015 1433.99 400 1431.5 400C1429.01 400 1427 402.015 1427 404.5C1427 406.985 1429.01 409 1431.5 409ZM1436 484.5C1436 486.985 1433.99 489 1431.5 489C1429.01 489 1427 486.985 1427 484.5C1427 482.015 1429.01 480 1431.5 480C1433.99 480 1436 482.015 1436 484.5ZM1431.5 569C1433.99 569 1436 566.985 1436 564.5C1436 562.015 1433.99 560 1431.5 560C1429.01 560 1427 562.015 1427 564.5C1427 566.985 1429.01 569 1431.5 569ZM1436 644.5C1436 646.985 1433.99 649 1431.5 649C1429.01 649 1427 646.985 1427 644.5C1427 642.015 1429.01 640 1431.5 640C1433.99 640 1436 642.015 1436 644.5ZM1431.5 729C1433.99 729 1436 726.985 1436 724.5C1436 722.015 1433.99 720 1431.5 720C1429.01 720 1427 722.015 1427 724.5C1427 726.985 1429.01 729 1431.5 729ZM1436 804.5C1436 806.985 1433.99 809 1431.5 809C1429.01 809 1427 806.985 1427 804.5C1427 802.015 1429.01 800 1431.5 800C1433.99 800 1436 802.015 1436 804.5ZM1431.5 889C1433.99 889 1436 886.985 1436 884.5C1436 882.015 1433.99 880 1431.5 880C1429.01 880 1427 882.015 1427 884.5C1427 886.985 1429.01 889 1431.5 889ZM1436 964.5C1436 966.985 1433.99 969 1431.5 969C1429.01 969 1427 966.985 1427 964.5C1427 962.015 1429.01 960 1431.5 960C1433.99 960 1436 962.015 1436 964.5ZM1431.5 1049C1433.99 1049 1436 1046.99 1436 1044.5C1436 1042.01 1433.99 1040 1431.5 1040C1429.01 1040 1427 1042.01 1427 1044.5C1427 1046.99 1429.01 1049 1431.5 1049ZM1554 4.5C1554 6.98528 1551.99 9 1549.5 9C1547.01 9 1545 6.98528 1545 4.5C1545 2.01472 1547.01 0 1549.5 0C1551.99 0 1554 2.01472 1554 4.5ZM1549.5 89C1551.99 89 1554 86.9853 1554 84.5C1554 82.0147 1551.99 80 1549.5 80C1547.01 80 1545 82.0147 1545 84.5C1545 86.9853 1547.01 89 1549.5 89ZM1554 164.5C1554 166.985 1551.99 169 1549.5 169C1547.01 169 1545 166.985 1545 164.5C1545 162.015 1547.01 160 1549.5 160C1551.99 160 1554 162.015 1554 164.5ZM1549.5 249C1551.99 249 1554 246.985 1554 244.5C1554 242.015 1551.99 240 1549.5 240C1547.01 240 1545 242.015 1545 244.5C1545 246.985 1547.01 249 1549.5 249ZM1554 324.5C1554 326.985 1551.99 329 1549.5 329C1547.01 329 1545 326.985 1545 324.5C1545 322.015 1547.01 320 1549.5 320C1551.99 320 1554 322.015 1554 324.5ZM1549.5 409C1551.99 409 1554 406.985 1554 404.5C1554 402.015 1551.99 400 1549.5 400C1547.01 400 1545 402.015 1545 404.5C1545 406.985 1547.01 409 1549.5 409ZM1554 484.5C1554 486.985 1551.99 489 1549.5 489C1547.01 489 1545 486.985 1545 484.5C1545 482.015 1547.01 480 1549.5 480C1551.99 480 1554 482.015 1554 484.5ZM1549.5 569C1551.99 569 1554 566.985 1554 564.5C1554 562.015 1551.99 560 1549.5 560C1547.01 560 1545 562.015 1545 564.5C1545 566.985 1547.01 569 1549.5 569ZM1554 644.5C1554 646.985 1551.99 649 1549.5 649C1547.01 649 1545 646.985 1545 644.5C1545 642.015 1547.01 640 1549.5 640C1551.99 640 1554 642.015 1554 644.5ZM1549.5 729C1551.99 729 1554 726.985 1554 724.5C1554 722.015 1551.99 720 1549.5 720C1547.01 720 1545 722.015 1545 724.5C1545 726.985 1547.01 729 1549.5 729ZM1554 804.5C1554 806.985 1551.99 809 1549.5 809C1547.01 809 1545 806.985 1545 804.5C1545 802.015 1547.01 800 1549.5 800C1551.99 800 1554 802.015 1554 804.5ZM1549.5 889C1551.99 889 1554 886.985 1554 884.5C1554 882.015 1551.99 880 1549.5 880C1547.01 880 1545 882.015 1545 884.5C1545 886.985 1547.01 889 1549.5 889ZM1554 964.5C1554 966.985 1551.99 969 1549.5 969C1547.01 969 1545 966.985 1545 964.5C1545 962.015 1547.01 960 1549.5 960C1551.99 960 1554 962.015 1554 964.5ZM1549.5 1049C1551.99 1049 1554 1046.99 1554 1044.5C1554 1042.01 1551.99 1040 1549.5 1040C1547.01 1040 1545 1042.01 1545 1044.5C1545 1046.99 1547.01 1049 1549.5 1049ZM1672 4.5C1672 6.98528 1669.99 9 1667.5 9C1665.01 9 1663 6.98528 1663 4.5C1663 2.01472 1665.01 0 1667.5 0C1669.99 0 1672 2.01472 1672 4.5ZM1667.5 89C1669.99 89 1672 86.9853 1672 84.5C1672 82.0147 1669.99 80 1667.5 80C1665.01 80 1663 82.0147 1663 84.5C1663 86.9853 1665.01 89 1667.5 89ZM1672 164.5C1672 166.985 1669.99 169 1667.5 169C1665.01 169 1663 166.985 1663 164.5C1663 162.015 1665.01 160 1667.5 160C1669.99 160 1672 162.015 1672 164.5ZM1667.5 249C1669.99 249 1672 246.985 1672 244.5C1672 242.015 1669.99 240 1667.5 240C1665.01 240 1663 242.015 1663 244.5C1663 246.985 1665.01 249 1667.5 249ZM1672 324.5C1672 326.985 1669.99 329 1667.5 329C1665.01 329 1663 326.985 1663 324.5C1663 322.015 1665.01 320 1667.5 320C1669.99 320 1672 322.015 1672 324.5ZM1667.5 409C1669.99 409 1672 406.985 1672 404.5C1672 402.015 1669.99 400 1667.5 400C1665.01 400 1663 402.015 1663 404.5C1663 406.985 1665.01 409 1667.5 409ZM1672 484.5C1672 486.985 1669.99 489 1667.5 489C1665.01 489 1663 486.985 1663 484.5C1663 482.015 1665.01 480 1667.5 480C1669.99 480 1672 482.015 1672 484.5ZM1667.5 569C1669.99 569 1672 566.985 1672 564.5C1672 562.015 1669.99 560 1667.5 560C1665.01 560 1663 562.015 1663 564.5C1663 566.985 1665.01 569 1667.5 569ZM1672 644.5C1672 646.985 1669.99 649 1667.5 649C1665.01 649 1663 646.985 1663 644.5C1663 642.015 1665.01 640 1667.5 640C1669.99 640 1672 642.015 1672 644.5ZM1667.5 729C1669.99 729 1672 726.985 1672 724.5C1672 722.015 1669.99 720 1667.5 720C1665.01 720 1663 722.015 1663 724.5C1663 726.985 1665.01 729 1667.5 729ZM1672 804.5C1672 806.985 1669.99 809 1667.5 809C1665.01 809 1663 806.985 1663 804.5C1663 802.015 1665.01 800 1667.5 800C1669.99 800 1672 802.015 1672 804.5ZM1667.5 889C1669.99 889 1672 886.985 1672 884.5C1672 882.015 1669.99 880 1667.5 880C1665.01 880 1663 882.015 1663 884.5C1663 886.985 1665.01 889 1667.5 889ZM1672 964.5C1672 966.985 1669.99 969 1667.5 969C1665.01 969 1663 966.985 1663 964.5C1663 962.015 1665.01 960 1667.5 960C1669.99 960 1672 962.015 1672 964.5ZM1667.5 1049C1669.99 1049 1672 1046.99 1672 1044.5C1672 1042.01 1669.99 1040 1667.5 1040C1665.01 1040 1663 1042.01 1663 1044.5C1663 1046.99 1665.01 1049 1667.5 1049ZM1790 4.5C1790 6.98528 1787.99 9 1785.5 9C1783.01 9 1781 6.98528 1781 4.5C1781 2.01472 1783.01 0 1785.5 0C1787.99 0 1790 2.01472 1790 4.5ZM1785.5 89C1787.99 89 1790 86.9853 1790 84.5C1790 82.0147 1787.99 80 1785.5 80C1783.01 80 1781 82.0147 1781 84.5C1781 86.9853 1783.01 89 1785.5 89ZM1790 164.5C1790 166.985 1787.99 169 1785.5 169C1783.01 169 1781 166.985 1781 164.5C1781 162.015 1783.01 160 1785.5 160C1787.99 160 1790 162.015 1790 164.5ZM1785.5 249C1787.99 249 1790 246.985 1790 244.5C1790 242.015 1787.99 240 1785.5 240C1783.01 240 1781 242.015 1781 244.5C1781 246.985 1783.01 249 1785.5 249ZM1790 324.5C1790 326.985 1787.99 329 1785.5 329C1783.01 329 1781 326.985 1781 324.5C1781 322.015 1783.01 320 1785.5 320C1787.99 320 1790 322.015 1790 324.5ZM1785.5 409C1787.99 409 1790 406.985 1790 404.5C1790 402.015 1787.99 400 1785.5 400C1783.01 400 1781 402.015 1781 404.5C1781 406.985 1783.01 409 1785.5 409ZM1790 484.5C1790 486.985 1787.99 489 1785.5 489C1783.01 489 1781 486.985 1781 484.5C1781 482.015 1783.01 480 1785.5 480C1787.99 480 1790 482.015 1790 484.5ZM1785.5 569C1787.99 569 1790 566.985 1790 564.5C1790 562.015 1787.99 560 1785.5 560C1783.01 560 1781 562.015 1781 564.5C1781 566.985 1783.01 569 1785.5 569ZM1790 644.5C1790 646.985 1787.99 649 1785.5 649C1783.01 649 1781 646.985 1781 644.5C1781 642.015 1783.01 640 1785.5 640C1787.99 640 1790 642.015 1790 644.5ZM1785.5 729C1787.99 729 1790 726.985 1790 724.5C1790 722.015 1787.99 720 1785.5 720C1783.01 720 1781 722.015 1781 724.5C1781 726.985 1783.01 729 1785.5 729ZM1790 804.5C1790 806.985 1787.99 809 1785.5 809C1783.01 809 1781 806.985 1781 804.5C1781 802.015 1783.01 800 1785.5 800C1787.99 800 1790 802.015 1790 804.5ZM1785.5 889C1787.99 889 1790 886.985 1790 884.5C1790 882.015 1787.99 880 1785.5 880C1783.01 880 1781 882.015 1781 884.5C1781 886.985 1783.01 889 1785.5 889ZM1790 964.5C1790 966.985 1787.99 969 1785.5 969C1783.01 969 1781 966.985 1781 964.5C1781 962.015 1783.01 960 1785.5 960C1787.99 960 1790 962.015 1790 964.5ZM1785.5 1049C1787.99 1049 1790 1046.99 1790 1044.5C1790 1042.01 1787.99 1040 1785.5 1040C1783.01 1040 1781 1042.01 1781 1044.5C1781 1046.99 1783.01 1049 1785.5 1049ZM1908 4.5C1908 6.98528 1905.99 9 1903.5 9C1901.01 9 1899 6.98528 1899 4.5C1899 2.01472 1901.01 0 1903.5 0C1905.99 0 1908 2.01472 1908 4.5ZM1903.5 89C1905.99 89 1908 86.9853 1908 84.5C1908 82.0147 1905.99 80 1903.5 80C1901.01 80 1899 82.0147 1899 84.5C1899 86.9853 1901.01 89 1903.5 89ZM1908 164.5C1908 166.985 1905.99 169 1903.5 169C1901.01 169 1899 166.985 1899 164.5C1899 162.015 1901.01 160 1903.5 160C1905.99 160 1908 162.015 1908 164.5ZM1903.5 249C1905.99 249 1908 246.985 1908 244.5C1908 242.015 1905.99 240 1903.5 240C1901.01 240 1899 242.015 1899 244.5C1899 246.985 1901.01 249 1903.5 249ZM1908 324.5C1908 326.985 1905.99 329 1903.5 329C1901.01 329 1899 326.985 1899 324.5C1899 322.015 1901.01 320 1903.5 320C1905.99 320 1908 322.015 1908 324.5ZM1903.5 409C1905.99 409 1908 406.985 1908 404.5C1908 402.015 1905.99 400 1903.5 400C1901.01 400 1899 402.015 1899 404.5C1899 406.985 1901.01 409 1903.5 409ZM1908 484.5C1908 486.985 1905.99 489 1903.5 489C1901.01 489 1899 486.985 1899 484.5C1899 482.015 1901.01 480 1903.5 480C1905.99 480 1908 482.015 1908 484.5ZM1903.5 569C1905.99 569 1908 566.985 1908 564.5C1908 562.015 1905.99 560 1903.5 560C1901.01 560 1899 562.015 1899 564.5C1899 566.985 1901.01 569 1903.5 569ZM1908 644.5C1908 646.985 1905.99 649 1903.5 649C1901.01 649 1899 646.985 1899 644.5C1899 642.015 1901.01 640 1903.5 640C1905.99 640 1908 642.015 1908 644.5ZM1903.5 729C1905.99 729 1908 726.985 1908 724.5C1908 722.015 1905.99 720 1903.5 720C1901.01 720 1899 722.015 1899 724.5C1899 726.985 1901.01 729 1903.5 729ZM1908 804.5C1908 806.985 1905.99 809 1903.5 809C1901.01 809 1899 806.985 1899 804.5C1899 802.015 1901.01 800 1903.5 800C1905.99 800 1908 802.015 1908 804.5ZM1903.5 889C1905.99 889 1908 886.985 1908 884.5C1908 882.015 1905.99 880 1903.5 880C1901.01 880 1899 882.015 1899 884.5C1899 886.985 1901.01 889 1903.5 889ZM1908 964.5C1908 966.985 1905.99 969 1903.5 969C1901.01 969 1899 966.985 1899 964.5C1899 962.015 1901.01 960 1903.5 960C1905.99 960 1908 962.015 1908 964.5ZM1903.5 1049C1905.99 1049 1908 1046.99 1908 1044.5C1908 1042.01 1905.99 1040 1903.5 1040C1901.01 1040 1899 1042.01 1899 1044.5C1899 1046.99 1901.01 1049 1903.5 1049ZM2026 4.5C2026 6.98528 2023.99 9 2021.5 9C2019.01 9 2017 6.98528 2017 4.5C2017 2.01472 2019.01 0 2021.5 0C2023.99 0 2026 2.01472 2026 4.5ZM2021.5 89C2023.99 89 2026 86.9853 2026 84.5C2026 82.0147 2023.99 80 2021.5 80C2019.01 80 2017 82.0147 2017 84.5C2017 86.9853 2019.01 89 2021.5 89ZM2026 164.5C2026 166.985 2023.99 169 2021.5 169C2019.01 169 2017 166.985 2017 164.5C2017 162.015 2019.01 160 2021.5 160C2023.99 160 2026 162.015 2026 164.5ZM2021.5 249C2023.99 249 2026 246.985 2026 244.5C2026 242.015 2023.99 240 2021.5 240C2019.01 240 2017 242.015 2017 244.5C2017 246.985 2019.01 249 2021.5 249ZM2026 324.5C2026 326.985 2023.99 329 2021.5 329C2019.01 329 2017 326.985 2017 324.5C2017 322.015 2019.01 320 2021.5 320C2023.99 320 2026 322.015 2026 324.5ZM2021.5 409C2023.99 409 2026 406.985 2026 404.5C2026 402.015 2023.99 400 2021.5 400C2019.01 400 2017 402.015 2017 404.5C2017 406.985 2019.01 409 2021.5 409ZM2026 484.5C2026 486.985 2023.99 489 2021.5 489C2019.01 489 2017 486.985 2017 484.5C2017 482.015 2019.01 480 2021.5 480C2023.99 480 2026 482.015 2026 484.5ZM2021.5 569C2023.99 569 2026 566.985 2026 564.5C2026 562.015 2023.99 560 2021.5 560C2019.01 560 2017 562.015 2017 564.5C2017 566.985 2019.01 569 2021.5 569ZM2026 644.5C2026 646.985 2023.99 649 2021.5 649C2019.01 649 2017 646.985 2017 644.5C2017 642.015 2019.01 640 2021.5 640C2023.99 640 2026 642.015 2026 644.5ZM2021.5 729C2023.99 729 2026 726.985 2026 724.5C2026 722.015 2023.99 720 2021.5 720C2019.01 720 2017 722.015 2017 724.5C2017 726.985 2019.01 729 2021.5 729ZM2026 804.5C2026 806.985 2023.99 809 2021.5 809C2019.01 809 2017 806.985 2017 804.5C2017 802.015 2019.01 800 2021.5 800C2023.99 800 2026 802.015 2026 804.5ZM2021.5 889C2023.99 889 2026 886.985 2026 884.5C2026 882.015 2023.99 880 2021.5 880C2019.01 880 2017 882.015 2017 884.5C2017 886.985 2019.01 889 2021.5 889ZM2026 964.5C2026 966.985 2023.99 969 2021.5 969C2019.01 969 2017 966.985 2017 964.5C2017 962.015 2019.01 960 2021.5 960C2023.99 960 2026 962.015 2026 964.5ZM2021.5 1049C2023.99 1049 2026 1046.99 2026 1044.5C2026 1042.01 2023.99 1040 2021.5 1040C2019.01 1040 2017 1042.01 2017 1044.5C2017 1046.99 2019.01 1049 2021.5 1049Z" fill="url(#paint0_linear_132_416)"/>
  <defs>
    <linearGradient id="paint0_linear_132_416" x1="959.5" y1="0" x2="959.5" y2="1049" gradientUnits="userSpaceOnUse">
      <stop offset="0.465" stop-color="#557303"/>
      <stop offset="1" stop-color="#3A4E06" stop-opacity="0.6"/>
    </linearGradient>
  </defs>
</svg>