<svg xmlns="http://www.w3.org/2000/svg" width="50" height="50" viewBox="0 0 50 50" fill="none">
  <path d="M37.4994 37.9172C42.1784 37.4527 45.8327 33.505 45.8327 28.7037C45.8327 23.1352 40.7186 18.7552 35.2488 19.5385C35.24 19.5398 35.2312 19.5352 35.2271 19.5272C33.1351 15.3599 28.8225 12.5 23.8419 12.5C17.2071 12.5 11.7577 17.5752 11.1641 24.0551C11.1631 24.0659 11.154 24.0742 11.1431 24.0742C7.3474 24.0709 4.16602 27.2095 4.16602 31.0185C4.16602 34.8538 7.27515 37.963 11.1105 37.963H12.4993" stroke="#2B3F6C" stroke-width="3.125" stroke-linecap="round"/>
  <g opacity="0.3">
    <path d="M19.791 38.5417L24.2627 43.0134C24.6695 43.4202 25.3291 43.4202 25.7359 43.0134L30.2076 38.5417" stroke="#2B3F6C" stroke-width="3.125" stroke-linecap="round"/>
    <path d="M25 41.6665L25 29.1665" stroke="#2B3F6C" stroke-width="3.125" stroke-linecap="round"/>
  </g>
</svg>