<svg xmlns="http://www.w3.org/2000/svg" width="50" height="50" viewBox="0 0 50 50" fill="none">
  <path d="M12.3543 37.7334L6.46177 43.6259M38.1342 26.6849C33.9776 31.1665 27.3419 34.7865 23.7326 36.5559C22.2101 37.3023 20.4089 36.9493 19.21 35.7503L14.3374 30.8777C13.1384 29.6788 12.7854 27.8775 13.5317 26.3551C15.3012 22.7458 18.9212 16.1101 23.4028 11.9535C28.3984 7.32026 36.3099 5.59689 41.1873 4.95899C43.532 4.65234 45.4354 6.55574 45.1287 8.90036C44.4908 13.7778 42.7674 21.6893 38.1342 26.6849Z" stroke="#2B3F6C" stroke-width="3.125" stroke-linecap="round"/>
  <path opacity="0.3" d="M13.4586 38.8379C14.0688 38.2277 14.0688 37.2384 13.4586 36.6282C12.8484 36.018 11.8591 36.018 11.2489 36.6282L13.4586 38.8379ZM5.35636 42.5208C4.74616 43.131 4.74616 44.1203 5.35636 44.7305C5.96655 45.3407 6.95587 45.3407 7.56607 44.7305L5.35636 42.5208ZM22.0765 43.9203L23.6233 43.6993L22.0765 43.9203ZM32.8304 36.7019L34.3772 36.4809L34.3772 36.4809L32.8304 36.7019ZM6.16654 28.0104L6.38751 26.4636L6.38751 26.4636L6.16654 28.0104ZM13.3849 17.2565L13.1639 18.8033L13.1639 18.8033L13.3849 17.2565ZM11.2489 36.6282L5.35636 42.5208L7.56607 44.7305L13.4586 38.8379L11.2489 36.6282ZM31.1363 37.3648L24.5072 43.9939L26.7169 46.2036L33.346 39.5745L31.1363 37.3648ZM23.6233 43.6993L22.7394 37.5121L19.6458 37.954L20.5297 44.1412L23.6233 43.6993ZM30.6943 32.7981L31.2836 36.9228L34.3772 36.4809L33.7879 32.3561L30.6943 32.7981ZM24.5072 43.9939C24.2037 44.2974 23.684 44.1242 23.6233 43.6993L20.5297 44.1412C20.9546 47.1154 24.5925 48.328 26.7169 46.2036L24.5072 43.9939ZM33.346 39.5745C34.1574 38.7631 34.5395 37.6169 34.3772 36.4809L31.2836 36.9228C31.3068 37.0851 31.2522 37.2489 31.1363 37.3648L33.346 39.5745ZM10.5123 16.7409L3.88317 23.37L6.09288 25.5797L12.722 18.9506L10.5123 16.7409ZM5.94557 29.5572L12.1328 30.4411L12.5747 27.3475L6.38751 26.4636L5.94557 29.5572ZM17.7307 16.2989L13.6059 15.7097L13.1639 18.8033L17.2887 19.3925L17.7307 16.2989ZM3.88317 23.37C1.75879 25.4944 2.97143 29.1323 5.94557 29.5572L6.38751 26.4636C5.96263 26.4029 5.7894 25.8832 6.09288 25.5797L3.88317 23.37ZM12.722 18.9506C12.8379 18.8347 13.0017 18.7801 13.1639 18.8033L13.6059 15.7097C12.4699 15.5474 11.3237 15.9294 10.5123 16.7409L12.722 18.9506Z" fill="#2B3F6C"/>
  <path opacity="0.3" d="M7.93555 33.314L4.98927 36.2602M16.7744 42.1528L13.8281 45.0991" stroke="#2B3F6C" stroke-width="3.125" stroke-linecap="round"/>
  <path opacity="0.3" d="M16.0371 22.2651L27.8222 34.0502" stroke="#2B3F6C" stroke-width="3.125" stroke-linecap="round"/>
  <path opacity="0.3" d="M28.5586 21.5288C26.9314 19.9016 26.9314 17.2634 28.5586 15.6362C30.1858 14.009 32.824 14.009 34.4512 15.6362C36.0783 17.2634 36.0783 19.9016 34.4512 21.5288C32.824 23.156 30.1858 23.156 28.5586 21.5288Z" stroke="#2B3F6C" stroke-width="3.125"/>
</svg>