<svg width="17" height="15" viewBox="0 0 17 15" fill="none" xmlns="http://www.w3.org/2000/svg">
<g id="Component 4">
<path id="Vector" d="M8.27151 4.33594C8.34959 4.29688 8.42767 4.27734 8.50574 4.27734C8.58382 4.27734 8.6619 4.29688 8.73998 4.33594L14.1274 8.78906V13.5938C14.1274 13.7305 14.0835 13.8428 13.9957 13.9307C13.9078 14.0186 13.7956 14.0625 13.6589 14.0625H10.3796C10.243 14.0625 10.1308 14.0137 10.0429 13.916C9.95508 13.8184 9.91116 13.7109 9.91116 13.5938V10.7812C9.91116 10.7031 9.89164 10.625 9.8526 10.5469C9.81356 10.4688 9.755 10.4102 9.67693 10.3711C9.59885 10.332 9.52077 10.3125 9.44269 10.3125H7.5688C7.43216 10.3125 7.31992 10.3564 7.23209 10.4443C7.14425 10.5322 7.10033 10.6445 7.10033 10.7812V13.5938C7.10033 13.7109 7.05641 13.8184 6.96857 13.916C6.88073 14.0137 6.76849 14.0625 6.63186 14.0625H3.35255C3.21591 14.0625 3.10367 14.0186 3.01583 13.9307C2.928 13.8428 2.88408 13.7305 2.88408 13.5938V8.78906L8.27151 4.33594ZM16.8211 7.35352C16.8992 7.43164 16.9382 7.5293 16.9382 7.64648C16.9382 7.72461 16.909 7.79297 16.8504 7.85156L16.1184 8.75977C16.0403 8.85742 15.9525 8.90625 15.8549 8.90625C15.7573 8.90625 15.6792 8.87695 15.6207 8.81836L8.73998 3.13477C8.6619 3.0957 8.58382 3.07617 8.50574 3.07617C8.42767 3.07617 8.34959 3.0957 8.27151 3.13477L1.39082 8.81836C1.33226 8.87695 1.26394 8.90625 1.18586 8.90625C1.06875 8.90625 0.971148 8.85742 0.893069 8.75977L0.161081 7.85156C0.102522 7.79297 0.0732422 7.72461 0.0732422 7.64648C0.0732422 7.5293 0.112282 7.43164 0.19036 7.35352L7.59808 1.25977C7.87136 1.04492 8.17391 0.9375 8.50574 0.9375C8.83758 0.9375 9.13037 1.04492 9.38413 1.25977L16.8211 7.35352Z" fill="#fff"/>
</g>
</svg>