<svg width="34" height="41" viewBox="0 0 34 41" fill="none" xmlns="http://www.w3.org/2000/svg">
<path id="Vector" d="M33.75 29.5718C33.1201 31.6001 32.1267 33.6283 30.7699 35.6566C28.6863 38.8368 26.6107 40.427 24.5433 40.427C23.7518 40.427 22.6211 40.1674 21.1513 39.6481C19.7622 39.1289 18.5427 38.8693 17.4928 38.8693C16.5075 38.8693 15.3607 39.137 14.0524 39.6725C12.7441 40.2242 11.678 40.5 10.8543 40.5C8.39914 40.5 5.96823 38.3987 3.56156 34.1962C1.18719 29.9612 0 25.8804 0 21.9537C0 18.2542 0.912599 15.22 2.7378 12.851C4.56299 10.5144 6.8566 9.34615 9.61863 9.34615C10.7816 9.34615 12.2111 9.58954 13.907 10.0763C15.5869 10.5631 16.7014 10.8065 17.2505 10.8065C17.9774 10.8065 19.1323 10.5306 20.7152 9.97897C22.3627 9.42728 23.7599 9.15144 24.9067 9.15144C26.8288 9.15144 28.549 9.67879 30.0673 10.7335C30.9072 11.3176 31.7471 12.1289 32.587 13.1674C31.311 14.2545 30.3903 15.2118 29.825 16.0394C28.7751 17.5646 28.2502 19.244 28.2502 21.0775C28.2502 23.0895 28.8074 24.8987 29.9219 26.5051C31.0364 28.1115 32.3125 29.1337 33.75 29.5718ZM24.6402 1.02224C24.6402 2.01202 24.406 3.11538 23.9375 4.33233C23.453 5.54928 22.7019 6.66887 21.6843 7.69111C20.8121 8.56731 19.9399 9.15144 19.0677 9.44351C18.47 9.62199 17.6301 9.75992 16.5479 9.85727C16.5964 7.4396 17.2263 5.35457 18.4377 3.60216C19.633 1.86599 21.652 0.665264 24.4948 0C24.5109 0.0486779 24.5311 0.137921 24.5554 0.267728C24.5796 0.397536 24.5998 0.486779 24.6159 0.535457C24.6159 0.600361 24.62 0.68149 24.6281 0.778846C24.6361 0.876202 24.6402 0.957332 24.6402 1.02224Z" fill="#B999FF"/>
</svg>
