<svg xmlns="http://www.w3.org/2000/svg" width="24" height="25" viewBox="0 0 24 25" fill="none">
  <path d="M12.2269 24.5H12C5.37273 24.5 0 19.1273 0 12.5C0 5.87273 5.37273 0.5 12 0.5C12.1393 0.500192 12.2786 0.502738 12.4178 0.507636C18.8509 0.726909 23.9989 6.01236 23.9989 12.5C23.9989 18.9876 18.8498 24.2731 12.4167 24.4935C12.3536 24.498 12.2903 24.5002 12.2269 24.5ZM11.5822 3.14327C11.2375 3.55891 10.8796 4.22655 10.5567 5.14618C9.99709 6.74545 9.60873 8.93164 9.52036 11.4091H14.9345C14.8462 8.93273 14.4578 6.74545 13.8982 5.14727C13.5753 4.22655 13.2175 3.55891 12.8727 3.14327C12.5749 2.78327 12.3687 2.70145 12.2695 2.68509L12.1975 2.684C12.1036 2.69491 11.892 2.768 11.5822 3.14327ZM7.33636 11.4091C7.42691 8.732 7.84473 6.29273 8.49818 4.42618C8.65745 3.97018 8.83418 3.53818 9.03055 3.13891C7.22079 3.7141 5.61643 4.80127 4.41146 6.26895C3.20649 7.73663 2.45252 9.52198 2.24073 11.4091H7.33636ZM2.24073 13.5909C2.45252 15.4781 3.20649 17.2633 4.41146 18.7311C5.61643 20.1988 7.22079 21.2859 9.03055 21.8611C8.83418 21.4618 8.65745 21.0298 8.49818 20.5738C7.84364 18.7073 7.42691 16.268 7.33636 13.5909H2.24073ZM9.51927 13.5909C9.60873 16.0673 9.99709 18.2545 10.5567 19.8527C10.8796 20.7735 11.2375 21.4411 11.5822 21.8567C11.892 22.2309 12.1036 22.304 12.1975 22.316L12.2695 22.3149C12.3676 22.2985 12.5749 22.2167 12.8727 21.8567C13.2175 21.4411 13.5753 20.7735 13.8982 19.8538C14.4578 18.2545 14.8462 16.0684 14.9345 13.5909H9.51927ZM17.1185 13.5909C17.028 16.268 16.6102 18.7073 15.9567 20.5738C15.8225 20.9578 15.6764 21.3244 15.516 21.6691C17.1963 21.0233 18.6671 19.9284 19.7676 18.5038C20.8682 17.0793 21.5564 15.3799 21.7571 13.5909H17.1185ZM21.7571 11.4091C21.5565 9.62026 20.8684 7.92089 19.7681 6.49636C18.6677 5.07183 17.1972 3.97686 15.5171 3.33091C15.6764 3.67564 15.8225 4.04218 15.9567 4.42618C16.6113 6.29273 17.028 8.732 17.1185 11.4091H21.7571Z" fill="white"/>
</svg>