<svg xmlns="http://www.w3.org/2000/svg" width="50" height="50" viewBox="0 0 50 50" fill="none">
  <path d="M18.3957 17.979C19.1149 16.7814 19.3571 15.357 19.0742 13.9889C18.7914 12.6209 18.0041 11.4094 16.869 10.5952C15.7338 9.78101 14.3338 9.42374 12.9473 9.59442C11.5608 9.76511 10.2893 10.4512 9.3855 11.5164C8.48169 12.5816 8.01178 13.9479 8.06915 15.3437C8.12652 16.7395 8.70699 18.0626 9.69517 19.05C10.6834 20.0375 12.0069 20.6169 13.4027 20.6732C14.7986 20.7295 16.1645 20.2586 17.229 19.354L17.9998 20.1352C18.1609 20.2899 18.3755 20.3763 18.5988 20.3763C18.8221 20.3763 19.0367 20.2899 19.1977 20.1352L19.2707 20.0519C19.3497 19.9735 19.4125 19.8801 19.4553 19.7773C19.4981 19.6745 19.5201 19.5643 19.5201 19.4529C19.5201 19.3416 19.4981 19.2313 19.4553 19.1285C19.4125 19.0257 19.3497 18.9324 19.2707 18.854L18.3957 17.979ZM17.0623 16.6665L16.1561 15.7602C16.0776 15.6812 15.9843 15.6184 15.8815 15.5756C15.7787 15.5328 15.6685 15.5107 15.5571 15.5107C15.4458 15.5107 15.3355 15.5328 15.2327 15.5756C15.1299 15.6184 15.0366 15.6812 14.9582 15.7602L14.8852 15.8436C14.8065 15.9211 14.744 16.0135 14.7013 16.1155C14.6586 16.2174 14.6366 16.3268 14.6366 16.4373C14.6366 16.5478 14.6586 16.6572 14.7013 16.7592C14.744 16.8611 14.8065 16.9535 14.8852 17.0311L15.9269 18.0727C15.2732 18.5956 14.4619 18.882 13.6248 18.8852C12.8165 18.8821 12.0307 18.6179 11.3848 18.1319C10.7388 17.6459 10.2671 16.9642 10.0401 16.1884C9.81309 15.4126 9.84284 14.5841 10.1249 13.8266C10.407 13.069 10.9264 12.4229 11.6056 11.9846C12.2847 11.5462 13.0874 11.339 13.8939 11.3939C14.7004 11.4488 15.4676 11.7629 16.0811 12.2892C16.6946 12.8156 17.1215 13.5262 17.2984 14.315C17.4752 15.1037 17.3924 15.9286 17.0623 16.6665Z" fill="#8183D3"/>
  <path d="M43.5731 15.7708H36.2814V8.58333C36.2814 7.58325 35.8841 6.62412 35.1769 5.91695C34.4698 5.20978 33.5106 4.8125 32.5106 4.8125H6.65639C6.19725 4.81522 5.74315 4.90853 5.32014 5.08707C4.89712 5.26562 4.5135 5.52589 4.19126 5.85297C3.86902 6.18005 3.61449 6.56751 3.44227 6.99314C3.27005 7.41877 3.18352 7.8742 3.18764 8.33333V26.3229C3.19039 27.242 3.55673 28.1227 4.20665 28.7727C4.85657 29.4226 5.73727 29.7889 6.65639 29.7917H10.6043V34.25C10.607 34.5945 10.7451 34.9241 10.9887 35.1677C11.2323 35.4113 11.5619 35.5494 11.9064 35.5521H12.4585L18.1147 29.8646H20.8335V36.4583C20.8193 37.3202 21.0985 38.1613 21.6251 38.8438C22.1728 39.3243 22.8315 39.6608 23.5418 39.8229H34.771L39.1147 45.2917H39.5418C39.8451 45.2626 40.1247 45.115 40.3197 44.8809C40.5148 44.6468 40.6096 44.3452 40.5835 44.0417V39.7708H43.6147C45.0835 39.7708 46.271 38.2812 46.271 36.4375V19.1042C46.2293 17.2604 45.0418 15.7812 43.5731 15.7708ZM20.8335 19.3958V27.3542H17.0626L13.1043 31.3438V27.3125H6.64597C6.51925 27.3139 6.39351 27.2901 6.27604 27.2426C6.15856 27.195 6.05168 27.1246 5.96159 27.0355C5.87149 26.9464 5.79997 26.8403 5.75116 26.7233C5.70235 26.6064 5.67722 26.4809 5.67722 26.3542V8.33333C5.66872 8.20046 5.6874 8.06725 5.73214 7.94184C5.77687 7.81644 5.8467 7.70147 5.93738 7.60397C6.02805 7.50647 6.13765 7.42849 6.25949 7.37479C6.38133 7.3211 6.51283 7.29281 6.64597 7.29167H19.5574H32.4689C32.8041 7.29166 33.1258 7.42412 33.3638 7.66019C33.6019 7.89627 33.737 8.21685 33.7397 8.55208V15.7604H23.7397C22.146 15.7708 20.8335 17.3958 20.8335 19.3958ZM39.0626 33.6042C38.9622 33.6588 38.852 33.693 38.7383 33.7048C38.6246 33.7165 38.5097 33.7056 38.4002 33.6727C38.2907 33.6398 38.1889 33.5855 38.1005 33.5129C38.0122 33.4403 37.9391 33.351 37.8856 33.25L36.6356 30.9167H31.0418L29.8231 33.1875C29.7714 33.289 29.7 33.3792 29.613 33.4527C29.526 33.5262 29.4252 33.5815 29.3165 33.6155C29.2078 33.6495 29.0934 33.6614 28.98 33.6505C28.8667 33.6396 28.7566 33.6061 28.6564 33.5521C28.5545 33.4994 28.4642 33.427 28.3905 33.3391C28.3169 33.2511 28.2615 33.1494 28.2276 33.0399C28.1937 32.9303 28.1819 32.8151 28.1929 32.701C28.2039 32.5868 28.2375 32.476 28.2918 32.375L33.0418 23.4375C33.1503 23.2338 33.3348 23.0812 33.5553 23.0129C33.7758 22.9446 34.0143 22.9662 34.2189 23.0729C34.2844 23.113 34.344 23.1621 34.396 23.2188V23.2708L34.4585 23.3333C34.4585 23.3854 34.5522 23.4375 34.5939 23.5L39.3751 32.4271C39.4861 32.6254 39.5156 32.8592 39.4573 33.0789C39.399 33.2986 39.2574 33.487 39.0626 33.6042Z" fill="#2B3F6C"/>
  <path d="M31.958 29.1665H35.708L33.833 25.6665L31.958 29.1665Z" fill="#2B3F6C"/>
</svg>