<svg width="100" height="100" viewBox="0 0 100 100" fill="none" xmlns="http://www.w3.org/2000/svg">
<path d="M11 26.9286C11 17.5792 18.5792 10 27.9286 10H73.0714C82.4208 10 90 17.5792 90 26.9286V72.0714C90 81.4208 82.4208 89 73.0714 89H27.9286C18.5792 89 11 81.4208 11 72.0714V26.9286Z" fill="#FA9000"/>
<path d="M65.3143 32.6914H61.0811V44.7816H65.3143V32.6914Z" fill="#FA9000"/>
<path d="M49.4443 32.6396H53.6779V44.7314H49.4443V32.6396Z" fill="#FA9000"/>
<path d="M55.0981 73.9272C55.0237 73.9644 54.9493 74.1504 55.0237 74.3736L55.4702 75.5641C55.7306 76.2709 56.177 77.1266 56.7722 77.5358C57.4047 77.9822 57.7395 77.8334 57.8883 77.7962C57.9999 77.7218 58.3719 77.4986 58.2603 76.8662C58.1859 76.4569 58.0743 76.0849 57.8883 75.7129C57.7395 75.4897 57.5907 75.3037 57.4791 75.3409C57.4046 75.3409 57.4791 75.5641 57.4791 75.7129C57.4791 75.9733 57.3674 76.1593 57.1814 76.2709C56.9954 76.3453 56.549 76.5313 56.177 75.8989C55.8794 75.3781 55.619 74.7085 55.5074 74.448C55.433 74.262 55.2841 74.0016 55.1725 74.0016H55.0981V73.9272ZM44.9792 75.7873L47.1369 77.573L49.2203 75.0433L47.0625 73.2576L44.9792 75.7873ZM45.4257 71.3603L47.5834 73.146L49.7039 70.6162L47.5462 68.8306L45.4257 71.3603ZM59.1903 65.1476L61.7201 66.338L63.1337 63.3619L60.604 62.1714L59.1903 65.1476ZM46.0953 63.0271C47.0997 65.4452 48.6622 67.5657 50.6339 69.3142C50.8199 68.0121 51.0431 67.0821 51.2291 66.4124C49.3319 65.0732 47.9926 63.5851 47.0998 62.097L46.0953 63.0271ZM50.8943 59.8649L53.4241 61.0554L54.8377 58.0793L52.308 56.8888L50.8943 59.8649ZM38.6921 47.9976C38.6921 47.9976 37.0925 49.1136 36.46 50.6017C36.1252 51.3457 36.0508 52.2014 36.3112 52.9826C36.5344 53.4662 37.0553 53.9126 37.7249 53.3546C38.2085 52.9826 38.3945 52.4246 38.5061 51.9782C38.5805 51.7177 38.5805 51.5317 38.5805 51.3829C38.5805 51.2341 38.5061 51.0853 38.3945 51.1225C37.9481 51.2713 38.2085 51.9037 37.8737 52.2014C37.6505 52.3502 36.9809 52.2758 36.8693 51.6433C36.7204 51.0109 37.2413 50.1925 37.6877 49.6344C38.1341 49.0764 38.9154 48.3696 38.9154 48.3696C38.9154 48.3696 39.4734 47.9232 39.2874 47.7H39.213C39.1014 47.7 38.6921 47.9976 38.6921 47.9976ZM54.2425 46.3607L52.308 48.4812L50.6339 50.3041C50.2619 50.7133 50.0759 51.1225 50.1131 51.3457L50.3363 52.4618C50.4107 52.2758 50.6339 51.8666 50.8943 51.6061C51.0803 51.4201 51.9732 50.4157 52.866 49.4484L54.5401 47.6255C54.9121 47.2163 55.0981 46.8071 55.0609 46.5839L54.8377 45.505C54.7261 45.691 54.5029 46.0631 54.2425 46.3607ZM33.1863 62.3947C33.4839 61.4274 34.0419 60.5346 35.0092 59.9765C36.6088 59.2325 37.2413 61.1298 37.2413 61.1298C37.1297 62.4319 36.1624 63.1015 35.0464 63.1015C34.4139 63.1015 33.7443 62.8783 33.1863 62.3947ZM45.0536 31.4056C43.64 31.4428 42.7471 32.968 43.3424 34.2329C43.9748 35.4978 45.6861 35.721 46.6161 34.6421L46.6533 34.5677C46.8765 36.1302 46.1325 37.395 44.384 38.8459C42.5983 40.3712 38.4317 42.3057 35.4556 44.6494C30.9914 47.886 29.0197 53.5778 30.4705 58.8977C30.7682 60.0509 31.1402 61.1298 31.6238 62.2086C31.475 64.8872 31.8842 67.5285 32.8143 70.0582C34.2651 73.332 36.9065 76.0105 40.6638 75.2293C44.4584 74.3364 44.9048 68.1609 45.3141 63.6595C45.4257 62.9155 45.5373 62.8039 45.7605 62.5807C46.3557 62.0598 47.8438 60.6834 48.5506 60.0509C48.997 59.6417 49.3691 59.2697 49.6295 58.7861C49.9271 58.1909 49.7783 57.4096 49.7783 57.4096L49.3691 54.4335C49.2575 54.8427 48.7366 55.4379 48.0298 56.182C47.2858 56.926 45.2397 58.6745 45.0536 58.8605C44.8676 59.0465 44.2352 59.5301 43.9376 61.7994C43.1936 67.9749 42.0031 70.8767 39.8082 71.8811C39.213 72.1415 38.5805 72.2903 37.8737 72.2903C33.8931 72.2531 32.8143 67.3797 32.8515 64.7012C32.8515 64.5524 32.8515 64.3664 32.8887 64.2547C33.8187 65.5196 35.1952 66.7473 36.8693 66.4869C39.585 66.0776 38.7293 61.5018 38.3201 60.4602C37.9481 59.4185 36.9065 56.2192 34.6371 56.368C33.0375 56.4796 32.2934 58.3769 31.9586 59.9393C31.6238 58.6745 31.5122 57.3724 31.5866 56.0704C31.8098 53.3174 32.7771 49.8576 36.7576 46.4723C39.585 44.0542 42.8587 42.3057 44.6444 40.9292C45.6117 40.1852 46.3929 39.1807 46.8765 38.0647C46.7649 39.1063 46.5045 40.148 46.0953 41.1152C44.4212 45.505 39.399 52.7222 39.3246 62.9155C39.3246 66.0404 39.6222 68.7562 40.1058 71.0627C40.3662 70.8767 40.6266 70.6163 40.887 70.3558C40.515 68.6818 40.329 66.8589 40.329 64.8872C40.329 54.6939 45.3141 47.5139 46.9509 43.1241C47.8066 40.8176 47.8066 39.1435 47.8066 37.5066C47.8066 35.4605 47.3602 33.34 46.9509 32.5216C46.4673 31.7404 45.9465 31.3684 45.0909 31.3684H45.0536V31.4056ZM49.9643 17.4549C48.9598 18.1617 48.1042 19.7614 48.1042 22.1795C48.1042 23.6676 48.5506 25.4905 49.7039 27.4994C48.1414 29.6199 47.881 31.5544 48.5134 33.4144C48.997 34.8281 49.2575 35.2001 49.5179 36.0558C50.0759 38.2135 49.4435 40.7804 47.7694 44.7982C46.3929 48.0348 44.57 51.4573 44.57 55.6239C44.57 56.554 44.6444 57.5212 44.7932 58.4141C44.942 58.2653 45.2769 57.9304 45.6861 57.5584C45.5001 54.3219 46.7649 51.0481 48.3646 48.1092C50.6711 43.831 50.9687 39.4411 50.5223 37.0602C52.1592 38.8087 54.8749 41.4128 56.4746 44.0542C56.9954 44.947 57.3302 45.8027 57.4046 46.6583C57.5163 48.5556 56.8094 50.3785 55.5074 51.7549C54.4285 52.9826 54.8005 54.0987 54.8377 54.3219C54.9493 54.6567 55.3958 56.0331 55.6934 56.926C56.921 54.5451 60.232 53.243 61.7573 51.2713C62.0921 53.6894 60.2692 55.9959 58.9299 57.5584C58.6323 57.8932 58.2603 58.2653 57.8511 58.6373C55.2841 61.0926 53.6101 62.8039 52.7172 64.3663C52.494 64.7012 52.122 65.4824 51.936 66.0776C51.6756 66.8217 51.3408 68.1237 51.0431 70.3558C50.8571 71.5463 50.6711 72.7367 50.5223 73.9644C50.3363 75.5641 49.8527 78.0938 47.881 78.8378C47.8066 78.875 47.6578 78.9123 47.5834 78.9123C45.6861 79.3215 43.7888 77.759 42.4123 74.9317C42.1147 75.1549 41.7799 75.3409 41.4451 75.4897C43.3424 79.9539 46.1697 82 48.6622 82C50.5595 82 52.0476 81.07 52.5312 78.2798C52.7544 76.8661 52.9404 75.3409 53.1264 73.8156C53.2008 73.1088 53.5729 69.0166 54.2053 67.5285C55.0237 65.8544 56.8094 64.2547 59.4507 61.539C61.0876 59.8649 61.9805 58.4141 62.4269 57.298C63.9894 54.4707 62.0549 47.7744 61.6829 46.5467C61.6829 46.5095 61.6829 46.4723 61.6457 46.4723C61.6085 46.4723 61.6085 46.4723 61.5713 46.5467V46.5839C60.9016 47.7 59.674 48.7044 58.5207 49.5228C59.1531 47.7744 59.0043 46.4351 58.7439 45.319L58.6695 45.0958C57.5163 40.6316 52.9776 36.6882 50.8943 34.3817C48.2158 31.4056 49.1458 29.5083 50.1131 28.2806L50.7083 29.1362C54.3541 34.0841 61.1992 41.8965 64.8078 49.3368C65.6634 51.0853 66.3331 52.9454 66.7795 54.8427C68.1932 62.5807 62.7989 70.393 54.7261 68.1981L54.5773 68.1609C54.3541 68.8306 54.1681 69.9466 53.9449 71.4347C55.1725 71.9555 56.4746 72.2903 57.7767 72.3275H58.0743C64.6962 72.4019 69.9045 67.4541 68.9372 57.0376C68.9372 57.0376 68.528 52.685 66.2959 48.1092C62.6873 40.1108 56.0654 32.1496 51.9732 27.0157C50.8943 25.7509 50.0759 24.3 49.5179 22.7747C48.7738 20.3938 49.2575 18.5709 50.2247 17.7525C50.4479 17.5665 50.7083 17.3805 50.9315 17.2689C51.0803 17.1945 51.0059 17.0457 50.9315 17.0085H50.8199C50.8199 16.9713 50.5223 17.0457 49.9643 17.4549ZM42.5239 34.7909C41.4451 34.8281 40.5894 35.721 40.6266 36.837C40.6638 37.9159 41.5939 38.7715 42.6727 38.7343C43.7516 38.6971 44.6072 37.7671 44.57 36.6882C44.5328 35.6466 43.6772 34.7909 42.5983 34.7909H42.5239Z" fill="white"/>
</svg>
