<svg width="100" height="57" viewBox="0 0 100 57" fill="none" xmlns="http://www.w3.org/2000/svg">
<path d="M29.2677 10.7076C29.2337 9.64364 30.2037 8.79364 31.1937 8.60764C32.3137 8.32764 33.7837 8.49564 34.4557 9.54564C35.2237 11.2176 34.0617 13.3256 35.3257 14.8336C34.9037 15.2476 34.4537 15.6336 33.9797 15.9856C33.6697 15.6956 33.3857 15.3816 33.1237 15.0496C32.3677 15.8836 31.0937 16.2196 30.0537 15.7496C28.6957 15.0816 28.7237 12.9436 29.8857 12.0936C30.7437 11.4456 31.8697 11.4516 32.8877 11.3116C32.8737 10.7916 32.8717 10.0336 32.2057 9.93364C31.5097 9.76764 31.0037 10.3336 30.8277 10.9396C30.3077 10.8796 29.7637 10.8956 29.2677 10.7076ZM31.0417 13.2456C30.7737 13.8596 31.1897 14.8296 31.9737 14.5696C32.8717 14.2736 32.8837 13.1636 32.8757 12.3816C32.2117 12.4336 31.2857 12.4816 31.0417 13.2456Z" fill="black"/>
<path d="M37.9255 9.66418C38.3115 8.82418 39.2735 8.34018 40.1735 8.63818C40.7195 8.76818 41.0315 9.26818 41.3115 9.71018C41.7855 8.53418 43.4395 8.19218 44.3655 9.02818C44.9975 9.55418 44.9655 10.4502 44.9535 11.1962C44.8895 12.7102 44.9855 14.2282 44.9055 15.7422C44.3815 16.0062 43.7215 15.8082 43.1475 15.8382C43.0715 14.1862 43.1895 12.5282 43.0875 10.8782C43.0675 10.2762 42.2795 10.1042 41.8675 10.4422C41.5115 10.7042 41.4955 11.1842 41.4755 11.5842C41.4435 13.0022 41.4995 14.4202 41.4475 15.8362C40.8655 15.8142 40.2255 15.9902 39.6815 15.7562C39.6015 14.3082 39.6615 12.8542 39.6435 11.4042C39.6315 10.9962 39.5895 10.4262 39.1135 10.2962C38.6055 10.1082 38.0695 10.5342 38.0555 11.0582C37.9355 12.6422 38.0755 14.2382 37.9815 15.8242C37.3895 15.8722 36.7975 15.8722 36.2055 15.8382C36.1515 13.4722 36.1695 11.1042 36.1955 8.73818C36.7635 8.68818 37.3355 8.69018 37.9055 8.73818C37.9135 9.04618 37.9215 9.35418 37.9255 9.66418Z" fill="black"/>
<path d="M46.2578 10.712C46.2238 9.55599 47.3318 8.69799 48.4018 8.56199C49.4718 8.34999 50.8298 8.56199 51.4538 9.55199C52.2318 11.22 51.0738 13.328 52.3198 14.83C51.9018 15.244 51.4558 15.628 50.9898 15.986C50.6718 15.702 50.3818 15.388 50.1138 15.056C49.3278 15.922 47.9718 16.246 46.9238 15.688C45.6858 14.93 45.7658 12.906 46.8938 12.08C47.7498 11.448 48.8678 11.448 49.8818 11.316C49.8478 10.802 49.8738 10.034 49.2058 9.93799C48.5098 9.75999 47.9998 10.336 47.8218 10.94C47.2978 10.884 46.7598 10.884 46.2578 10.712ZM48.4818 12.686C47.9018 13.016 47.8078 13.88 48.1898 14.392C48.5458 14.742 49.1698 14.62 49.4598 14.244C49.9038 13.732 49.8418 13.012 49.8618 12.382C49.3958 12.444 48.8938 12.432 48.4818 12.686Z" fill="black"/>
<path d="M53.3417 8.7261C54.9077 8.6601 56.4877 8.6441 58.0537 8.7441C58.0317 9.2401 58.1597 9.8021 57.8177 10.2201C57.0697 11.3101 56.2997 12.3841 55.5457 13.4681C56.4077 13.5321 57.3557 13.5781 58.0677 14.1301C58.2897 14.6261 58.2057 15.2261 58.0457 15.7341C57.1017 15.2901 56.0537 15.0081 55.0037 15.1521C54.3077 15.1861 53.7057 15.6001 53.0157 15.6621C53.0617 15.0021 52.8357 14.2461 53.2537 13.6701C54.0557 12.4961 54.8897 11.3421 55.6917 10.1661C54.8837 10.1661 54.0737 10.1821 53.2677 10.1341C53.2817 9.6701 53.1417 9.1601 53.3417 8.7261Z" fill="black"/>
<path d="M61.0318 8.63642C61.8978 8.44442 62.8718 8.63242 63.5318 9.25042C64.3478 9.99242 64.6458 11.1344 64.6758 12.2024C64.6998 13.3264 64.3718 14.5304 63.5158 15.3064C62.4378 16.3224 60.4858 16.2104 59.5818 15.0144C58.7118 13.8984 58.6058 12.3664 58.8818 11.0244C59.1138 9.92842 59.8858 8.87042 61.0318 8.63642ZM61.2698 10.0824C60.7398 10.4724 60.7458 11.2164 60.7018 11.8104C60.7058 12.5984 60.6578 13.4484 61.0218 14.1704C61.2938 14.7824 62.2538 14.6784 62.4618 14.0664C62.8458 12.9684 62.7658 11.7344 62.5258 10.6104C62.4238 10.0624 61.7358 9.77642 61.2698 10.0824Z" fill="black"/>
<path d="M68.2836 8.72168C69.0416 8.39768 70.0556 8.55568 70.5516 9.25568C70.9456 9.81568 70.9576 10.5377 70.9756 11.1977C70.9696 12.7357 70.9876 14.2737 70.9616 15.8137C70.3616 15.8777 69.7576 15.8737 69.1576 15.8337C69.0856 14.2897 69.1676 12.7417 69.1156 11.1977C69.1196 10.7717 68.9076 10.2557 68.4156 10.2437C67.7756 10.2157 67.4796 10.9037 67.4456 11.4437C67.3556 12.9037 67.4616 14.3677 67.3896 15.8297C66.7976 15.8737 66.2056 15.8757 65.6156 15.8237C65.5656 13.4677 65.5876 11.1097 65.6016 8.75168C66.1636 8.68768 66.7296 8.68968 67.2956 8.72368C67.3036 9.09968 67.3036 9.47768 67.3016 9.85368C67.5496 9.41968 67.7976 8.92968 68.2836 8.72168Z" fill="black"/>
<path d="M21.3096 18.5466C22.2336 18.1386 23.5796 18.6566 23.5616 19.7846C23.6956 20.9886 22.2236 21.6446 21.2496 21.1466C20.1696 20.7206 20.2076 18.9206 21.3096 18.5466Z" fill="#00AAE3"/>
<path d="M5.16366 23.4867C6.31166 22.5187 7.94366 22.1067 9.37766 22.6387C10.6457 23.0907 11.4357 24.3567 11.7017 25.6267C11.9677 27.0507 11.9297 28.5847 11.3157 29.9187C10.8637 30.9287 9.99966 31.7947 8.91166 32.0827C7.70966 32.3867 6.40566 32.0987 5.40766 31.3727C5.42966 32.5167 5.41166 33.6627 5.42366 34.8067C5.40566 35.0967 5.45766 35.4187 5.29366 35.6807C4.59766 35.7887 3.88566 35.7447 3.18566 35.7247C2.88366 35.7367 2.60566 35.4947 2.67766 35.1787C2.65566 31.0747 2.64566 26.9707 2.66166 22.8647C3.26766 22.6107 3.93766 22.6787 4.57766 22.7067C5.00166 22.6887 5.01366 23.2067 5.16366 23.4867ZM6.06366 24.6427C5.81366 24.7567 5.36966 24.8147 5.41366 25.1867C5.38966 26.6767 5.39966 28.1667 5.38166 29.6567C6.14766 30.1527 7.15766 30.3507 8.02166 30.0107C8.92766 29.5867 9.08566 28.4647 9.12366 27.5767C9.11766 26.6727 9.11366 25.6427 8.47766 24.9287C7.84366 24.3187 6.84166 24.3907 6.06366 24.6427Z" fill="#00AAE3"/>
<path d="M28.0135 23.5442C29.2575 22.7082 30.8115 22.1522 32.3095 22.5582C32.8575 22.6982 33.2655 23.1102 33.6215 23.5262C34.6895 22.8382 35.9295 22.3242 37.2255 22.4222C38.1755 22.4202 39.1375 22.9742 39.4735 23.8882C39.8295 24.8882 39.6435 25.9682 39.6875 27.0062C39.6475 28.6582 39.7775 30.3162 39.6135 31.9622C38.8195 32.0042 38.0175 32.0522 37.2255 31.9682C37.1775 31.9182 37.0855 31.8182 37.0395 31.7702C36.9455 29.7122 37.0455 27.6462 36.9955 25.5882C36.9995 25.1682 36.8055 24.6982 36.3755 24.5582C35.5555 24.3742 34.7175 24.6402 33.9655 24.9662C33.9675 27.0462 33.9615 29.1262 33.9695 31.2062C33.9395 31.4582 34.0295 31.7942 33.7915 31.9722C33.0655 32.0502 32.3295 32.0542 31.6035 31.9922C31.2755 32.0142 31.2895 31.6262 31.2775 31.4082C31.2615 29.4722 31.2955 27.5362 31.2675 25.6022C31.2775 25.1622 31.0675 24.6702 30.6095 24.5482C29.7935 24.3862 28.9695 24.6442 28.2215 24.9602C28.1815 27.2942 28.3155 29.6362 28.1495 31.9642C27.3735 32.0322 26.5875 32.0762 25.8135 31.9822C25.4375 31.9402 25.5735 31.4562 25.5335 31.2062C25.5375 28.7382 25.5415 26.2702 25.5315 23.8022C25.5595 23.4682 25.4615 23.0962 25.6495 22.7962C26.2795 22.6302 26.9555 22.7142 27.6015 22.7402C27.8475 22.9362 27.8795 23.2782 28.0135 23.5442Z" fill="#00AAE3"/>
<path d="M13.5638 22.767C14.2418 22.685 14.9478 22.611 15.6198 22.761C15.9438 23.085 15.9478 23.605 16.0918 24.025C16.7518 23.317 17.5778 22.657 18.5858 22.605C18.9278 22.587 19.5678 22.493 19.5478 23.013C19.5338 23.665 19.7338 24.427 19.3938 25.011C18.3418 25.097 17.2458 25.005 16.2418 25.439C16.2218 27.361 16.2338 29.283 16.2358 31.205C16.1838 31.441 16.3358 31.919 15.9898 31.969C15.2678 32.033 14.5358 32.027 13.8118 31.975C13.4298 31.931 13.5798 31.449 13.5378 31.197C13.5598 28.387 13.5098 25.577 13.5638 22.767Z" fill="#00AAE3"/>
<path d="M20.8895 22.7342C21.5835 22.6382 22.2915 22.6822 22.9915 22.7042C23.3795 22.6622 23.3375 23.1362 23.3575 23.3922C23.3615 25.9962 23.3575 28.6002 23.3575 31.2022C23.3195 31.4462 23.4035 31.7922 23.1575 31.9502C22.3935 32.0402 21.6075 32.0482 20.8455 31.9442C20.5995 31.7822 20.6695 31.4522 20.6455 31.2042C20.6795 28.6022 20.6615 26.0002 20.6635 23.3982C20.7015 23.1862 20.5995 22.8002 20.8895 22.7342Z" fill="#00AAE3"/>
<path d="M42.3276 23.9223C43.2936 22.7483 44.9236 22.3743 46.3816 22.5083C47.4136 22.5963 48.4976 23.0503 49.0236 23.9903C49.7216 25.1563 49.5096 26.9523 48.2476 27.6483C46.8516 28.4143 45.1616 28.3403 43.6376 28.0863C43.6816 28.8583 44.0196 29.6843 44.7676 30.0143C46.0696 30.5663 47.4796 30.1323 48.8016 29.9043C49.1916 30.1803 48.9776 30.7963 49.0196 31.2143C49.0736 31.7203 48.5176 31.8543 48.1476 31.9763C46.5116 32.4423 44.6296 32.5143 43.1096 31.6503C42.1216 31.0823 41.5336 30.0143 41.3356 28.9183C40.9576 27.2203 41.2096 25.3003 42.3276 23.9223ZM44.2156 24.9963C43.8816 25.4083 43.7976 25.9483 43.6696 26.4463C44.5396 26.5463 45.4536 26.7183 46.3076 26.4443C47.1416 26.2083 47.2076 24.8543 46.4316 24.5083C45.6976 24.1883 44.7216 24.3443 44.2156 24.9963Z" fill="#00AAE3"/>
<path d="M66.0777 37.697C67.8617 36.347 70.1957 35.975 72.3817 36.107C73.1797 36.183 74.0297 36.255 74.7237 36.697C75.1017 37.007 75.0597 37.561 75.0717 38.003C74.9197 40.445 74.1237 42.881 72.6457 44.843C72.2497 45.335 71.8217 45.863 71.1897 46.045C71.1117 45.803 70.9977 45.547 71.1337 45.301C71.7737 43.501 72.4997 41.699 72.6997 39.785C72.7797 39.249 72.6177 38.559 72.0177 38.417C70.0417 37.881 67.9897 38.403 65.9937 38.525C65.5377 38.393 65.8117 37.865 66.0777 37.697Z" fill="#00AAE3"/>
<path d="M26.1015 36.663C26.3275 36.623 26.5255 36.769 26.7175 36.865C33.2795 40.933 40.8775 43.291 48.5815 43.725C55.8055 44.131 63.0995 42.673 69.6855 39.703C70.0015 39.555 70.4115 39.493 70.6955 39.747C71.1175 40.051 71.0315 40.723 70.6335 41.013C68.9035 42.439 66.9435 43.565 64.9135 44.505C58.0615 47.657 50.1675 48.521 42.8115 46.831C36.4835 45.421 30.6175 42.137 26.0075 37.595C25.6815 37.361 25.6535 36.767 26.1015 36.663Z" fill="#00AAE3"/>
<path d="M64.6715 18.5072C65.5875 18.1492 66.8855 18.6992 66.8335 19.7992C66.9735 21.1452 65.1595 21.7352 64.2315 20.9712C63.4175 20.3292 63.6415 18.8012 64.6715 18.5072Z" fill="#152B3C"/>
<path d="M74.7119 18.6789C75.3719 18.3189 76.2719 18.5609 77.0219 18.5269C77.3899 18.4789 77.3259 18.9629 77.3479 19.1889C77.3459 23.1929 77.3399 27.1949 77.3519 31.1989C77.3219 31.4489 77.4139 31.7809 77.1639 31.9469C76.5159 32.0149 75.8599 32.0149 75.2119 31.9569C74.9059 31.8809 74.9099 31.4889 74.7799 31.2609C73.7759 32.0569 72.4299 32.4529 71.1759 32.0849C69.6359 31.7529 68.6719 30.2549 68.4099 28.7889C68.1039 26.9909 68.2859 24.9329 69.5419 23.5169C70.8439 22.0929 73.1359 22.0829 74.6659 23.1469C74.6919 21.6589 74.5959 20.1629 74.7119 18.6789ZM72.2939 24.5309C71.5479 24.7449 71.2179 25.5369 71.1059 26.2369C70.9759 27.2229 70.9519 28.2869 71.3719 29.2129C71.9499 30.4209 73.7419 30.3889 74.6499 29.6109C74.6559 28.0249 74.7579 26.4109 74.6039 24.8389C73.9019 24.4809 73.0619 24.3309 72.2939 24.5309Z" fill="#152B3C"/>
<path d="M53.6598 22.7135C54.4158 22.6315 55.1838 22.6576 55.9418 22.7016C56.2158 22.6936 56.3038 23.0215 56.3778 23.2275C56.9938 25.3036 57.5978 27.3836 58.1978 29.4636C58.7998 27.4356 59.4038 25.4096 59.9998 23.3816C60.1018 23.1376 60.1458 22.7435 60.4758 22.7135C61.2598 22.6615 62.0678 22.6096 62.8438 22.7716C62.9598 23.0796 62.7478 23.3876 62.6758 23.6816C61.7198 26.1896 60.7518 28.6915 59.7998 31.1995C59.6778 31.4635 59.6018 31.7815 59.3498 31.9556C58.6418 32.0455 57.9178 32.0375 57.2078 31.9715C56.8838 31.9416 56.7698 31.5896 56.6578 31.3376C55.6738 28.7196 54.6578 26.1135 53.6618 23.4996C53.6258 23.2676 53.3398 22.8395 53.6598 22.7135Z" fill="#152B3C"/>
<path d="M79.8419 24.4514C80.4619 23.3934 81.6039 22.6994 82.8119 22.5474C84.0059 22.3914 85.3479 22.4934 86.3199 23.2774C87.6219 24.3254 87.7179 26.7274 86.2019 27.6274C84.7859 28.4514 83.0459 28.3194 81.4839 28.0854C81.6239 28.8174 81.8539 29.6734 82.6139 29.9914C83.9039 30.5554 85.3199 30.1514 86.6279 29.8834C86.9779 29.9074 86.8979 30.3494 86.9359 30.5854C86.8979 30.9754 87.0659 31.6094 86.5659 31.7614C85.1999 32.3174 83.6619 32.4354 82.2199 32.1354C81.0279 31.8714 79.9419 31.0394 79.5099 29.8774C78.8619 28.1354 78.8799 26.0754 79.8419 24.4514ZM82.1219 24.9294C81.7539 25.3474 81.6719 25.9154 81.5379 26.4354C82.4199 26.5494 83.3519 26.7194 84.2139 26.4194C85.0159 26.1614 85.0619 24.8314 84.2999 24.4994C83.5799 24.1994 82.6399 24.3114 82.1219 24.9294Z" fill="#152B3C"/>
<path d="M91.4437 22.6371C92.9437 22.3131 94.6877 22.4651 95.8857 23.5131C96.9736 24.4731 97.3477 25.9911 97.3437 27.3951C97.3237 28.7911 96.9517 30.2911 95.8777 31.2571C94.6477 32.3591 92.8137 32.4991 91.2777 32.0791C90.0517 31.7491 89.0356 30.7851 88.6356 29.5831C88.1696 28.1831 88.1717 26.6251 88.6257 25.2211C89.0377 23.9471 90.1257 22.9171 91.4437 22.6371ZM92.0737 24.6911C91.2997 25.0771 91.0337 26.0091 90.9797 26.8091C90.9317 27.7271 90.9416 28.7251 91.4536 29.5271C92.0336 30.4391 93.5657 30.4491 94.1617 29.5471C94.5817 28.9231 94.6657 28.1411 94.6817 27.4071C94.6737 26.6171 94.5736 25.7651 94.0716 25.1231C93.6176 24.5291 92.7357 24.3751 92.0737 24.6911Z" fill="#152B3C"/>
<path d="M63.9797 22.7532C64.7817 22.6972 65.5897 22.6532 66.3897 22.7372C66.7497 22.8392 66.5877 23.3292 66.6397 23.6052C66.6057 26.3332 66.6797 29.0672 66.6057 31.7932C66.5537 31.8372 66.4497 31.9272 66.3977 31.9732C65.6177 32.0452 64.8197 32.0692 64.0457 31.9412C63.8697 31.5912 63.9537 31.1772 63.9297 30.7992C63.9697 28.1172 63.8757 25.4332 63.9797 22.7532Z" fill="#152B3C"/>
</svg>
