<svg width="100" height="100" viewBox="0 0 100 100" fill="none" xmlns="http://www.w3.org/2000/svg">
<path d="M82 8H18C12.48 8 8 12.48 8 18V82C8 87.52 12.48 92 18 92H82C87.52 92 92 87.52 92 82V18C92 12.48 87.52 8 82 8ZM32.12 38.12C33.14 36.96 34.74 36.2 36.16 36C36.36 37.54 35.76 39.1 34.94 40.06C33.94 41.22 32.52 42 30.92 42C30.52 40.64 31.12 39.3 32.12 38.12ZM40.78 58.2C39.58 59.8 37.96 62 36.16 62C34.34 62 33.94 60.8 31.72 61C29.3 61 28.9 62.2 27.08 62C25.08 62 23.66 60.2 22.66 58.4C19.64 53.8 19.24 48.2 21.24 45.2C22.66 43.2 24.66 42 26.68 42C28.7 42 30.1 43.2 31.72 43.2C33.34 43.2 34.34 42 36.76 42C38.58 42 40.38 43 41.8 44.6C37.36 47 38.16 53.2 42.6 55C41.8 56.4 41.4 57 40.78 58.2ZM58.8 44.76H53.6V55.2C53.6 57.6 54.2 59 56.4 59C57.4 59 58 59 58.4 58.8L58.6 61.6C58 61.8 56.8 62 55.4 62C53.8 62 52.4 61.4 51.4 60.4C50.4 59.2 50 57.6 50 55.2V44.76H47V42H50V37L53.6 36V42H58.8V44.76ZM72.22 62H68.82L61.24 42H65.04L69.02 53.2C69.62 55 70.22 56.6 70.62 58.4H70.82C71.22 56.8 71.82 55.2 72.42 53.2L76.22 42H80L72.22 62Z" fill="black"/>
</svg>
