<svg width="100" height="100" viewBox="0 0 100 100" fill="none" xmlns="http://www.w3.org/2000/svg">
<rect x="8" y="8" width="84" height="84" rx="11" fill="black"/>
<path fill-rule="evenodd" clip-rule="evenodd" d="M17.526 67.4497C22.6796 66.2391 27.8472 65.0109 32.9688 63.6518C39.1016 70.071 46.4291 73.5906 55.6059 71.0253C64.6235 68.505 69.713 62.26 71.6465 53.2875C76.9964 51.8316 82.146 50.4298 87.3166 49.023C88.7875 60.686 81.1051 79.1187 62.8066 85.7127C45.3838 91.9907 25.0647 84.8655 16.1998 66.4985C7.66982 48.8237 14.417 27.7797 30.752 17.7748C45.6581 8.6451 65.005 12.481 73.3437 21.3384C72.9061 21.5737 72.3995 21.7539 72.007 22.0733C68.2421 25.1333 64.4973 28.2182 60.7916 31.2582C52.0774 27.2961 43.7862 27.3071 36.3612 33.492C29.0307 39.5989 27.3081 47.8124 29.6646 57.0573L17.526 67.4497Z" fill="#EF4138"/>
</svg>
