<svg width="100" height="100" viewBox="0 0 100 100" fill="none" xmlns="http://www.w3.org/2000/svg">
<g clip-path="url(#clip0_224_852)">
<circle cx="50" cy="50" r="50" fill="black"/>
<path d="M67.4506 46.9176C69.7033 45.6264 75.1978 44.1429 75.1978 33.3187C75.1978 17.7692 57.2033 17 57.2033 17H23V82.9341C23 82.9341 45.7473 82.9341 58.7967 82.9341C70.9121 82.9341 78 74.8846 78 63.1538C78 51.9725 69.978 48.511 67.4506 46.9176ZM39.4835 30.7363H52.011C52.011 30.7363 56.8187 31.0934 56.8187 36.1758C56.8187 41.2582 53.4396 41.7253 52.011 41.7253C50.5824 41.7253 39.4835 41.7253 39.4835 41.7253V30.7363ZM53.6868 69.1978C52.0385 69.1978 39.4835 69.1978 39.4835 69.1978V55.4615H53.6868C53.6868 55.4615 59.3462 55.7363 59.3462 62.2747C59.3462 67.8516 55.3077 69.1978 53.6868 69.1978Z" fill="white"/>
</g>
<defs>
<clipPath id="clip0_224_852">
<rect width="100" height="100" fill="white"/>
</clipPath>
</defs>
</svg>
