<svg width="100" height="100" viewBox="0 0 100 100" fill="none" xmlns="http://www.w3.org/2000/svg">
<g clip-path="url(#clip0_224_1012)">
<path d="M50 100C77.6142 100 100 77.6142 100 50C100 22.3858 77.6142 0 50 0C22.3858 0 0 22.3858 0 50C0 77.6142 22.3858 100 50 100Z" fill="url(#paint0_linear_224_1012)"/>
<path d="M88.6195 54.6422C88.4962 54.6422 88.373 54.7244 88.2908 54.8887C87.5102 57.1894 86.4009 58.5452 85.497 58.5452C85.004 58.5452 84.7986 57.9701 84.7986 57.0662C84.7986 54.8065 86.1544 50.0818 86.8117 47.9043C86.8939 47.6578 86.935 47.4113 86.935 47.2059C86.935 46.5896 86.6063 46.2609 85.7435 46.2609C84.7986 46.2609 83.8537 46.6307 82.8676 48.3152C82.5389 46.8361 81.5118 46.1788 80.115 46.1788C78.4716 46.1788 76.9103 47.2059 75.6367 48.9314C74.3631 50.6159 72.843 51.1911 71.6926 50.9035C72.5143 48.8904 72.8019 47.4113 72.8019 46.2609C72.8019 44.4943 71.9391 43.4672 70.5422 43.4672C68.4058 43.4672 67.1733 45.4803 67.1733 47.6167C67.1733 49.2601 67.9128 50.9446 69.5562 51.7663C68.1593 54.8887 66.1462 57.7235 65.4067 57.7235C64.4206 57.7235 64.133 52.8756 64.1741 49.4655C64.2152 47.4935 64.3795 47.3702 64.3795 46.795C64.3795 46.4664 64.1741 46.2198 63.2703 46.2198C61.1749 46.2198 60.5176 47.9865 60.4354 49.9996C60.3943 50.7802 60.2711 51.5609 60.0657 52.3004C59.2029 55.4228 57.3952 57.7646 56.2037 57.7646C55.6696 57.7646 55.5053 57.2305 55.5053 56.491C55.5053 54.2313 56.7789 51.4376 56.7789 49.0547C56.7789 47.2881 55.9983 46.1788 54.5603 46.1788C52.8348 46.1788 50.5751 48.233 48.4387 52.0128C49.1371 49.0958 49.4247 46.2609 47.3294 46.2609C46.8775 46.2609 46.4255 46.3842 46.0558 46.5896C45.7682 46.7129 45.6039 47.0005 45.6449 47.288C45.8504 50.4105 43.1388 58.3398 40.5915 58.3398C40.1396 58.3398 39.8931 57.8468 39.8931 57.0251C39.8931 54.7655 41.2489 50.0407 41.9062 47.8632C41.9884 47.5756 42.0295 47.3291 42.0295 47.1237C42.0295 46.5074 41.6597 46.2198 40.838 46.2198C39.9342 46.2198 38.9481 46.5896 37.9621 48.2741C37.6334 46.795 36.6063 46.1377 35.2094 46.1377C32.9087 46.1377 30.3204 48.5617 29.17 51.7663C27.6499 55.998 24.6096 60.1065 20.5011 60.1065C16.7624 60.1065 14.7904 56.984 14.7904 52.095C14.7904 44.9873 19.967 39.2355 23.8701 39.2355C25.7189 39.2355 26.5817 40.4269 26.5817 42.1936C26.5817 44.371 25.3491 45.3982 25.3491 46.2198C25.3491 46.4664 25.5546 46.7129 25.9654 46.7129C27.6499 46.7129 29.6219 44.7408 29.6219 42.0703C29.6219 39.3998 27.4445 37.4277 23.5825 37.4277C17.2144 37.4277 10.8052 43.8369 10.8052 52.0539C10.8052 58.5863 14.0098 62.5304 19.6384 62.5304C23.4592 62.5304 26.7871 59.5724 28.5537 56.1212C28.7592 58.9972 30.0739 60.4762 32.0459 60.4762C33.8126 60.4762 35.2505 59.4491 36.3187 57.5592C36.7296 59.4902 37.8389 60.4351 39.2768 60.4351C40.9202 60.4351 42.3171 59.408 43.6318 57.436C43.5907 58.9561 43.9605 60.394 45.2752 60.394C45.8915 60.394 46.631 60.2708 46.7953 59.6956C48.1922 53.9027 51.6433 49.1779 52.7115 49.1779C53.0402 49.1779 53.1223 49.4655 53.1223 49.8353C53.1223 51.3965 52.0131 54.6422 52.0131 56.6964C52.0131 58.915 52.958 60.394 54.9301 60.394C57.1076 60.394 59.285 57.7235 60.7641 53.8616C61.216 57.477 62.202 60.394 63.7633 60.394C65.6532 60.394 69.0632 56.3678 71.1174 52.136C71.898 52.2593 73.1306 52.2182 74.2809 51.3965C73.7879 52.6701 73.5003 54.0259 73.5003 55.3817C73.5003 59.3258 75.3902 60.4351 76.9925 60.4351C78.7592 60.4351 80.1971 59.408 81.2653 57.5181C81.6351 59.2026 82.5389 60.394 84.2234 60.394C86.8939 60.394 89.1536 57.6825 89.1536 55.4639C89.1536 54.9709 88.9071 54.6422 88.6195 54.6422ZM33.6482 58.3398C32.58 58.3398 32.1692 57.2716 32.1692 55.6693C32.1692 52.8756 34.0591 48.233 36.1133 48.233C36.9761 48.233 37.3458 49.2601 37.3458 50.5337C37.3048 53.3275 35.497 58.3398 33.6482 58.3398ZM70.2957 49.9996C69.6384 49.2601 69.433 48.1919 69.433 47.288C69.433 46.1377 69.8438 45.1927 70.3368 45.1927C70.8298 45.1927 70.9942 45.6858 70.9942 46.3842C70.9942 47.4935 70.5833 49.1779 70.2957 49.9996ZM78.5948 58.3398C77.5266 58.3398 77.1158 57.1073 77.1158 55.6693C77.1158 52.9988 79.0057 48.233 81.0599 48.233C81.9638 48.233 82.2514 49.2601 82.2514 50.5337C82.2514 53.3275 80.4436 58.3398 78.5948 58.3398Z" fill="white"/>
</g>
<defs>
<linearGradient id="paint0_linear_224_1012" x1="35.9075" y1="17.4896" x2="69.7705" y2="95.6092" gradientUnits="userSpaceOnUse">
<stop stop-color="#01C3CC"/>
<stop offset="0.51" stop-color="#4569E0"/>
<stop offset="0.998" stop-color="#7428EF"/>
<stop offset="1" stop-color="#7428EF"/>
</linearGradient>
<clipPath id="clip0_224_1012">
<rect width="100" height="100" fill="white"/>
</clipPath>
</defs>
</svg>
