<svg width="100" height="100" viewBox="0 0 100 100" fill="none" xmlns="http://www.w3.org/2000/svg">
<path d="M68.5938 7.5H31.4062C18.2032 7.5 7.5 18.2032 7.5 31.4062V68.5938C7.5 81.7968 18.2032 92.5 31.4062 92.5H68.5938C81.7968 92.5 92.5 81.7968 92.5 68.5938V31.4062C92.5 18.2032 81.7968 7.5 68.5938 7.5Z" fill="#FF6500"/>
<mask id="mask0_224_1124" style="mask-type:luminance" maskUnits="userSpaceOnUse" x="21" y="36" width="29" height="48">
<path d="M21.6655 36.4141H49.3348V83.968H21.6655V36.4141Z" fill="white"/>
</mask>
<g mask="url(#mask0_224_1124)">
<path fill-rule="evenodd" clip-rule="evenodd" d="M45.4535 36.5221C44.8886 36.4512 44.3131 36.4141 43.7288 36.4141H32.6168C29.4346 36.4141 26.6668 38.5904 25.9142 41.6805L21.8342 58.4556C20.9399 62.1336 23.7254 65.6771 27.5115 65.6771H37.9045L35.2836 79.139C34.7984 81.6411 36.7145 83.968 39.2645 83.968C39.4628 83.968 39.6488 83.8635 39.7532 83.6935L49.3352 68.0217C43.5286 64.9989 39.5638 58.9267 39.5638 51.9283C39.5638 48.1529 40.605 44.4501 42.5742 41.229L45.4535 36.5239V36.5221Z" fill="white"/>
</g>
<mask id="mask1_224_1124" style="mask-type:luminance" maskUnits="userSpaceOnUse" x="43" y="18" width="37" height="48">
<path d="M43.9453 18.125H79.7586V65.679H43.9453V18.125Z" fill="white"/>
</mask>
<g mask="url(#mask1_224_1124)">
<path fill-rule="evenodd" clip-rule="evenodd" d="M43.9453 51.9283C43.9453 48.9586 44.7652 46.0491 46.3129 43.5168L61.6714 18.3975C61.7776 18.2275 61.9618 18.123 62.1601 18.123C64.7101 18.123 66.6261 20.4482 66.1392 22.9503L63.5201 36.4122H73.9149C77.6992 36.4122 80.4847 39.9574 79.5904 43.6354L75.5104 60.4088C74.7578 63.5007 71.99 65.677 68.8078 65.677H57.6958C50.1007 65.677 43.9453 59.5198 43.9453 51.9265" fill="white"/>
</g>
</svg>
