<svg width="100" height="100" viewBox="0 0 100 100" fill="none" xmlns="http://www.w3.org/2000/svg">
<path d="M50.4967 29.2471C49.0157 25.5493 45.4078 21.5558 38.6505 22.1044C30.0427 23.0401 27.3603 31.2893 28.6614 36.2104C25.233 33.889 19.4036 32.8682 14.3154 37.2267C7.74568 43.8123 11.2598 52.7184 14.8713 54.8547C10.891 54.4862 4.60033 57.1757 3.20869 64.2112C1.72826 72.9463 8.38715 78.0385 14.8713 78.0385H86.7731C94.2711 78.0385 98.4311 71.5519 97.9645 65.4345C97.229 57.4506 89.9231 54.3874 85.9378 55.0438C89.2674 53.1861 93.7141 44.46 86.9525 37.5999C81.585 32.4945 74.7427 34.3522 72.3369 36.5789C73.6337 32.3139 71.507 23.4978 62.8016 22.1034C62.1997 22.0361 61.6203 22 61.0682 22C54.4227 22.0009 51.4345 26.8588 50.4967 29.2471Z" fill="white"/>
<path d="M15.5126 38.617C11.7166 42.0534 10.335 49.8398 17.1781 54.3916L44.4783 73.1216L31.2413 42.7954C28.4675 35.6392 20.8793 34.0786 15.5126 38.617Z" fill="#F37021"/>
<path d="M39.0128 23.8725C34.5752 23.9629 27.9115 29.2474 30.877 37.3169L44.5677 69.605L49.3785 35.6441C50.4917 27.2056 44.1057 23.3102 39.0128 23.8725Z" fill="#CC004C"/>
<path d="M51.5155 34.3482H54.1043C54.1043 34.3482 55.4867 34.3482 55.6749 35.0004C54.6561 35.8323 51.8833 35.9366 52.2515 40.3803L56.6033 69.5997L70.2005 37.2269C72.9817 29.9987 67.1439 23.962 61.9654 23.7775C61.7236 23.7602 61.4808 23.7461 61.2295 23.7461C56.5816 23.746 51.2553 27.1239 51.5155 34.3482Z" fill="#6460AA"/>
<path d="M69.6527 43.0699L56.792 73.0322L84.0842 54.2034C90.3755 49.7411 89.3608 42.607 85.8391 39.0806C84.3628 37.4208 81.652 36.1387 78.7805 36.1387C75.388 36.138 71.7573 37.9374 69.6527 43.0699Z" fill="#0089D0"/>
<path d="M81.0281 58.4672L55.3975 76.37H86.9562C93.4309 76.37 97.5917 69.6943 95.742 63.5681C94.5031 59.7174 90.8379 56.6948 86.5837 56.6904C84.793 56.6911 82.8939 57.2305 81.0281 58.4672Z" fill="#0DB14B"/>
<path d="M14.7774 76.3691H45.8705L20.2333 58.4663C14.3105 54.6609 7.65079 56.8876 5.24653 63.2026C3.20855 70.4315 8.29699 76.3691 14.7774 76.3691Z" fill="#FCB711"/>
</svg>
