<svg width="100" height="100" viewBox="0 0 100 100" fill="none" xmlns="http://www.w3.org/2000/svg">
<g clip-path="url(#clip0_224_778)">
<circle cx="50" cy="50" r="50" fill="#0056D2"/>
<path d="M36.0933 16.753C45.7435 12.1883 57.3054 11.6675 67.1885 15.8523C74.3021 18.5238 80.1596 23.7502 84.5466 29.8651C79.3202 32.8857 74.1305 35.9799 68.9163 39.0251C65.6261 34.5094 60.5589 31.2682 54.9342 30.7719C44.273 29.3504 33.4525 38.1551 33.1278 48.9817C32.5641 58.6319 40.3762 67.7797 49.9222 68.9561C57.4892 70.2796 65.3136 66.395 69.4187 60.0227C74.6023 63.1047 79.8103 66.1499 85 69.2318C79.1915 78.11 69.6822 84.5925 59.1619 86.2713C50.3634 87.846 41.1053 85.9956 33.3729 81.5964C26.6821 77.5586 21.088 71.5356 17.9999 64.324C14.6484 56.5732 14.0602 47.646 16.462 39.5459C19.354 29.6139 26.7311 21.1339 36.0933 16.753Z" fill="white"/>
</g>
<defs>
<clipPath id="clip0_224_778">
<rect width="100" height="100" fill="white"/>
</clipPath>
</defs>
</svg>
