<svg width="100" height="100" viewBox="0 0 100 100" fill="none" xmlns="http://www.w3.org/2000/svg">
<rect x="8" y="8" width="84" height="84" rx="11" fill="#F0652A"/>
<path d="M40.9052 18.6907C50.6375 13.303 62.2536 13.4549 72.9886 14.7563C73.0038 19.5667 72.9987 24.3823 72.9937 29.1979C65.5703 28.7978 57.7318 27.9573 50.7186 31.0056C44.5966 33.5729 40.1355 39.3758 38.824 45.8371C36.7428 54.9922 42.2622 65.0183 50.8806 68.5578C57.8432 71.591 65.621 70.6187 72.9835 70.3807C73.0089 75.2824 72.9987 80.184 72.9937 85.0856C65.5197 86.3364 57.7925 86.4225 50.3692 84.7869C43.3205 83.3437 36.5555 79.9156 31.75 74.4874C25.8812 68.0514 23.1418 59.271 23 50.6729V49.0981C23.1519 36.768 29.9879 24.6152 40.9052 18.6907Z" fill="black"/>
</svg>
