<svg width="100" height="100" viewBox="0 0 100 100" fill="none" xmlns="http://www.w3.org/2000/svg">
<g clip-path="url(#clip0_224_381)">
<circle cx="50" cy="50" r="50" fill="black"/>
<path d="M20.5128 14.0919C21.0913 13.9759 21.6844 14.0023 22.2706 14.0032C31.6569 14.0143 41.0432 14.0006 50.4295 14.0091C58.5205 14.0672 66.5544 16.802 73.0411 21.63C75.1855 23.241 77.1967 25.0364 78.9793 27.0425C83.1434 31.7126 86.1769 37.3836 87.7469 43.4403C89.6541 50.8308 89.381 58.7716 86.95 66.0085C86.1811 68.2569 85.2408 70.4507 84.0957 72.5336C79.5314 80.8286 71.867 87.376 62.9423 90.5468C61.6265 91.0136 60.2826 91.3984 58.9301 91.7432C55.5118 92.5845 51.9749 92.7697 48.4669 92.7919C45.5649 92.8072 42.6619 92.7091 39.7599 92.7774C39.3793 92.7902 38.9961 92.7099 38.6582 92.5325C38.1812 92.2935 37.8536 91.8584 37.4764 91.4966C33.5751 87.5475 29.609 83.6624 25.77 79.6519C25.2333 79.2244 25.1658 78.4982 25.1718 77.8617C25.1769 73.8204 25.1667 69.78 25.1761 65.7388C25.1778 64.7336 26.0533 63.8402 27.0465 63.7668C34.2714 63.7574 41.498 63.7609 48.7229 63.76C49.5464 63.7489 50.3749 63.7924 51.1932 63.6755C54.2446 63.2728 57.0819 61.4296 58.6511 58.7759C59.5633 57.3406 60.0761 55.663 60.1665 53.9667C60.2945 51.2711 59.3909 48.5021 57.5606 46.4986C55.6586 44.3764 52.8691 43.0214 50.0029 43.0188C44.6271 43.0069 39.2513 43.0137 33.8763 43.0188C33.5162 43.0154 33.1434 43.0598 32.7986 42.9318C32.3498 42.7688 31.9837 42.4471 31.6561 42.1083C27.7155 38.114 23.7715 34.1223 19.8259 30.1323C19.4777 29.779 19.1117 29.3856 19.0255 28.8788C18.9811 28.5119 19.0093 28.1415 19.0042 27.7729C19.0016 24.0465 18.9999 20.321 19.0033 16.5946C19.0084 16.1706 18.9598 15.7268 19.1279 15.3249C19.3685 14.7353 19.8907 14.2481 20.5128 14.0919ZM25.991 18.1212C26.2086 18.3729 26.4424 18.6093 26.683 18.8388C28.9707 21.1308 31.2738 23.4066 33.5393 25.7207C33.7543 25.9298 33.9395 26.1823 34.2066 26.3291C34.5837 26.4964 35.0087 26.4528 35.4114 26.4571C39.8486 26.4375 44.2858 26.4537 48.7229 26.4452C49.5199 26.452 50.316 26.4221 51.1122 26.4588C59.4301 26.7856 67.3957 31.3696 72.0155 38.2693C75.8186 43.8738 77.4211 50.9494 76.3067 57.6384C75.4236 63.4366 72.5258 68.8918 68.2652 72.9151C63.7564 77.2993 57.6254 79.9548 51.3511 80.3012C48.1171 80.384 44.8814 80.2739 41.6465 80.3584C41.6508 83.1095 41.6593 85.8622 41.6533 88.6133C44.6066 88.6679 47.5607 88.6465 50.514 88.6278C57.8148 88.5134 65.0466 85.9851 70.8499 81.5564C74.8484 78.5264 78.2087 74.6473 80.592 70.2289C81.7303 68.099 82.6997 65.8728 83.3925 63.5561C85.6376 56.1093 85.3304 47.9168 82.5077 40.6671C81.3762 37.7488 79.8471 34.9858 77.992 32.466C74.6735 27.9504 70.2739 24.2291 65.2497 21.7426C61.0361 19.6597 56.3975 18.4378 51.7027 18.1895C50.2845 18.1144 48.8637 18.1417 47.4438 18.1332C40.2932 18.1297 33.1416 18.146 25.991 18.1212ZM23.1094 21.0199C23.2109 23.1565 22.978 25.3017 23.2092 27.4333C23.2126 27.7038 23.4567 27.8625 23.6197 28.0442C26.0516 30.5623 28.597 32.9695 30.9845 35.5303C31.0903 35.6361 31.1953 35.7427 31.3062 35.8443C31.3958 33.8373 31.3489 31.8286 31.348 29.8208C31.3403 29.6007 31.3813 29.3361 31.1808 29.1843C28.4621 26.4912 25.8126 23.7291 23.1094 21.0199ZM35.4336 30.5956C35.5189 33.3603 35.4404 36.1276 35.4805 38.894C40.5509 38.894 45.622 38.8632 50.6915 38.9076C55.0715 39.0672 59.2032 41.5281 61.6999 45.0855C63.6258 47.7871 64.5022 51.1832 64.259 54.4804C63.9671 58.5224 61.8885 62.3905 58.6827 64.8684C56.2234 66.7815 53.1302 67.9156 50.0029 67.884C44.0776 67.9181 38.1531 67.8712 32.2278 67.9088C32.4522 68.1938 32.7261 68.4318 32.9821 68.687C34.8517 70.5429 36.6854 72.4355 38.5635 74.2838C39.0857 74.812 39.6498 75.3094 40.0781 75.923C40.1549 76.0168 40.2181 76.1576 40.3631 76.1482C41.0432 76.2045 41.7267 76.2011 42.4085 76.2088C44.4564 76.1986 46.5043 76.1994 48.5523 76.2114C50.8058 76.2114 53.0884 76.1303 55.2754 75.5373C58.1178 74.8427 60.8065 73.5568 63.1591 71.8203C67.7208 68.4668 71.047 63.4042 72.1085 57.8244C73.3065 51.5962 71.8491 44.8654 68.0365 39.7763C67.1849 38.6226 66.1789 37.5961 65.1515 36.6003C61.0412 32.7161 55.3906 30.5572 49.7469 30.5785C44.9752 30.5803 40.2044 30.5538 35.4336 30.5956ZM29.3095 70.932C29.2967 72.9867 29.2967 75.0424 29.3035 77.0971C29.3069 77.2021 29.3069 77.3198 29.3948 77.3966C31.639 79.8132 34.0461 82.0718 36.339 84.4423C36.74 84.8425 37.1035 85.2794 37.5251 85.6591C37.5182 83.5728 37.5617 81.4856 37.5191 79.3993C37.5285 79.1544 37.3407 78.9752 37.2008 78.7986C36.6854 78.2072 36.0855 77.6978 35.5463 77.1287C33.7722 75.405 32.0998 73.5798 30.3266 71.8553C29.9938 71.5404 29.6832 71.1999 29.3095 70.932Z" fill="white"/>
</g>
<defs>
<clipPath id="clip0_224_381">
<rect width="100" height="100" fill="white"/>
</clipPath>
</defs>
</svg>
