<svg width="100" height="100" viewBox="0 0 100 100" fill="none" xmlns="http://www.w3.org/2000/svg">
<path d="M80.9281 65.2012H81.2593C86.2472 65.2012 90.2998 69.2538 90.2998 74.2416C90.2998 79.2294 86.2472 83.282 81.2593 83.282H80.9281C75.9403 83.282 71.8877 79.2294 71.8877 74.2416C71.8877 69.2538 75.9208 65.2012 80.9281 65.2012Z" fill="#F01A30"/>
<path d="M69.3743 36.2095C67.8351 31.9036 65.653 28.2212 62.8668 25.2013C60.0611 22.1813 56.7099 19.8238 52.7742 18.1482C48.858 16.4726 44.5132 15.6348 39.7397 15.6348H10.2998V84.6655H38.6875C43.0714 84.6655 46.9876 84.1394 50.4557 83.0678C53.9238 81.9962 57.0217 80.4375 59.7299 78.3917C63.5877 75.4302 66.5492 71.5919 68.6145 66.8574C70.6797 62.1228 71.7124 56.7064 71.7124 50.5885C71.6929 45.3084 70.933 40.5154 69.3743 36.2095ZM27.6013 65.6689V34.6314L54.3914 50.1599L27.6013 65.6689Z" fill="#223154"/>
</svg>
