<svg width="100" height="100" viewBox="0 0 100 100" fill="none" xmlns="http://www.w3.org/2000/svg">
<path d="M4.96848 18.5078C22.2171 18.5402 39.4604 18.4808 56.709 18.5348C55.8874 22.4159 55.0225 26.2808 54.1739 30.1511C53.6496 32.5781 53.1144 35.0051 52.5793 37.4321C41.6171 37.4321 30.655 37.4321 19.6928 37.4321C13.4658 37.4321 7.23875 37.4375 1.01172 37.4267C2.33064 31.124 3.66037 24.8159 4.96848 18.5078ZM11.0063 22.4592C7.56307 24.0105 6.1901 28.5781 7.4874 31.9673C8.70361 34.6538 12.4063 34.9565 14.7198 33.5943C17.7144 31.7781 18.8442 27.6484 17.709 24.4321C16.6442 21.9024 13.2874 21.3402 11.0063 22.4592ZM20.9793 22.1673C20.2982 26.1781 19.6171 30.1889 18.9793 34.2105C19.4658 34.1997 20.4387 34.1835 20.9252 34.1781C21.1739 32.7889 21.4171 31.3943 21.6604 30.0051C23.6766 29.9943 26.055 30.297 27.6117 28.7132C29.2766 27.1024 29.6874 23.5402 27.2604 22.4375C25.2279 21.87 23.0604 22.2646 20.9793 22.1673ZM29.2982 34.1835C31.8333 34.1511 34.3739 34.2754 36.9036 34.1456C37.0982 33.6267 37.2712 33.1024 37.4225 32.5727C35.4712 32.5619 33.5252 32.5673 31.5793 32.5619C31.7523 31.4051 31.9252 30.2538 32.0982 29.097C33.8766 29.0429 35.6496 29.0429 37.4279 29.0646C37.5144 28.6267 37.682 27.7457 37.7631 27.3078C35.9901 27.2916 34.2171 27.2916 32.4387 27.3078C32.6279 26.1294 32.8225 24.9565 33.0117 23.7835C35.0928 23.7835 37.1739 23.7835 39.255 23.7781C39.3144 23.3727 39.4333 22.5673 39.4928 22.1619C36.7631 22.1619 34.0333 22.1619 31.3036 22.1619C30.6442 26.1673 29.9739 30.1781 29.2982 34.1835ZM41.7198 22.1565C40.8712 26.1781 39.9469 30.1835 39.0712 34.1943C39.5685 34.1943 40.5631 34.1889 41.0604 34.1889C41.7252 31.3511 42.4442 28.524 43.0874 25.6862C44.6766 28.3781 45.7198 31.3619 47.0766 34.1781C47.536 34.1889 48.455 34.1997 48.9144 34.2051C49.7955 30.1889 50.682 26.1727 51.5739 22.1619C51.0874 22.1619 50.1144 22.1619 49.6225 22.1619C48.9847 25.0646 48.3631 27.9673 47.736 30.87C46.3523 27.9727 44.9577 25.0862 43.6171 22.1727C42.9847 22.1673 42.3469 22.1619 41.7198 22.1565Z" fill="#D13328"/>
<path d="M12.0387 23.9888C13.509 23.3834 15.5468 23.8591 16.0117 25.5456C16.6603 27.978 15.6766 31.0374 13.3468 32.232C11.8603 33.0158 9.57927 32.5672 9.1144 30.7726C8.46035 28.2645 9.56845 25.0861 12.0387 23.9888Z" fill="#D13328"/>
<path d="M22.6551 23.7559C23.9253 23.8802 25.4172 23.4856 26.5145 24.3126C27.4821 25.3883 26.8226 27.1829 25.7524 27.9396C24.5632 28.5126 23.1956 28.3342 21.9199 28.4369C22.1686 26.8748 22.4172 25.318 22.6551 23.7559Z" fill="#D13328"/>
<path d="M11.0055 22.4596C13.2866 21.3406 16.6433 21.9028 17.7082 24.4325C18.8433 27.6487 17.7136 31.7785 14.719 33.5947C12.4055 34.9569 8.70277 34.6542 7.48656 31.9677C6.18926 28.5785 7.56223 24.0109 11.0055 22.4596ZM12.0379 23.9893C9.56764 25.0866 8.45953 28.265 9.11358 30.7731C9.57845 32.5677 11.8595 33.0163 13.346 32.2325C15.6757 31.0379 16.6595 27.9785 16.0109 25.546C15.546 23.8596 13.5082 23.3839 12.0379 23.9893Z" fill="white"/>
<path d="M20.9785 22.168C23.0596 22.2653 25.2272 21.8707 27.2596 22.4383C29.6866 23.541 29.2758 27.1031 27.6109 28.7139C26.0542 30.2977 23.6758 29.995 21.6596 30.0058C21.4164 31.395 21.1731 32.7896 20.9245 34.1788C20.438 34.1842 19.465 34.2004 18.9785 34.2112C19.6164 30.1896 20.2974 26.1788 20.9785 22.168ZM22.6542 23.7572C22.4164 25.3193 22.1677 26.8761 21.9191 28.4383C23.1947 28.3356 24.5623 28.5139 25.7515 27.941C26.8218 27.1842 27.4812 25.3896 26.5137 24.3139C25.4164 23.4869 23.9245 23.8815 22.6542 23.7572Z" fill="white"/>
<path d="M29.2974 34.1837C29.973 30.1783 30.6433 26.1675 31.3028 22.1621C34.0325 22.1621 36.7622 22.1621 39.492 22.1621C39.4325 22.5675 39.3136 23.3729 39.2541 23.7783C37.173 23.7837 35.092 23.7837 33.0109 23.7837C32.8217 24.9567 32.6271 26.1297 32.4379 27.3081C34.2163 27.2918 35.9893 27.2918 37.7622 27.3081C37.6811 27.7459 37.5136 28.627 37.4271 29.0648C35.6487 29.0432 33.8757 29.0432 32.0974 29.0972C31.9244 30.254 31.7514 31.4054 31.5784 32.5621C33.5244 32.5675 35.4703 32.5621 37.4217 32.5729C37.2703 33.1026 37.0974 33.627 36.9028 34.1459C34.373 34.2756 31.8325 34.1513 29.2974 34.1837Z" fill="white"/>
<path d="M41.719 22.1572C42.346 22.1626 42.9838 22.168 43.6163 22.1734C44.9568 25.087 46.3514 27.9734 47.7352 30.8707C48.3622 27.968 48.9838 25.0653 49.6217 22.1626C50.1136 22.1626 51.0865 22.1626 51.573 22.1626C50.6811 26.1734 49.7946 30.1897 48.9136 34.2059C48.4541 34.2005 47.5352 34.1897 47.0757 34.1788C45.719 31.3626 44.6757 28.3788 43.0865 25.687C42.4433 28.5248 41.7244 31.3518 41.0595 34.1897C40.5622 34.1897 39.5676 34.1951 39.0703 34.1951C39.946 30.1843 40.8703 26.1788 41.719 22.1572Z" fill="white"/>
<path d="M57.0971 34.8541C58.1296 34.8487 59.162 34.8811 60.1998 34.8757C58.3836 43.3514 56.6377 51.8433 54.7674 60.3136C53.7944 60.4703 52.7998 60.3947 51.8215 60.4271C51.9944 59.5568 52.1782 58.6866 52.3728 57.8163C50.589 59.9839 47.6647 61.2109 44.8809 60.5244C42.0917 59.9568 40.1566 57.3136 39.8323 54.5784C39.2052 49.546 41.6971 43.546 46.9025 42.0379C49.9944 41.0055 53.616 42.373 54.9242 45.4379C55.5188 41.8866 56.3728 38.3839 57.0971 34.8541ZM47.8323 44.7244C43.789 46.0703 42.1404 51.1893 43.3187 55.0001C44.0215 57.3622 46.8809 58.6109 49.1188 57.6271C52.989 56.1082 54.6593 51.2271 53.6052 47.4109C52.8971 45.0487 50.0809 43.8866 47.8323 44.7244Z" fill="white"/>
<path d="M25.9893 43.3403C29.0488 41.1673 33.8974 40.9998 36.492 43.989C38.4163 46.1349 38.4271 49.2052 38.0542 51.8971C33.6379 51.8917 29.2163 51.8917 24.7947 51.8971C24.8488 53.7565 25.0974 55.8917 26.7461 57.0646C29.0433 58.6863 32.519 57.8917 34.0433 55.5457C35.0974 55.5349 36.1461 55.5511 37.2001 55.5673C35.9082 60.1133 30.2596 61.6322 26.1785 60.1836C23.492 59.1998 21.7515 56.3782 21.7515 53.5619C21.5731 49.789 22.7785 45.6052 25.9893 43.3403ZM28.0866 45.3511C26.6325 46.2863 25.9298 47.9241 25.2596 49.443C28.5298 49.47 31.7947 49.4592 35.0596 49.4538C35.0055 48.2106 34.9731 46.8646 34.1352 45.8592C32.6866 44.0754 29.865 44.0376 28.0866 45.3511Z" fill="white"/>
<path d="M61.908 42.1622C64.1837 42.1568 66.4593 42.173 68.735 42.1514C70.0756 45.1243 71.2431 48.1784 72.6431 51.1297C75.0539 48.1406 77.481 45.1568 79.8864 42.1622C82.1566 42.1622 84.4323 42.1622 86.7026 42.1622C82.7837 46.6919 78.8756 51.227 74.9242 55.7243C77.0161 60.4054 79.1458 65.0649 81.2593 69.7297C79.0107 69.7297 76.7621 69.7297 74.5188 69.7297C73.0756 66.5406 71.6161 63.3568 70.1621 60.1784C67.3026 63.2324 64.7134 66.5243 62.0161 69.7189C59.7566 69.7351 57.5026 69.7297 55.2485 69.7243C59.3512 64.8216 63.4918 59.9568 67.6107 55.0703C65.708 50.7676 63.8053 46.4703 61.908 42.1622Z" fill="white"/>
<path d="M52.5786 37.4336C53.1138 35.0065 53.6489 32.5795 54.1732 30.1525C58.1138 30.12 62.0543 30.1363 65.9949 30.1417C65.4976 32.5254 64.984 34.9092 64.4976 37.2984C73.9786 37.3038 83.4597 37.2876 92.9354 37.3092C90.3084 49.693 87.6814 62.0822 85.0327 74.466C73.0705 74.4552 61.1138 74.4552 49.157 74.466C49.8003 71.3525 50.5246 68.2498 51.1841 65.1417C38.7516 65.1255 26.3138 65.1525 13.8813 65.1255C15.8327 55.8984 17.7408 46.6606 19.6922 37.4336C30.6543 37.4336 41.6165 37.4336 52.5786 37.4336ZM57.0976 34.8552C56.3732 38.3849 55.5192 41.8876 54.9246 45.439C53.6165 42.3741 49.9949 41.0065 46.903 42.039C41.6976 43.5471 39.2057 49.5471 39.8327 54.5795C40.157 57.3146 42.0922 59.9579 44.8813 60.5255C47.6651 61.2119 50.5895 59.9849 52.3732 57.8173C52.1786 58.6876 51.9949 59.5579 51.8219 60.4282C52.8003 60.3957 53.7949 60.4714 54.7678 60.3146C56.6381 51.8444 58.384 43.3525 60.2003 34.8768C59.1624 34.8822 58.13 34.8498 57.0976 34.8552ZM25.9895 43.3417C22.7786 45.6065 21.5732 49.7903 21.7516 53.5633C21.7516 56.3795 23.4922 59.2011 26.1786 60.1849C30.2597 61.6336 35.9084 60.1146 37.2003 55.5687C36.1462 55.5525 35.0976 55.5363 34.0435 55.5471C32.5192 57.893 29.0435 58.6876 26.7462 57.066C25.0976 55.893 24.8489 53.7579 24.7949 51.8984C29.2165 51.893 33.6381 51.893 38.0543 51.8984C38.4273 49.2065 38.4165 46.1363 36.4922 43.9903C33.8976 41.0011 29.0489 41.1687 25.9895 43.3417ZM61.9084 42.1633C63.8057 46.4714 65.7084 50.7687 67.6111 55.0714C63.4922 59.9579 59.3516 64.8228 55.2489 69.7255C57.503 69.7309 59.757 69.7363 62.0165 69.72C64.7138 66.5254 67.303 63.2336 70.1624 60.1795C71.6165 63.3579 73.0759 66.5417 74.5192 69.7309C76.7624 69.7309 79.0111 69.7309 81.2597 69.7309C79.1462 65.066 77.0165 60.4065 74.9246 55.7254C78.8759 51.2282 82.784 46.693 86.703 42.1633C84.4327 42.1633 82.157 42.1633 79.8867 42.1633C77.4813 45.1579 75.0543 48.1417 72.6435 51.1309C71.2435 48.1795 70.0759 45.1255 68.7354 42.1525C66.4597 42.1741 64.184 42.1579 61.9084 42.1633Z" fill="#01262B"/>
<path d="M95.3517 37.6175C96.9626 36.5256 99.4382 38.0446 99.049 39.9959C98.9463 41.9905 96.1139 42.8013 94.8815 41.3202C93.822 40.277 94.0815 38.3635 95.3517 37.6175Z" fill="#01262B"/>
<path d="M95.8383 38.0332C96.2167 38.7089 97.5356 38.4386 97.4815 39.4008C97.5626 39.7521 97.7248 40.4494 97.8059 40.7954C97.0978 40.6116 96.4059 40.4116 95.714 40.1737C95.6924 39.6008 95.7086 39.0332 95.7572 38.4656M96.3518 39.0224C96.6491 39.3197 96.6491 39.3197 96.3518 39.0224V39.0224Z" fill="#01262B"/>
<path d="M28.0868 45.352C29.8652 44.0385 32.6868 44.0764 34.1354 45.8601C34.9733 46.8655 35.0057 48.2115 35.0598 49.4547C31.7949 49.4601 28.53 49.471 25.2598 49.4439C25.93 47.925 26.6327 46.2872 28.0868 45.352Z" fill="#01262B"/>
<path d="M47.8327 44.7252C50.0813 43.8874 52.8976 45.0495 53.6057 47.4117C54.6597 51.2279 52.9894 56.109 49.1192 57.6279C46.8813 58.6117 44.0219 57.363 43.3192 55.0009C42.1408 51.1901 43.7894 46.0711 47.8327 44.7252Z" fill="#01262B"/>
</svg>
