<svg width="100" height="100" viewBox="0 0 100 100" fill="none" xmlns="http://www.w3.org/2000/svg">
<path d="M92.167 49.667C92.167 26.1949 73.1391 7.16699 49.667 7.16699C26.1949 7.16699 7.16699 26.1949 7.16699 49.667C7.16699 70.88 22.7086 88.4624 43.0264 91.6507V61.9522H32.2354V49.667H43.0264V40.3037C43.0264 29.6521 49.3713 23.7686 59.0792 23.7686C63.7291 23.7686 68.5928 24.5986 68.5928 24.5986V35.0576H63.2336C57.9541 35.0576 56.3077 38.3337 56.3077 41.6947V49.667H68.0948L66.2105 61.9522H56.3076V91.6507C76.6254 88.4624 92.167 70.88 92.167 49.667Z" fill="#1877F2"/>
<path d="M66.2104 61.9521L68.0947 49.667H56.3076V41.6946C56.3076 38.3337 57.9541 35.0576 63.2336 35.0576H68.5928V24.5986C68.5928 24.5986 63.7291 23.7686 59.0792 23.7686C49.3713 23.7686 43.0263 29.6521 43.0263 40.3037V49.667H32.2354V61.9521H43.0263V91.6507C45.2231 91.9949 47.4434 92.1676 49.667 92.167C51.9261 92.167 54.1438 91.9902 56.3076 91.6507V61.9521H66.2104Z" fill="white"/>
</svg>
