<svg width="100" height="100" viewBox="0 0 100 100" fill="none" xmlns="http://www.w3.org/2000/svg">
<path d="M11 26.9286C11 17.5792 18.5792 10 27.9286 10H73.0714C82.4208 10 90 17.5792 90 26.9286V72.0714C90 81.4208 82.4208 89 73.0714 89H27.9286C18.5792 89 11 81.4208 11 72.0714V26.9286Z" fill="#FF822C"/>
<path d="M65.3143 32.6914H61.0811V44.7816H65.3143V32.6914Z" fill="#FF822C"/>
<path d="M49.4443 32.6396H53.6779V44.7314H49.4443V32.6396Z" fill="#FF822C"/>
<path d="M33.2005 19.7896C36.0658 17.9426 39.4754 16.9893 42.8796 17.011C53.439 16.9974 64.001 16.9974 74.5603 17.0055C73.9591 21.1952 72.7377 25.5716 69.6828 28.6617C67.3294 31.026 64.0525 32.2176 60.7891 32.6076C53.0219 33.5311 45.1843 31.4918 37.4388 32.7944C33.799 33.3875 30.2756 35.1777 28.0115 38.1432C26.6358 39.8954 25.715 41.9482 25 44.0444C25.0406 40.8974 25.0433 37.7505 25.0135 34.6062C25.0081 28.6996 28.2011 22.9257 33.2005 19.7896Z" fill="white"/>
<path d="M32.829 41.6255C34.8439 40.6154 37.1052 40.1441 39.3558 40.1577C47.7052 40.1577 56.0546 40.1523 64.4041 40.1577C63.9057 43.6892 62.752 47.3805 60.0059 49.8206C57.8718 51.738 55.0147 52.6073 52.2198 52.9594C47.9571 53.4848 43.6564 53.0786 39.3747 53.214C39.1933 59.1287 39.8974 65.1762 38.3321 70.9663C37.5656 73.9237 35.957 76.7213 33.5196 78.6062C31.0768 80.5318 28.0381 81.4959 25.0076 81.9996C25.1783 74.0537 24.9291 66.1051 25.0726 58.1646C25.0645 55.7164 24.791 53.2167 25.4274 50.8199C26.3861 46.8659 29.1756 43.4157 32.829 41.6255Z" fill="white"/>
</svg>
