<svg width="100" height="100" viewBox="0 0 100 100" fill="none" xmlns="http://www.w3.org/2000/svg">
<g clip-path="url(#clip0_224_417)">
<path fill-rule="evenodd" clip-rule="evenodd" d="M22.1924 -0.000976562H77.8158C90.0228 -0.000976562 100.008 9.98438 100.008 22.1914V77.8148C100.008 90.0218 90.0228 100.007 77.8158 100.007H22.1924C9.98535 100.007 0 90.0218 0 77.8148V22.1914C0 9.98438 9.98535 -0.000976562 22.1924 -0.000976562Z" fill="black"/>
<path fill-rule="evenodd" clip-rule="evenodd" d="M71.4593 40.6731C75.1446 43.6967 77 48.4114 77 54.8172V87H59.4376V57.1745C59.4376 55.8677 58.9547 54.7403 57.9889 53.7666C57.0231 52.7929 55.8794 52.3061 54.6086 52.3061H44.3914C43.0952 52.3061 42.0023 52.7929 41.0619 53.7666C40.1469 54.7403 39.6895 55.8934 39.6895 57.1745V87H22V13H39.6895V37.1115C39.969 37.009 40.6044 36.8296 41.6211 36.5478C42.6377 36.2659 43.9593 36.1378 45.6368 36.1378H56.9723C62.9196 36.1378 67.774 37.6496 71.4593 40.6731Z" fill="#1CE783"/>
</g>
<defs>
<clipPath id="clip0_224_417">
<rect width="100" height="100" fill="white"/>
</clipPath>
</defs>
</svg>
