<svg width="100" height="100" viewBox="0 0 100 100" fill="none" xmlns="http://www.w3.org/2000/svg">
<path d="M58.6931 11.1726C59.6986 10.6555 60.9148 10.7369 61.9347 11.1798C67.7139 13.4086 72.411 17.8017 75.947 22.8029C76.5982 23.7461 77.3212 24.6583 77.7234 25.7452C76.354 24.5697 75.2719 23.1189 73.9743 21.874C72.5211 20.4543 71.1517 18.9389 69.5429 17.6868C67.6947 16.1977 65.6646 14.9408 63.5291 13.909C62.5116 13.4326 61.5157 12.7216 60.3426 12.7694C57.9605 12.8987 55.8059 14 53.5723 14.7158C54.8531 13.04 56.7923 12.0009 58.6931 11.1726Z" fill="#A64824"/>
<path d="M23.0887 11.5723C25.0279 11.3831 26.912 11.9601 28.7937 12.3264C32.1262 13.1284 35.3486 14.3972 38.3388 16.0731C38.741 16.1569 39.1552 16.164 39.5645 16.1952C38.5399 16.5782 37.5176 16.006 36.548 15.7164C33.2634 14.6343 29.8232 14.0142 26.3686 13.8634C25.5761 13.8897 24.5802 13.7796 24.0224 14.4643C22.4304 16.346 21.2908 18.5557 20.3116 20.8037C18.7459 24.1554 17.5872 27.6746 16.4429 31.1843C16.7326 28.6011 17.118 26.0179 17.92 23.5377C18.9901 19.3002 20.97 15.3692 23.0887 11.5723Z" fill="#A64824"/>
<path d="M47.7095 21.4458C50.228 21.0963 52.7849 21.2806 55.3202 21.2926C61.1042 21.9198 66.8212 23.7633 71.6643 27.0359C76.4787 30.22 80.448 34.8477 82.3202 40.354C83.3975 43.3777 83.8787 46.6623 83.3472 49.8464C82.7032 53.1765 80.3116 55.9823 77.3382 57.5145C73.1319 59.7003 68.3366 60.2126 63.6945 60.7129C58.5833 61.0242 53.4839 61.5006 48.3798 61.9171C46.7734 61.9483 45.1766 62.123 43.5798 62.3026C41.6813 62.5875 39.7565 62.439 37.8437 62.4749C36.5365 62.4438 35.2198 62.5563 33.9198 62.384C31.6838 61.9914 29.3496 61.7831 27.3242 60.6698C24.5711 59.3507 22.4643 56.813 21.6551 53.8684C20.8651 51.5677 21.1021 49.1018 21.1189 46.7126C21.7174 41.0554 24.2335 35.6377 28.1071 31.4769C33.1609 25.9155 40.3119 22.4848 47.7095 21.4458ZM48.2817 22.7506C45.2915 23.0929 42.3684 23.9093 39.565 24.9938C35.0761 26.9378 30.9249 29.8178 27.8485 33.653C25.0571 37.043 23.1011 41.156 22.5074 45.5251C22.11 48.4554 21.9855 51.5581 23.0676 54.3663C23.9008 56.6502 25.7777 58.4793 27.997 59.4273C30.1923 60.3921 32.6151 60.5573 34.9708 60.7991C40.4053 61.0768 45.8254 60.3538 51.2359 59.9588C58.1164 59.3268 65.0759 59.231 71.8558 57.7778C73.9051 57.2942 75.9257 56.6048 77.75 55.5394C79.0188 54.7805 80.2326 53.8468 80.9915 52.5516C82.4255 50.2486 82.6266 47.4068 82.1742 44.7877C81.669 40.7035 79.7969 36.8778 77.2161 33.7057C74.7191 30.6533 71.547 28.1611 68.023 26.3991C63.8047 24.2014 59.1291 22.8415 54.3673 22.6261C52.342 22.3627 50.3023 22.5447 48.2817 22.7506Z" fill="#A64824"/>
<path d="M47.0654 31.0766C48.3079 30.9019 49.5815 31.0838 50.7714 31.4573C52.61 32.0271 54.3744 32.8219 56.0694 33.7292C58.6406 35.0172 61.1064 36.5997 63.072 38.7256C63.5843 39.2715 64.0415 39.9538 64.0463 40.7294C63.8309 41.8762 63.0576 42.8003 62.2963 43.6406C59.4043 46.6475 55.8419 48.9626 52.0211 50.6168C50.6325 51.1483 49.1721 51.7468 47.6543 51.5649C46.723 51.2991 46.1533 50.4301 45.7965 49.585C44.554 46.8319 44.4942 43.7507 44.3481 40.7845C44.3697 38.108 44.5205 35.3811 45.4135 32.8339C45.7104 32.0798 46.2562 31.3232 47.0654 31.0766Z" fill="#A64824"/>
<path d="M91.7741 51.3086C92.0279 52.3931 91.8124 53.5303 92.1212 54.6004C92.3271 57.4182 92.1212 60.2504 91.5227 63.0107C91.5706 62.6803 91.6161 62.3499 91.6592 62.0172C89.1718 58.8139 86.2319 55.9818 83.0454 53.4776C83.6846 53.31 84.3454 53.2286 85.0061 53.2717C87.3188 53.3842 89.629 53.6188 91.8986 54.0857C91.6352 53.1712 91.9034 52.2327 91.7741 51.3086Z" fill="#A64824"/>
<path d="M15.5453 58.6245C17.6066 58.0906 19.6894 57.5065 21.8345 57.4873C21.1498 58.409 20.3262 59.2134 19.5721 60.0753C17.2164 62.8284 15.203 65.8665 13.5678 69.1008C13.113 70.1015 12.6988 71.131 12.0381 72.0216C10.0103 69.0122 8.56669 65.6007 7.86523 62.0384C10.2689 60.59 12.8401 59.3858 15.5453 58.6245Z" fill="#A64824"/>
<path d="M76.7871 63.9707C80.6846 63.9827 84.2565 65.8931 87.3712 68.0765C88.075 68.529 88.5347 69.2544 89.2122 69.7451L89.2577 69.8744C87.3807 73.3817 84.8119 76.5131 81.6757 78.9646C81.9487 78.6989 82.2072 78.4188 82.4682 78.1434C81.5513 74.3034 80.6511 70.3915 78.7239 66.9058C78.1493 65.8811 77.4239 64.9547 76.7871 63.9707Z" fill="#A64824"/>
<path d="M69.7393 64.5337C70.2588 64.5193 70.8429 64.8305 70.886 65.4003C70.8765 66.3172 70.2468 67.1097 70.333 68.0386C70.3977 70.3895 69.8566 72.7548 68.8391 74.8688C68.6715 75.3955 68.0778 75.2255 67.6828 75.1225C65.7819 74.6102 64.051 73.5616 62.641 72.197C62.2603 71.8978 61.8485 71.3591 61.3051 71.577C56.7732 72.75 52.0665 72.8745 47.4148 72.8626C46.1652 74.6629 44.712 76.389 42.8039 77.5357C42.3682 77.7895 41.7146 78.3545 41.2957 77.7632C39.6964 75.7809 38.6431 73.394 38.0733 70.9186C37.8985 70.0208 37.0175 69.5277 36.644 68.7328C36.6464 68.0098 37.4006 67.5286 38.0709 67.6435C38.8083 68.0433 39.3828 68.7017 40.1609 69.0393C42.6818 70.0879 45.4134 70.6169 48.1426 70.6122C49.5838 70.7989 51.0418 70.7989 52.4854 70.6241C56.0956 70.5643 59.6939 69.9346 63.1413 68.8645C64.9656 68.2157 66.8281 67.4831 68.2837 66.1664C68.8391 65.6852 68.9445 64.7037 69.7393 64.5337ZM68.1353 68.8932C66.4882 69.9131 64.6615 70.5906 62.8301 71.1987C64.2928 72.6351 66.074 73.8274 68.1161 74.22C68.9876 72.3311 69.452 70.2459 69.4544 68.1654C68.9995 68.3785 68.5614 68.6275 68.1353 68.8932ZM39.062 70.9018C39.3397 73.1355 40.5703 75.0699 41.7194 76.9468C42.4831 76.7768 43.0625 76.2358 43.6706 75.7833C44.7239 74.931 45.7199 73.9399 46.2609 72.6734C44.8915 72.5058 43.5341 72.2425 42.1863 71.9576C41.1089 71.7134 40.113 71.225 39.062 70.9018Z" fill="#A64824"/>
<path d="M20.7956 72.5674C23.5344 69.7592 26.9914 67.4801 30.8937 66.7451C30.5298 67.9302 29.8834 68.9931 29.4381 70.1447C27.7839 74.5569 27.578 79.321 27.4319 83.9798C24.2622 82.7804 21.375 80.961 18.6554 78.9643C18.0616 78.5214 17.4919 78.0474 16.9819 77.5087C18.1263 75.7707 19.2994 74.0278 20.7956 72.5674Z" fill="#A64824"/>
<path d="M53.5717 14.7162C55.8054 14.0004 57.96 12.8992 60.3421 12.7699C61.5152 12.722 62.5111 13.433 63.5285 13.9094C65.664 14.9413 67.6942 16.1981 69.5424 17.6872C71.1512 18.9393 72.5206 20.4548 73.9738 21.8744C75.2713 23.1193 76.3534 24.5701 77.7228 25.7456C78.9749 27.1964 80.3156 28.5682 81.6203 29.9687C83.0089 31.7307 84.419 33.4808 85.628 35.3744C88.6636 40.2248 90.8877 45.6401 91.7735 51.3092C91.9027 52.2333 91.6346 53.1718 91.8979 54.0863C89.6284 53.6195 87.3181 53.3848 85.0055 53.2723C84.3447 53.2292 83.684 53.3106 83.0448 53.4782C86.2312 55.9824 89.1711 58.8145 91.6585 62.0178C91.6154 62.3505 91.57 62.6809 91.5221 63.0113C91.1103 65.3503 90.3897 67.6773 89.2118 69.7457C88.5343 69.255 88.0747 68.5296 87.3708 68.0771C84.2562 65.8937 80.6842 63.9833 76.7868 63.9713C77.4236 64.9553 78.149 65.8818 78.7235 66.9064C80.6507 70.3921 81.5509 74.304 82.4678 78.1441C82.2069 78.4194 81.9483 78.6995 81.6754 78.9652C78.7379 81.3545 75.3264 83.0902 71.8191 84.4811C66.1357 86.8225 59.9758 87.7777 53.8614 88.0051C50.9311 88.3738 47.9744 88.1703 45.0417 87.9333C39.004 87.6149 33.0045 86.3484 27.4312 83.9807C27.5772 79.3219 27.7831 74.5578 29.4374 70.1456C29.8827 68.994 30.5291 67.9311 30.893 66.746C26.9907 67.481 23.5337 69.7601 20.7949 72.5683C19.2986 74.0287 18.1255 75.7716 16.9812 77.5096C15.0995 75.908 13.5194 73.9904 12.0375 72.0225C12.6982 71.1319 13.1124 70.1025 13.5673 69.1017C15.2024 65.8674 17.2158 62.8293 19.5715 60.0762C20.3256 59.2143 21.1492 58.4099 21.8339 57.4882C19.6888 57.5074 17.606 58.0915 15.5447 58.6254C12.8395 59.3867 10.2683 60.5909 7.86466 62.0393C7.48161 59.5854 7.10096 57.1076 7.22066 54.6178C7.41697 51.8981 7.75214 49.1785 8.46556 46.5427C8.99464 44.6059 9.48303 42.6332 10.4359 40.852C11.3504 38.8913 12.2769 36.9186 13.517 35.1374C14.4004 33.7561 15.2766 32.3508 16.4425 31.1849C17.5869 27.6752 18.7456 24.156 20.3113 20.8043C21.2904 18.5563 22.43 16.3466 24.0221 14.4649C24.5799 13.7802 25.5758 13.8903 26.3682 13.864C29.8228 14.0148 33.2631 14.6348 36.5477 15.7169C37.5173 16.0066 38.5395 16.5788 39.5642 16.1958C43.658 15.0418 47.9673 14.7761 52.1975 15.0131C52.674 15.0394 53.1288 14.8742 53.5717 14.7162ZM47.7087 21.4459C40.3111 22.4849 33.1601 25.9156 28.1063 31.4769C24.2327 35.6378 21.7166 41.0555 21.1181 46.7126C21.1013 49.1019 20.8643 51.5678 21.6543 53.8684C22.4635 56.8131 24.5703 59.3508 27.3234 60.6699C29.3488 61.7831 31.683 61.9914 33.919 62.3841C35.219 62.5564 36.5357 62.4439 37.8429 62.475C39.7557 62.4391 41.6805 62.5876 43.579 62.3027C45.1758 62.1231 46.7726 61.9483 48.379 61.9172C53.4831 61.5007 58.5825 61.0242 63.6937 60.713C68.3358 60.2127 73.131 59.7003 77.3374 57.5146C80.3108 55.9824 82.7024 53.1766 83.3464 49.8464C83.8779 46.6624 83.3967 43.3777 82.3194 40.3541C80.4472 34.8478 76.4779 30.2201 71.6635 27.036C66.8204 23.7633 61.1034 21.9199 55.3194 21.2927C52.7841 21.2807 50.2272 21.0964 47.7087 21.4459ZM69.7387 64.5339C68.9439 64.7039 68.8385 65.6854 68.2831 66.1666C66.8275 67.4834 64.965 68.216 63.1407 68.8647C59.6933 69.9349 56.095 70.5645 52.4848 70.6244C51.0412 70.7991 49.5832 70.7991 48.142 70.6124C45.4128 70.6172 42.6812 70.0881 40.1603 69.0395C39.3822 68.7019 38.8077 68.0436 38.0703 67.6438C37.4 67.5289 36.6458 68.0101 36.6434 68.7331C37.0169 69.5279 37.8979 70.0211 38.0727 70.9188C38.6425 73.3943 39.6959 75.7811 41.2951 77.7634C41.714 78.3547 42.3676 77.7897 42.8033 77.536C44.7114 76.3892 46.1646 74.6631 47.4142 72.8628C52.0659 72.8748 56.7726 72.7503 61.3045 71.5772C61.8479 71.3593 62.2597 71.898 62.6404 72.1972C64.0504 73.5618 65.7813 74.6104 67.6822 75.1228C68.0772 75.2257 68.6709 75.3957 68.8385 74.869C69.856 72.7551 70.3971 70.3897 70.3324 68.0388C70.2462 67.1099 70.8759 66.3175 70.8854 65.4006C70.8423 64.8308 70.2582 64.5195 69.7387 64.5339Z" fill="#F49F10"/>
<path d="M48.2811 22.7506C50.3017 22.5447 52.3414 22.3627 54.3668 22.6261C59.1285 22.8415 63.8041 24.2014 68.0224 26.3991C71.5464 28.1611 74.7186 30.6533 77.2155 33.7057C79.7963 36.8778 81.6685 40.7035 82.1736 44.7877C82.6261 47.4068 82.425 50.2486 80.9909 52.5516C80.232 53.8468 79.0183 54.7805 77.7494 55.5394C75.9251 56.6048 73.9046 57.2942 71.8553 57.7778C65.0753 59.231 58.1159 59.3268 51.2354 59.9588C45.8248 60.3538 40.4047 61.0768 34.9703 60.7991C32.6145 60.5573 30.1918 60.3921 27.9964 59.4273C25.7771 58.4793 23.9002 56.6502 23.0671 54.3663C21.985 51.5581 22.1095 48.4554 22.5069 45.5251C23.1006 41.156 25.0565 37.043 27.848 33.653C30.9243 29.8178 35.0756 26.9378 39.5644 24.9938C42.3679 23.9093 45.291 23.0929 48.2811 22.7506ZM47.065 31.0771C46.2558 31.3236 45.7099 32.0802 45.4131 32.8343C44.5201 35.3815 44.3693 38.1084 44.3477 40.7849C44.4938 43.7511 44.5536 46.8323 45.7961 49.5854C46.1528 50.4305 46.7226 51.2995 47.6539 51.5653C49.1717 51.7472 50.6321 51.1487 52.0206 50.6172C55.8415 48.963 59.4039 46.6479 62.2959 43.641C63.0572 42.8007 63.8304 41.8766 64.0459 40.7298C64.0411 39.9542 63.5839 39.2719 63.0715 38.726C61.106 36.6001 58.6402 35.0177 56.069 33.7297C54.374 32.8223 52.6096 32.0275 50.7709 31.4577C49.5811 31.0842 48.3075 30.9023 47.065 31.0771Z" fill="white"/>
<path d="M68.1348 68.8938C68.5609 68.6281 68.999 68.3791 69.4539 68.166C69.4515 70.2464 68.9871 72.3317 68.1156 74.2206C66.0735 73.8279 64.2924 72.6357 62.8296 71.1993C64.661 70.5912 66.4877 69.9137 68.1348 68.8938Z" fill="white"/>
<path d="M39.0615 70.9023C40.1125 71.2255 41.1084 71.7139 42.1858 71.9581C43.5336 72.243 44.891 72.5064 46.2604 72.6739C45.7194 73.9404 44.7234 74.9315 43.6701 75.7838C43.062 76.2363 42.4826 76.7773 41.7189 76.9473C40.5698 75.0704 39.3392 73.136 39.0615 70.9023Z" fill="white"/>
</svg>
