<svg width="100" height="100" viewBox="0 0 100 100" fill="none" xmlns="http://www.w3.org/2000/svg">
<path d="M13.3963 22.977C10.2279 24.9824 8.2192 28.3911 8 32.1344V67.4557C8.2192 71.199 10.2279 74.6077 13.3963 76.6131L45.0873 94.3391C48.4915 96.0071 52.4758 96.0071 55.88 94.3391L87.6037 76.6131C90.7721 74.6077 92.7808 71.199 93 67.4557V32.1344C92.7808 28.3911 90.7721 24.9824 87.6037 22.977L55.9127 5.25099C52.5085 3.583 48.5242 3.583 45.12 5.25099L13.3963 22.977Z" fill="#14BF96"/>
<path d="M83.0578 41.0303C65.4625 41.0303 52.3152 55.6167 52.3152 73.5062V74.2584H48.783V73.5062C48.783 55.6167 35.7011 41.0957 17.9746 41.0303C17.9746 42.1422 17.9746 43.2869 17.9746 44.3008C17.9035 57.8347 26.2493 69.9883 38.9062 74.7817C42.6673 76.1608 46.6412 76.8693 50.6472 76.8748C54.6852 76.8693 58.6913 76.161 62.4864 74.7817C75.1243 69.9698 83.452 57.8236 83.3852 44.3008C83.2213 43.2542 83.1559 42.1422 83.0578 41.0303Z" fill="white"/>
<path d="M50.5165 42.4042C55.9353 42.4042 60.328 38.0114 60.328 32.5927C60.328 27.174 55.9353 22.7812 50.5165 22.7812C45.0978 22.7812 40.7051 27.174 40.7051 32.5927C40.7051 38.0114 45.0978 42.4042 50.5165 42.4042Z" fill="white"/>
</svg>
