<svg width="100" height="100" viewBox="0 0 100 100" fill="none" xmlns="http://www.w3.org/2000/svg">
<path fill-rule="evenodd" clip-rule="evenodd" d="M93.75 18.75C93.75 11.8438 88.1562 6.25 81.25 6.25H18.75C11.8438 6.25 6.25 11.8438 6.25 18.75V81.25C6.25 88.1562 11.8438 93.75 18.75 93.75H81.25C88.1562 93.75 93.75 88.1562 93.75 81.25V18.75Z" fill="#FF3E13"/>
<path fill-rule="evenodd" clip-rule="evenodd" d="M39.0469 58.2031L31.0625 53.6875C28.8281 52.4219 26.1094 52.4531 23.8906 53.7344C21.6875 55.0312 20.3281 57.3906 20.3281 59.9531V74.125C20.3281 76.6875 21.6875 79.0469 23.8906 80.3437C26.1094 81.6406 28.8281 81.6562 31.0625 80.3906L39.0469 75.875C39.625 77.4062 40.5312 78.8281 41.7188 80.0156C43.9219 82.2187 46.9062 83.4531 50 83.4531H67.1875C70.2969 83.4531 73.2812 82.2187 75.4688 80.0156C77.6719 77.8125 78.9062 74.8281 78.9062 71.7344V62.3594C78.9062 59.25 77.6719 56.2656 75.4688 54.0781C73.2656 51.875 70.2812 50.6406 67.1875 50.6406H50C46.8906 50.6406 43.9062 51.875 41.7188 54.0781C40.5312 55.2656 39.625 56.6719 39.0469 58.2187V58.2031ZM44.5312 71.7187V62.3438C44.5312 60.8906 45.1094 59.5 46.1406 58.4687C47.1719 57.4375 48.5625 56.8594 50 56.8594H67.1875C68.6406 56.8594 70.0312 57.4375 71.0469 58.4687C72.0781 59.5 72.6562 60.8906 72.6562 62.3438V71.7187C72.6562 73.1719 72.0781 74.5625 71.0469 75.5781C70.0156 76.6094 68.625 77.1875 67.1875 77.1875H50C48.5469 77.1875 47.1562 76.6094 46.1406 75.5781C45.1094 74.5469 44.5312 73.1562 44.5312 71.7187ZM38.2812 64.9531L27.9687 59.125C27.6719 58.9531 27.3125 58.9687 27.0312 59.125C26.7344 59.2969 26.5625 59.6094 26.5625 59.9375V74.1094C26.5625 74.4531 26.7344 74.7656 27.0312 74.9219C27.3281 75.0938 27.6875 75.0938 27.9687 74.9219L38.2812 69.0937V64.9219V64.9531ZM54.9062 42.5781C57.3906 46.0312 61.4375 48.2812 66.0156 48.2812C73.5625 48.2812 79.6875 42.1562 79.6875 34.6094C79.6875 27.0625 73.5625 20.9375 66.0156 20.9375C62.375 20.9375 59.0469 22.375 56.5938 24.7031C53.875 19.8281 48.6875 16.5312 42.7188 16.5312C33.9531 16.5312 26.8438 23.6406 26.8438 32.4062C26.8438 41.1719 33.9531 48.2812 42.7188 48.2812C47.6094 48.2812 51.9844 46.0625 54.9062 42.5781ZM42.7188 22.7969C48.0312 22.7969 52.3438 27.1094 52.3438 32.4219C52.3438 37.7344 48.0312 42.0469 42.7188 42.0469C37.4062 42.0469 33.0938 37.7344 33.0938 32.4219C33.0938 27.1094 37.4062 22.7969 42.7188 22.7969ZM66.0156 27.2031C70.1094 27.2031 73.4375 30.5312 73.4375 34.625C73.4375 38.7187 70.1094 42.0469 66.0156 42.0469C61.9219 42.0469 58.5938 38.7187 58.5938 34.625C58.5938 30.5312 61.9219 27.2031 66.0156 27.2031Z" fill="white"/>
</svg>
