<svg width="100" height="100" viewBox="0 0 100 100" fill="none" xmlns="http://www.w3.org/2000/svg">
<g clip-path="url(#clip0_224_1149)">
<path fill-rule="evenodd" clip-rule="evenodd" d="M0 50C0 22.3858 22.3858 0 50 0C77.6142 0 100 22.3858 100 50C100 77.6142 77.6142 100 50 100C22.3858 100 0 77.6142 0 50Z" fill="black"/>
<path d="M21.691 22.0108C29.1709 15.9599 40.6028 15.0891 48.3953 21.0507C38.236 32.17 27.4739 42.7312 16.5109 53.0467C10.259 43.1331 12.5812 29.3121 21.691 22.0108Z" fill="#FE2360"/>
<path d="M50.8299 22.2121C59.4931 14.3303 72.9123 16.1612 81.4192 23.3285C65.5663 40.2977 49.2892 56.9991 32.2976 72.8073C26.9389 67.4262 21.7812 61.7996 18.0747 55.1458C29.0154 44.2051 39.9115 33.1751 50.8299 22.2121Z" fill="#FE2360"/>
<path d="M34.7305 74.5712C50.7396 58.1824 66.5479 41.5257 83.0259 25.6729C88.8535 33.1974 89.6573 43.9818 84.9238 52.2432C77.2206 65.5507 65.9227 77.3622 51.6104 83.3907C45.0237 83.6363 40.0445 77.7864 34.7305 74.5712Z" fill="#FE2360"/>
</g>
<defs>
<clipPath id="clip0_224_1149">
<rect width="100" height="100" fill="white"/>
</clipPath>
</defs>
</svg>
