<svg width="100" height="100" viewBox="0 0 100 100" fill="none" xmlns="http://www.w3.org/2000/svg">
<g clip-path="url(#clip0_224_1078)">
<path fill-rule="evenodd" clip-rule="evenodd" d="M0 50C0 22.3858 22.3858 0 50 0C77.6142 0 100 22.3858 100 50C100 77.6142 77.6142 100 50 100C22.3858 100 0 77.6142 0 50Z" fill="#0077B5"/>
<path fill-rule="evenodd" clip-rule="evenodd" d="M36.0809 30.8806C36.0074 27.5425 33.6203 25 29.744 25C25.8677 25 23.3335 27.5425 23.3335 30.8806C23.3335 34.1496 25.7928 36.7653 29.5969 36.7653H29.6693C33.6203 36.7653 36.0809 34.1496 36.0809 30.8806ZM35.3352 41.4128H24.0041V75.458H35.3352V41.4128ZM63.1525 40.612C70.6089 40.612 76.1989 45.4789 76.1989 55.9362L76.1984 75.4567H64.8678V57.2424C64.8678 52.6674 63.2281 49.5456 59.1262 49.5456C55.9957 49.5456 54.1311 51.6501 53.3122 53.6829C53.0126 54.4114 52.9391 55.4264 52.9391 56.4439V75.4576H41.6066C41.6066 75.4576 41.756 44.607 41.6066 41.4123H52.9391V46.2346C54.443 43.9164 57.1365 40.612 63.1525 40.612Z" fill="white"/>
</g>
<defs>
<clipPath id="clip0_224_1078">
<rect width="100" height="100" fill="white"/>
</clipPath>
</defs>
</svg>
