<svg width="100" height="100" viewBox="0 0 100 100" fill="none" xmlns="http://www.w3.org/2000/svg">
<path d="M76.75 12H24.25C18.0368 12 13 17.0368 13 23.25V75.75C13 81.9632 18.0368 87 24.25 87H76.75C82.9632 87 88 81.9632 88 75.75V23.25C88 17.0368 82.9632 12 76.75 12Z" fill="#1EB8EB"/>
<path d="M74.2305 39.0997C71.4473 55.0665 55.4805 68.6895 50.6465 71.7657C45.959 74.8419 41.5645 70.4473 39.9531 67.3711C38.1953 63.5626 32.7754 43.3477 31.3105 41.5899C29.9922 39.8321 25.5977 43.3477 25.5977 43.3477L23.6934 40.5645C23.6934 40.5645 32.3359 30.1641 38.9277 28.9922C45.8125 27.5274 45.8125 39.6856 47.5703 46.2774C49.1816 52.8692 50.207 56.5313 51.5254 56.5313C52.9902 56.5313 55.7734 53.0157 58.7031 47.3028C61.7793 41.8829 58.5566 36.9024 52.6973 40.418C55.1875 26.502 77.0137 23.1329 74.2305 39.0997Z" fill="white"/>
</svg>
