<svg width="100" height="100" viewBox="0 0 100 100" fill="none" xmlns="http://www.w3.org/2000/svg">
<path d="M57.8649 0.293945L57.8256 22.2959L57.7863 44.2978L55.979 39.1902V39.1771L53.6348 88.1577C55.9397 94.6535 57.1708 98.124 57.1839 98.1371C57.197 98.1502 58.5066 98.2288 60.0913 98.3074C64.8846 98.5431 70.8303 99.0539 75.3486 99.617C76.3963 99.748 77.2869 99.8135 77.3523 99.7611C77.4178 99.7087 77.4309 77.3138 77.4178 49.9817L77.3785 0.293945H57.8649Z" fill="#B1060F" stroke="black" stroke-width="0.130964"/>
<path d="M22.5703 0.227941V49.9681C22.5703 77.3264 22.5965 99.7344 22.6358 99.7736C22.6751 99.8129 24.3645 99.6427 26.4076 99.4201C28.4506 99.1974 31.2663 98.9093 32.6676 98.7914C34.8154 98.6081 41.2589 98.2021 41.9923 98.189C42.2149 98.189 42.228 97.0758 42.2542 77.1169L42.2935 56.0448L43.852 60.4452C44.0877 61.1262 44.1663 61.3357 44.402 62.0036L46.7463 13.0362C46.2486 11.6349 46.5105 12.3683 45.9474 10.7705C44.0353 5.36173 42.4114 0.791084 42.3459 0.581541L42.2149 0.214844H22.5703V0.227941Z" fill="#B1060F" stroke="black" stroke-width="0.130964"/>
<path d="M57.8649 0.293945L57.8256 22.2959L57.7863 44.2978L55.979 39.1902V39.1771L53.6348 88.1577C55.9397 94.6535 57.1708 98.124 57.1839 98.1371C57.197 98.1502 58.5066 98.2288 60.0913 98.3074C64.8846 98.5431 70.8303 99.0539 75.3486 99.617C76.3963 99.748 77.2869 99.8134 77.3523 99.7611C77.4178 99.7087 77.4309 77.3138 77.4178 49.9817L77.3785 0.293945H57.8649Z" fill="#B1060F" stroke="black" stroke-width="0.130964"/>
<path d="M22.5703 0.227941V49.9681C22.5703 77.3264 22.5965 99.7344 22.6358 99.7736C22.6751 99.8129 24.3645 99.6427 26.4076 99.4201C28.4506 99.1974 31.2663 98.9093 32.6676 98.7914C34.8154 98.6081 41.2589 98.2021 41.9923 98.189C42.2149 98.189 42.228 97.0758 42.2542 77.1169L42.2935 56.0448L43.852 60.4452C44.0877 61.1262 44.1663 61.3357 44.402 62.0036L46.7463 13.0362C46.2486 11.6349 46.5105 12.3683 45.9474 10.7705C44.0353 5.36173 42.4114 0.791084 42.3459 0.581541L42.2149 0.214844H22.5703V0.227941Z" fill="#B1060F" stroke="black" stroke-width="0.130964"/>
<path d="M22.5703 0.227941V28.1495L42.2411 80.3255C42.2411 79.1337 42.2411 78.4789 42.2542 77.1169L42.2935 56.0448L43.852 60.4452C52.4956 84.9616 57.1448 98.1104 57.171 98.1366C57.1841 98.1497 58.4937 98.2283 60.0784 98.3069C64.8717 98.5426 70.8174 99.0534 75.3357 99.6165C76.3834 99.7475 77.274 99.813 77.3394 99.7606C77.3787 99.7213 77.4049 88.7465 77.4049 73.2535L57.8389 16.9651L57.8258 22.2954L57.7865 44.2973L55.9792 39.1897C54.2112 34.2 53.0325 30.8604 45.9212 10.7705C44.0091 5.36173 42.3852 0.791084 42.3197 0.581541L42.1887 0.214844H22.5703V0.227941Z" fill="url(#paint0_radial_224_407)"/>
<path d="M22.5703 0.227941C31.4224 25.302 57.171 98.1366 57.171 98.1366C57.171 98.1366 58.4937 98.2283 60.0784 98.3069C64.8717 98.5426 70.8174 99.0534 75.3357 99.6165C76.3703 99.7475 77.274 99.813 77.3263 99.7606C65.6302 66.5735 54.0237 33.3527 42.1887 0.214844H32.3795L22.5703 0.227941Z" fill="#E50914"/>
<defs>
<radialGradient id="paint0_radial_224_407" cx="0" cy="0" r="1" gradientUnits="userSpaceOnUse" gradientTransform="translate(49.0696 49.4194) rotate(-19.1007) scale(3.61394 132.383)">
<stop/>
<stop offset="1" stop-opacity="0"/>
</radialGradient>
</defs>
</svg>
