<svg width="100" height="100" viewBox="0 0 100 100" fill="none" xmlns="http://www.w3.org/2000/svg">
<path d="M50.5 87C29.7893 87 13 70.2107 13 49.5C13 28.7893 29.7893 12 50.5 12C71.2107 12 88 28.7893 88 49.5C88 70.2107 71.2107 87 50.5 87Z" fill="url(#paint0_linear_224_607)"/>
<path d="M47.3803 36.0424C41.7575 38.1585 39.0445 35.3799 38.7144 30.2862C38.3164 24.5323 43.6747 23.0763 43.6747 23.0763C49.6299 21.0912 51.217 23.9354 52.6052 28.17C53.9956 32.4023 52.9376 33.9262 47.3803 36.0424ZM75.0659 72.0076C74.1998 68.1967 73.0363 64.9031 71.1075 59.91C69.7872 56.4946 65.3746 52.3162 62.5305 50.1977C61.4724 49.4041 61.4045 47.9481 62.3315 47.0234C65.1101 44.3783 70.0704 39.2166 71.6599 36.5059C72.7063 34.5934 74.7639 30.9697 74.8552 27.8283C75.0612 25.4944 74.7405 22.7907 71.6459 21.5524C68.8391 20.4264 66.9711 22.1516 66.9711 22.1516C65.0259 23.507 64.3891 27.1962 63.0033 30.8737C61.4069 35.1131 58.8904 35.6444 57.5678 35.6444C56.3108 35.6444 57.109 34.2446 54.0659 25.4476C51.0227 16.6482 42.9467 18.247 36.8604 21.8848C29.1215 26.515 32.5602 36.3725 34.4797 42.7233C33.4217 43.7813 29.3205 44.5772 25.6172 46.56C23.3114 47.7959 21.3427 48.5965 19.4232 50.1392C16.7476 52.2904 15.5912 54.7202 16.5135 58.0303C16.7172 58.7536 17.4335 59.9427 18.8591 60.7035C21.0431 61.6961 24.2642 60.2541 29.1894 56.5485C32.7592 54.1023 36.9938 52.9108 36.9938 52.9108C36.9938 52.9108 39.9714 57.4755 42.7501 62.8993C45.5263 68.3254 39.7725 70.1115 39.1779 70.1115C38.5154 70.1115 29.5194 69.2524 31.57 76.9235C33.5551 84.5313 44.6017 81.8206 50.2245 78.115C55.8473 74.4117 54.4591 62.3047 54.4591 62.3047C59.9508 61.4456 61.669 67.265 62.1981 70.2426C62.7271 73.2202 61.5356 78.3795 67.0928 78.5129C67.8887 78.5129 68.6823 78.3795 69.4103 78.1805C72.402 77.4876 74.1389 75.9824 74.8505 74.3743C75.1782 73.6322 75.2461 72.7988 75.0659 72.0076ZM49.96 25.7215C49.6299 25.0613 49.3654 24.7945 49.2975 24.7289C49.0353 24.4644 48.5718 24.4644 48.3073 24.7289C48.0428 24.9935 48.0428 25.4569 48.3073 25.7215C48.3073 25.7215 48.4384 25.8526 48.7029 26.3839C48.8363 26.6484 49.1009 26.7795 49.3654 26.7795C49.4309 26.7795 49.5644 26.7795 49.6954 26.714C50.0255 26.515 50.1589 26.0515 49.96 25.7215ZM50.2924 28.568C49.8944 28.6991 49.761 29.0947 49.8944 29.4926C50.2245 30.2862 50.2245 30.6841 50.0934 31.4777C50.0255 31.8733 50.2924 32.2712 50.688 32.3368H50.8191C51.1515 32.3368 51.4815 32.0723 51.4815 31.7422C51.7461 30.6841 51.615 29.9561 51.217 28.9636C51.0859 28.568 50.688 28.4345 50.2924 28.568Z" fill="white"/>
<defs>
<linearGradient id="paint0_linear_224_607" x1="40.0328" y1="13.349" x2="71.1141" y2="120.888" gradientUnits="userSpaceOnUse">
<stop stop-color="#EF1970"/>
<stop offset="0.14" stop-color="#F23B5C"/>
<stop offset="0.45" stop-color="#F77D35"/>
<stop offset="0.7" stop-color="#FCAD18"/>
<stop offset="0.89" stop-color="#FECB07"/>
<stop offset="1" stop-color="#FFD600"/>
</linearGradient>
</defs>
</svg>
