<svg width="100" height="100" viewBox="0 0 100 100" fill="none" xmlns="http://www.w3.org/2000/svg">
<rect x="8" y="8" width="84" height="84" rx="11" fill="black"/>
<path d="M69.4035 16.7269C71.4833 15.7625 74.1106 16.9085 74.9728 18.9935C75.9398 21.0605 74.8346 23.7953 72.6883 24.5858C70.7338 25.4581 68.2293 24.5551 67.2828 22.6364C66.0676 20.5361 67.16 17.6018 69.4035 16.7269Z" fill="#FED811"/>
<path d="M32.8729 23.6598C35.9223 21.5109 39.6804 20.3674 43.4128 20.4927C47.9025 20.5823 52.2898 22.5495 55.4339 25.7371C58.2044 28.5716 60.0131 32.345 60.4096 36.2949C60.7985 40.1859 59.8878 44.2202 57.7491 47.5024C56.1374 50.0069 53.8631 52.0689 51.2538 53.4887C49.596 54.4122 47.7822 54.9878 46.035 55.7041C42.9395 56.9474 39.8108 58.1011 36.7307 59.3777C35.7714 58.2751 34.7174 57.2621 33.7325 56.185C33.7478 63.6704 33.7351 71.1558 33.7402 78.6411C30.9364 78.6769 28.13 78.6411 25.3262 78.6616C25.3415 65.7963 25.3287 52.931 25.3313 40.0657C25.3415 38.6254 25.2827 37.1774 25.4925 35.7474C26.1243 30.9303 28.854 26.4048 32.8729 23.6598ZM39.0715 29.3007C36.6156 30.4263 34.7507 32.7108 34.0625 35.3151C33.6813 36.5174 33.7427 37.794 33.7376 39.0424C33.7376 43.3479 33.7478 47.6534 33.7299 51.9588C37.1221 50.6362 40.5067 49.2932 43.9014 47.9783C45.6078 47.285 47.442 46.7452 48.8337 45.4789C52.0084 42.8593 52.8833 38.1265 51.4507 34.366C50.6577 32.2759 49.0972 30.4672 47.0915 29.4644C44.6356 28.1725 41.5734 28.106 39.0715 29.3007Z" fill="white"/>
<path d="M69.8641 28.1577C72.4249 27.2853 75.3183 29.4726 75.3106 32.1434C75.5178 34.7476 72.824 37.0091 70.299 36.4591C68.3829 36.1342 66.7661 34.3639 66.8045 32.3915C66.6587 30.4831 68.0427 28.6565 69.8641 28.1577Z" fill="#F07122"/>
<path d="M69.8726 39.7307C71.1287 39.5235 72.5357 39.5618 73.5922 40.36C75.0888 41.5137 75.7693 43.7164 74.9686 45.4688C74.2113 47.9502 70.8498 48.8865 68.7751 47.4591C67.8951 46.8195 67.1302 45.9267 66.8615 44.8548C66.7694 43.8443 66.6901 42.734 67.2325 41.8259C67.7902 40.8179 68.7521 40.0249 69.8726 39.7307Z" fill="#E91942"/>
<path d="M70.3968 51.2425C72.7555 50.7795 75.196 52.7953 75.3035 55.1668C75.4493 56.9908 74.2904 58.8685 72.538 59.4569C70.3277 60.3191 67.5239 58.999 66.9688 56.648C66.2064 54.2791 67.923 51.5469 70.3968 51.2425Z" fill="#605FA7"/>
<path d="M69.3426 63.1635C70.1996 62.8002 71.1666 62.8565 72.0747 62.9537C74.0804 63.3221 75.4746 65.448 75.3083 67.428C75.2009 70.0502 72.1668 72.1172 69.7033 71.117C68.0353 70.5874 66.7511 68.9502 66.792 67.1773C66.7101 65.4863 67.7769 63.8056 69.3426 63.1635Z" fill="#029CD8"/>
<path d="M70.1179 74.4993C71.1003 74.3662 72.1798 74.356 73.0573 74.8932C74.4132 75.6428 75.3341 77.1419 75.3239 78.6999C75.4006 80.9639 73.3029 83.0079 71.0491 82.9312C69.2123 82.99 67.4804 81.6776 66.9713 79.9253C66.2575 77.6715 67.7362 74.9086 70.1179 74.4993Z" fill="#0EA94B"/>
</svg>
