<svg width="100" height="100" viewBox="0 0 100 100" fill="none" xmlns="http://www.w3.org/2000/svg">
<path d="M47.5626 36.4164C46.8674 36.8588 46.6146 37.7436 46.9938 38.4387C47.373 39.1339 48.2577 39.4499 48.9529 39.0707C49.7113 38.6283 49.964 37.7436 49.5849 37.0484C49.3321 36.5428 48.8265 36.29 48.2577 36.29C48.0471 36.29 47.8153 36.3322 47.5626 36.4164ZM51.544 36.4796C50.912 36.8588 50.6592 37.6172 50.9752 38.2491C51.3544 38.8811 52.1127 39.1339 52.7447 38.8179C53.4399 38.4387 53.6295 37.6804 53.3135 37.0484C53.0607 36.606 52.6183 36.3532 52.1759 36.3532C51.9653 36.3532 51.7546 36.3954 51.544 36.4796ZM43.8339 37.554C43.0124 37.9964 42.6964 39.0075 43.1388 39.8291C43.5811 40.6506 44.5923 40.9666 45.4139 40.5242C46.2354 40.0819 46.5514 39.0707 46.109 38.2491C45.793 37.6804 45.2243 37.3644 44.5923 37.3644C44.3395 37.3644 44.0867 37.4276 43.8339 37.554ZM55.3358 37.7436C54.767 38.0596 54.5774 38.7547 54.8302 39.3235C55.1462 39.8923 55.8414 40.0819 56.4101 39.7659C56.9789 39.4499 57.1685 38.7547 56.8525 38.1859C56.6629 37.8068 56.2837 37.6172 55.8414 37.6172C55.6728 37.6172 55.5043 37.6593 55.3358 37.7436ZM40.8637 40.0819C40.1053 40.461 39.8525 41.3458 40.2317 42.1042C40.6109 42.7993 41.4956 43.0521 42.254 42.6729C42.9492 42.2938 43.202 41.409 42.8228 40.6506C42.57 40.2083 42.0644 39.8923 41.5588 39.8923C41.306 39.8923 41.0743 39.9555 40.8637 40.0819ZM58.5588 40.0819C58.1165 40.3346 57.9269 40.9666 58.1797 41.409C58.4324 41.9146 59.0012 42.1042 59.5068 41.8514C60.0124 41.5354 60.202 40.9666 59.9492 40.461C59.7596 40.1451 59.3804 39.9555 59.0644 39.9555C58.8959 39.9555 58.7274 39.9976 58.5588 40.0819ZM61.0235 43.3049C60.6443 43.5577 60.4547 44.0633 60.7075 44.4425C60.8971 44.8216 61.4027 44.948 61.7819 44.7584C62.1611 44.5689 62.3507 44.0633 62.0979 43.6841C61.9715 43.3681 61.6555 43.2417 61.4027 43.2417C61.2763 43.2417 61.1499 43.2628 61.0235 43.3049ZM38.715 43.4313C38.083 43.7473 37.8302 44.5689 38.2094 45.2008C38.5254 45.8328 39.3469 46.0856 39.9789 45.7064C40.6109 45.3904 40.8637 44.5689 40.4845 43.9369C40.2317 43.4945 39.7893 43.2417 39.3469 43.2417C39.1363 43.2417 38.9256 43.3049 38.715 43.4313ZM62.2243 46.8439C61.7187 47.0967 61.5923 47.6655 61.8451 48.1711C62.0979 48.6135 62.6666 48.8031 63.1722 48.5503C63.6146 48.2975 63.8042 47.6655 63.5514 47.2231C63.3618 46.9071 63.0458 46.7175 62.6666 46.7175C62.5402 46.7175 62.3928 46.7597 62.2243 46.8439ZM37.7038 47.2863C37.135 47.6023 36.9454 48.2975 37.1982 48.8031C37.5142 49.3718 38.2094 49.5614 38.7782 49.3086C39.3469 48.9926 39.5365 48.2975 39.2205 47.7287C39.031 47.3495 38.6518 47.1599 38.2094 47.1599C38.0409 47.1599 37.8723 47.2021 37.7038 47.2863ZM62.2243 50.5726C61.6555 50.8886 61.4659 51.5837 61.7819 52.0893C62.0347 52.6581 62.793 52.8477 63.2986 52.5949C63.8674 52.2789 64.057 51.5837 63.8042 51.0149C63.5514 50.6358 63.1722 50.4462 62.793 50.4462C62.5824 50.4462 62.3928 50.4883 62.2243 50.5726ZM37.8302 51.2677C37.3878 51.5205 37.1982 52.1525 37.451 52.5949C37.7038 53.1005 38.3358 53.29 38.7782 53.0373C39.2837 52.7845 39.4733 52.1525 39.1573 51.7101C38.9678 51.3309 38.6518 51.1413 38.3358 51.1413C38.1673 51.1413 37.9987 51.1835 37.8302 51.2677ZM61.0235 54.1116C60.3916 54.4908 60.202 55.2491 60.5179 55.8811C60.8339 56.5131 61.6555 56.7659 62.2875 56.4499C62.9194 56.0707 63.1722 55.3123 62.793 54.6804C62.6034 54.238 62.1611 53.9852 61.6555 53.9852C61.4448 53.9852 61.2342 54.0273 61.0235 54.1116ZM39.2205 55.0596C38.8414 55.3123 38.6518 55.8179 38.9046 56.1971C39.0942 56.5763 39.5997 56.7659 39.9789 56.5131C40.4213 56.3235 40.5477 55.8179 40.3581 55.4387C40.1685 55.1228 39.9157 54.9964 39.5997 54.9964C39.4733 54.9964 39.3469 55.0174 39.2205 55.0596ZM58.7484 57.1451C58.0533 57.5874 57.8005 58.4722 58.1797 59.1674C58.5588 59.8625 59.4436 60.1785 60.202 59.7361C60.8971 59.357 61.1499 58.4722 60.7707 57.777C60.5179 57.2715 60.0124 57.0187 59.4436 57.0187C59.2329 57.0187 59.0012 57.0608 58.7484 57.1451ZM41.4956 58.0298C40.9901 58.2826 40.8637 58.8514 41.1165 59.357C41.3692 59.7993 41.938 59.9889 42.4436 59.7361C42.886 59.4833 43.0756 58.9146 42.8228 58.409C42.6332 58.093 42.3172 57.9034 41.938 57.9034C41.8116 57.9034 41.6642 57.9456 41.4956 58.0298ZM55.5886 59.357C54.767 59.7993 54.451 60.8105 54.8934 61.632C55.3358 62.3904 56.3469 62.7064 57.1685 62.264C57.9901 61.8216 58.306 60.8105 57.8637 60.0521C57.5477 59.4833 56.9789 59.1674 56.4101 59.1674C56.1152 59.1674 55.8414 59.2306 55.5886 59.357ZM44.5923 60.0521C44.0235 60.3681 43.8339 61.0633 44.1499 61.632C44.4027 62.2008 45.1611 62.3904 45.6666 62.0744C46.2354 61.7584 46.425 61.0633 46.1722 60.5577C45.9194 60.1785 45.5402 59.9257 45.1611 59.9257C44.9504 59.9257 44.7608 59.9679 44.5923 60.0521ZM52.0495 60.8105C51.2912 61.1897 51.0384 62.0744 51.4176 62.8328C51.7968 63.528 52.6815 63.7807 53.4399 63.4016C54.135 63.0224 54.3878 62.1376 54.0086 61.3793C53.7559 60.9369 53.2503 60.6209 52.7447 60.6209C52.4919 60.6209 52.2602 60.6841 52.0495 60.8105ZM48.2577 61.0633C47.5625 61.3793 47.373 62.2008 47.6889 62.8328C48.0681 63.4648 48.8265 63.7176 49.4585 63.3384C50.1536 63.0224 50.3432 62.2008 50.0272 61.5689C49.7744 61.1265 49.3321 60.8737 48.8265 60.8737C48.6158 60.8737 48.4262 60.9369 48.2577 61.0633Z" fill="url(#paint0_linear_224_915)"/>
<path d="M48.1953 32.4365C47.9425 33.4477 48.5112 34.4588 49.4592 34.7748C50.4704 35.0276 51.4815 34.4588 51.7975 33.5109C52.1135 32.4997 51.5447 31.4254 50.5336 31.1726C50.365 31.1304 50.1965 31.1094 50.028 31.1094C49.2064 31.1094 48.4481 31.615 48.1953 32.4365ZM53.251 33.0053C52.8718 34.206 53.5038 35.3436 54.7046 35.7228C55.8421 36.0387 57.0428 35.4068 57.3588 34.2692C57.6748 33.1317 57.0429 31.9309 55.9053 31.5518C55.6946 31.5096 55.484 31.4886 55.2733 31.4886C54.3886 31.4886 53.5038 32.1205 53.251 33.0053ZM43.2027 33.4477C42.9499 34.3324 43.4555 35.2804 44.3402 35.5332C45.225 35.786 46.1098 35.2804 46.3626 34.3956C46.6153 33.5109 46.1098 32.6261 45.2882 32.3733C45.1197 32.3312 44.9511 32.3101 44.7826 32.3101C44.0875 32.3101 43.3923 32.7525 43.2027 33.4477ZM58.3068 35.4068C57.9908 36.3547 58.5596 37.4291 59.5707 37.6819C60.5819 37.9978 61.593 37.4291 61.909 36.4179C62.1618 35.47 61.593 34.3956 60.6451 34.1428C60.4344 34.0586 60.2448 34.0164 60.0763 34.0164C59.2547 34.0164 58.5596 34.5852 58.3068 35.4068ZM38.9053 36.1019C38.6525 36.7971 39.0949 37.5555 39.7901 37.7451C40.4852 37.9347 41.1804 37.5555 41.37 36.8603C41.5596 36.1651 41.1804 35.47 40.4852 35.2172C40.3588 35.1751 40.2324 35.154 40.106 35.154C39.5373 35.154 39.0317 35.5332 38.9053 36.1019ZM62.3514 39.0722C62.0986 39.957 62.6042 40.9049 63.4889 41.1577C64.3737 41.4105 65.2585 40.9049 65.5744 40.0202C65.8272 39.1354 65.3217 38.2506 64.4369 37.9978C64.2684 37.9557 64.0998 37.9347 63.9313 37.9347C63.2362 37.9347 62.6042 38.377 62.3514 39.0722ZM35.4295 40.0202C35.3031 40.5889 35.6191 41.2209 36.1878 41.3473C36.7566 41.5369 37.3254 41.2209 37.515 40.6521C37.6414 40.0834 37.3254 39.5146 36.7566 39.325C36.6723 39.2829 36.5881 39.2618 36.5038 39.2618C35.9982 39.2618 35.6191 39.5778 35.4295 40.0202ZM65.2585 43.8752C65.0057 44.5703 65.4481 45.2655 66.1432 45.5183C66.8384 45.7079 67.5336 45.2655 67.7231 44.5703C67.9759 43.8752 67.5967 43.18 66.8384 42.9904C66.7541 42.9483 66.6488 42.9272 66.5224 42.9272C65.9536 42.9272 65.3849 43.3064 65.2585 43.8752ZM33.4704 44.9495C33.344 45.3287 33.5336 45.7711 33.9759 45.8975C34.4183 46.0239 34.8607 45.7711 34.9871 45.3919C35.1135 44.9495 34.8607 44.5071 34.4183 44.3807C34.3341 44.3807 34.2709 44.3807 34.2287 44.3807C33.8495 44.3807 33.5336 44.5703 33.4704 44.9495ZM66.4592 49.1837C66.2696 49.6893 66.6488 50.3213 67.2176 50.4477C67.7231 50.6373 68.3551 50.3213 68.4815 49.7525C68.6711 49.1837 68.3551 48.6149 67.7863 48.4254C67.7021 48.3832 67.5967 48.3622 67.4704 48.3622C67.028 48.3622 66.5856 48.6781 66.4592 49.1837ZM32.5224 50.1317C32.3328 50.7005 32.6488 51.2692 33.2176 51.3956C33.7863 51.5852 34.3551 51.2692 34.5447 50.7005C34.6711 50.1317 34.3551 49.5629 33.8495 49.3733C33.7231 49.3733 33.6178 49.3733 33.5336 49.3733C33.0912 49.3733 32.6488 49.6893 32.5224 50.1317ZM66.0168 54.4923C65.8904 54.9347 66.1432 55.377 66.5856 55.5034C66.9648 55.6298 67.4072 55.377 67.5336 54.9347C67.6599 54.5555 67.4704 54.1131 67.028 53.9867C66.9437 53.9446 66.8595 53.9235 66.7752 53.9235C66.4592 53.9235 66.1432 54.1763 66.0168 54.4923ZM33.2808 55.2506C33.0912 55.9458 33.4072 56.7042 34.1655 56.8938C34.7975 57.0833 35.5559 56.7042 35.7455 56.009C35.935 55.3138 35.5559 54.5555 34.8607 54.4291C34.7343 54.3869 34.6079 54.3659 34.4815 54.3659C33.9127 54.3659 33.4072 54.6819 33.2808 55.2506ZM63.4889 59.232C63.3626 59.8008 63.6785 60.3696 64.2473 60.5592C64.8161 60.6856 65.3849 60.3696 65.5744 59.8008C65.7008 59.2952 65.3849 58.6633 64.8161 58.5369C64.7318 58.4948 64.6265 58.4737 64.5001 58.4737C64.0577 58.4737 63.6153 58.7897 63.4889 59.232ZM35.4295 59.864C35.1767 60.7488 35.6823 61.6335 36.567 61.8863C37.4518 62.1391 38.3997 61.6335 38.6525 60.7488C38.9053 59.9272 38.3997 58.9793 37.515 58.7265C37.3464 58.6843 37.199 58.6633 37.0726 58.6633C36.3142 58.6633 35.6823 59.1057 35.4295 59.864ZM59.6339 63.0239C59.4443 63.719 59.8235 64.4142 60.5187 64.667C61.2139 64.8566 61.909 64.4142 62.0986 63.7822C62.3514 63.0871 61.909 62.3287 61.2139 62.1391C61.1296 62.097 61.0243 62.0759 60.8979 62.0759C60.3291 62.0759 59.7603 62.4551 59.6339 63.0239ZM39.0949 63.4662C38.8421 64.4142 39.4109 65.4254 40.3588 65.7413C41.37 66.0573 42.3811 65.4886 42.6971 64.4774C43.0131 63.5294 42.4443 62.4551 41.4332 62.1391C41.2647 62.097 41.0961 62.0759 40.9276 62.0759C40.106 62.0759 39.3477 62.6447 39.0949 63.4662ZM43.6451 65.6149C43.3291 66.7525 43.9611 67.9532 45.0986 68.2692C46.2362 68.6484 47.4369 67.9532 47.7529 66.8157C48.1321 65.6781 47.4369 64.4774 46.2994 64.1614C46.0887 64.1193 45.8991 64.0982 45.7306 64.0982C44.7826 64.0982 43.8979 64.667 43.6451 65.6149ZM54.6414 65.4886C54.3254 66.3733 54.8941 67.2581 55.7157 67.5109C56.6005 67.7636 57.5484 67.2581 57.8012 66.3733C58.054 65.5518 57.5484 64.6038 56.6637 64.351C56.4951 64.3089 56.3477 64.2878 56.2213 64.2878C55.4629 64.2878 54.831 64.7302 54.6414 65.4886ZM49.2064 66.3733C48.8904 67.3845 49.4592 68.3956 50.4704 68.7116C51.4815 69.0276 52.4927 68.4588 52.8086 67.4477C53.0614 66.4365 52.4927 65.4254 51.5447 65.1094C51.3341 65.0672 51.1445 65.0462 50.9759 65.0462C50.1544 65.0462 49.4592 65.5518 49.2064 66.3733Z" fill="url(#paint1_linear_224_915)"/>
<path d="M51.7982 25.9904C51.0399 26.8751 51.0399 28.2023 51.9246 29.0238C52.7462 29.8454 54.1365 29.7822 54.8949 28.9606C55.7165 28.0759 55.6533 26.7487 54.8317 25.9272C54.3893 25.548 53.8837 25.3584 53.3782 25.3584C52.8094 25.3584 52.2406 25.548 51.7982 25.9904ZM45.0993 26.5591C44.4674 27.1911 44.4674 28.2655 45.1625 28.8974C45.7945 29.5294 46.8689 29.5294 47.5008 28.8342C48.1328 28.1391 48.1328 27.1279 47.4376 26.4959C47.1217 26.18 46.6793 25.9904 46.3001 25.9904C45.8577 25.9904 45.4153 26.18 45.0993 26.5591ZM58.4339 27.8231C57.5492 28.771 57.5492 30.2878 58.4971 31.1725C59.5083 32.1205 61.025 32.0573 61.9098 31.1093C62.7945 30.1614 62.7945 28.6446 61.8466 27.6967C61.341 27.2543 60.7722 27.0647 60.1402 27.0647C59.5083 27.0647 58.8763 27.3175 58.4339 27.8231ZM38.6533 29.1502C38.1477 29.719 38.1477 30.5406 38.7165 31.0461C39.222 31.5517 40.1068 31.5517 40.6124 30.9829C41.1179 30.4774 41.1179 29.5926 40.5492 29.087C40.2964 28.8342 39.9804 28.7078 39.6012 28.7078C39.2852 28.7078 38.906 28.8342 38.6533 29.1502ZM63.9953 31.5517C62.9841 32.6893 63.0473 34.3956 64.1217 35.4699C65.2592 36.4811 66.9655 36.4179 68.0399 35.3435C69.051 34.206 69.051 32.4997 67.9135 31.4253C67.4079 30.9197 66.7127 30.6669 66.0176 30.6669C65.3224 30.6669 64.564 30.9829 63.9953 31.5517ZM33.2815 33.7004C32.9023 34.1428 32.9023 34.7748 33.3447 35.1539C33.7239 35.5331 34.3559 35.5331 34.735 35.0907C35.1142 34.7116 35.1142 34.0796 34.735 33.7004C34.5455 33.5108 34.2927 33.3844 34.0399 33.3844C33.7239 33.3844 33.4711 33.5108 33.2815 33.7004ZM68.6086 37.429C67.7239 38.377 67.7239 39.8937 68.735 40.7785C69.683 41.7264 71.1997 41.6632 72.0845 40.7153C73.0324 39.7041 72.9692 38.2506 72.0213 37.3026C71.5157 36.8603 70.9469 36.6707 70.3782 36.6707C69.7462 36.6707 69.1142 36.9235 68.6086 37.429ZM29.0473 39.3249C28.5417 39.8937 28.5417 40.7153 29.1105 41.2209C29.6161 41.7264 30.5008 41.7264 31.0064 41.2209C31.512 40.6521 31.512 39.7673 30.9432 39.2617C30.6904 39.009 30.3744 38.8826 30.0585 38.8826C29.6793 38.8826 29.3001 39.0722 29.0473 39.3249ZM71.1997 44.2543C70.3782 45.1391 70.4414 46.4662 71.2629 47.2878C72.1477 48.1093 73.4748 48.0461 74.2964 47.1614C75.1179 46.3398 75.0547 44.9495 74.2332 44.1911C73.7908 43.8119 73.2852 43.6223 72.7164 43.6223C72.1477 43.6223 71.6421 43.8119 71.1997 44.2543ZM26.8354 45.8974C26.2034 46.5926 26.2034 47.6669 26.8986 48.2989C27.5938 48.9309 28.6049 48.8677 29.3001 48.2357C29.9321 47.5406 29.8689 46.4662 29.1737 45.8342C28.8577 45.5183 28.4785 45.3919 28.0362 45.3919C27.5938 45.3919 27.1514 45.5814 26.8354 45.8974ZM71.7053 51.6484C71.0733 52.3435 71.1365 53.4179 71.8317 54.0498C72.4637 54.6818 73.538 54.6186 74.17 53.9235C74.8019 53.2915 74.802 52.2171 74.1068 51.5852C73.7908 51.2692 73.3484 51.1428 72.9692 51.1428C72.5269 51.1428 72.0845 51.3324 71.7053 51.6484ZM26.709 52.6595C25.8875 53.5443 25.9507 54.8714 26.7722 55.693C27.657 56.5145 28.9841 56.4513 29.8057 55.6298C30.6272 54.745 30.564 53.4179 29.7425 52.5963C29.3001 52.2171 28.7945 52.0275 28.2889 52.0275C27.7202 52.0275 27.1514 52.2171 26.709 52.6595ZM69.999 58.6632C69.4934 59.232 69.4934 60.0536 70.0622 60.6223C70.5677 61.1279 71.4525 61.0647 71.9581 60.5591C72.4637 59.9904 72.4637 59.1056 71.8949 58.6C71.6421 58.3472 71.3261 58.2209 70.9469 58.2209C70.6309 58.2209 70.2518 58.4104 69.999 58.6632ZM28.9209 59.1688C27.973 60.1168 28.0362 61.6335 28.9841 62.5814C29.9953 63.4662 31.512 63.403 32.3967 62.4551C33.2815 61.5071 33.2183 59.9904 32.2704 59.0424C31.828 58.6 31.2592 58.4104 30.6272 58.4104C29.9953 58.4104 29.3633 58.6632 28.9209 59.1688ZM32.9655 64.5406C31.9544 65.6149 31.9544 67.3844 33.0919 68.3956C34.2295 69.4699 35.9358 69.4067 37.0101 68.3324C38.0213 67.1948 37.9581 65.4253 36.8837 64.4142C36.315 63.9086 35.683 63.6558 34.9878 63.6558C34.2295 63.6558 33.5343 63.9718 32.9655 64.5406ZM66.2704 64.7301C65.8912 65.1725 65.8912 65.8045 66.2704 66.1837C66.7127 66.5629 67.3447 66.5629 67.7239 66.1205C68.1031 65.7413 68.1031 65.1093 67.6607 64.7301C67.4711 64.5406 67.2183 64.4142 66.9655 64.4142C66.7127 64.4142 66.4599 64.5406 66.2704 64.7301ZM39.0956 68.7748C38.2109 69.7227 38.2109 71.2394 39.222 72.1242C40.17 73.0722 41.6867 73.009 42.5715 72.061C43.4562 71.113 43.4562 69.5963 42.4451 68.6484C42.0027 68.206 41.4339 68.0164 40.8652 68.0164C40.17 68.0164 39.538 68.2692 39.0956 68.7748ZM60.393 68.838C59.8875 69.4067 59.8875 70.2915 60.4562 70.7971C61.025 71.3026 61.8466 71.2394 62.3521 70.7339C62.8577 70.1651 62.8577 69.3435 62.2889 68.838C62.0362 68.5852 61.7202 68.4588 61.4042 68.4588C61.025 68.4588 60.6458 68.5852 60.393 68.838ZM46.0473 70.9235C45.2889 71.8082 45.2889 73.1353 46.1737 73.9569C47.0585 74.7153 48.3856 74.7153 49.2072 73.8305C49.9655 73.009 49.9655 71.6186 49.0808 70.8603C48.7016 70.4179 48.1328 70.2283 47.6272 70.2283C47.0585 70.2283 46.4897 70.4811 46.0473 70.9235ZM53.5046 71.0499C52.8726 71.6818 52.8726 72.7562 53.5678 73.3881C54.2629 74.0201 55.2741 74.0201 55.906 73.3249C56.538 72.6298 56.538 71.6186 55.8428 70.9235C55.5269 70.6707 55.1477 70.4811 54.7053 70.4811C54.2629 70.4811 53.8205 70.6707 53.5046 71.0499Z" fill="url(#paint2_linear_224_915)"/>
<path d="M53.6306 18.4707C52.6195 18.6603 51.9243 19.6714 52.1771 20.6826C52.3667 21.6306 53.3146 22.3257 54.3258 22.0729C55.3369 21.8833 55.9689 20.9354 55.7793 19.9242C55.5897 19.0395 54.8314 18.4707 53.9466 18.4707C53.8623 18.4707 53.757 18.4707 53.6306 18.4707ZM45.9838 18.9763C45.1622 19.1027 44.6566 19.861 44.7198 20.6194C44.8462 21.441 45.6046 21.9465 46.363 21.8201C47.1845 21.6938 47.6901 20.9986 47.6269 20.177C47.5005 19.4819 46.8685 18.9763 46.1734 18.9763C46.0891 18.9763 46.0259 18.9763 45.9838 18.9763ZM60.9615 20.0506C59.7607 20.3666 59.0656 21.5674 59.3816 22.7681C59.6343 23.9688 60.8983 24.664 62.099 24.348C63.2366 24.032 63.9949 22.8313 63.6789 21.6306C63.4262 20.6194 62.5414 19.9874 61.5302 19.9874C61.3196 19.9874 61.13 20.0085 60.9615 20.0506ZM38.1473 21.3146C37.4522 21.5674 37.1362 22.3889 37.4522 23.0841C37.7682 23.7793 38.5265 24.032 39.2217 23.7793C39.9169 23.4633 40.2329 22.7049 39.9169 22.0097C39.6641 21.5042 39.2217 21.1882 38.7161 21.1882C38.5055 21.1882 38.3159 21.2303 38.1473 21.3146ZM67.4708 23.3369C66.0172 23.7793 65.1957 25.3592 65.6381 26.8127C66.1436 28.3294 67.6604 29.0878 69.1771 28.6454C70.6306 28.203 71.4522 26.6231 70.9466 25.1696C70.6306 23.9688 69.4931 23.2105 68.3555 23.2105C68.0606 23.2105 67.7657 23.2526 67.4708 23.3369ZM31.0693 25.4224C30.5005 25.8648 30.3741 26.8127 30.8797 27.4447C31.3853 28.0767 32.27 28.1398 32.902 27.6343C33.534 27.1919 33.5972 26.2439 33.1548 25.612C32.8388 25.296 32.3964 25.1064 32.0172 25.1064C31.7013 25.1064 31.3853 25.1696 31.0693 25.4224ZM72.8425 28.519C71.2626 29.151 70.441 30.9205 71.0098 32.5004C71.6418 34.0804 73.4113 34.9019 74.9912 34.3332C76.5711 33.7012 77.3927 31.9317 76.7607 30.3517C76.3184 29.0878 75.1808 28.3294 73.9169 28.3294C73.5377 28.3294 73.1796 28.3926 72.8425 28.519ZM25.5079 30.6045C24.6864 31.1733 24.4336 32.3109 25.0656 33.1956C25.6343 34.0172 26.7719 34.2068 27.5934 33.638C28.4782 33.006 28.6678 31.8685 28.0358 31.0469C27.7198 30.5413 27.1511 30.2885 26.5823 30.2885C26.2031 30.2885 25.8239 30.3517 25.5079 30.6045ZM76.5711 35.0283C74.8648 35.7867 74.1065 37.7458 74.8016 39.4521C75.56 41.1584 77.5191 41.9168 79.2254 41.1584C80.9317 40.4633 81.6901 38.5042 80.9949 36.7978C80.4262 35.5339 79.1622 34.7755 77.8983 34.7755C77.4348 34.7755 76.9925 34.8598 76.5711 35.0283ZM21.5897 37.0506C20.5154 37.6826 20.1994 39.0729 20.8946 40.0841C21.5265 41.1584 22.9169 41.4744 23.9912 40.7793C25.0024 40.1473 25.3184 38.757 24.6232 37.7458C24.244 37.0506 23.4856 36.6714 22.7905 36.6714C22.3481 36.6714 21.9689 36.7978 21.5897 37.0506ZM78.6566 42.8648C77.1399 43.6231 76.5079 45.4558 77.2663 46.9726C78.0247 48.4893 79.8574 49.1213 81.3741 48.3629C82.8908 47.6045 83.5228 45.7718 82.7645 44.2551C82.2589 43.1807 81.1213 42.5488 80.047 42.5488C79.5835 42.5488 79.1201 42.6541 78.6566 42.8648ZM19.5042 44.0655C18.1771 44.8239 17.6715 46.467 18.4299 47.8573C19.1882 49.1845 20.8946 49.6268 22.2217 48.8685C23.5488 48.1733 24.0544 46.467 23.2961 45.0767C22.7905 44.1919 21.8425 43.6863 20.8314 43.6863C20.389 43.6863 19.9466 43.8127 19.5042 44.0655ZM78.783 50.954C77.4559 51.7123 76.9503 53.4187 77.7087 54.7458C78.4671 56.1361 80.1734 56.5785 81.5005 55.8201C82.8276 55.0618 83.3332 53.3555 82.5749 52.0283C82.0693 51.1436 81.1213 50.638 80.1102 50.638C79.6678 50.638 79.2254 50.7644 78.783 50.954ZM19.6306 51.5227C18.1139 52.2811 17.4819 54.1138 18.2403 55.6306C18.9355 57.1473 20.8314 57.7793 22.3481 57.0209C23.8648 56.2625 24.4968 54.4298 23.7384 52.9131C23.1697 51.8387 22.0953 51.2068 20.9578 51.2068C20.4943 51.2068 20.0519 51.3121 19.6306 51.5227ZM21.7793 58.664C20.073 59.4224 19.3146 61.3815 20.0098 63.0878C20.7682 64.7941 22.7273 65.5525 24.4336 64.7941C26.1399 64.099 26.8983 62.1399 26.1399 60.4335C25.6343 59.1696 24.3704 58.4112 23.1065 58.4112C22.643 58.4112 22.2006 58.4955 21.7793 58.664ZM77.0135 59.0432C76.0024 59.7384 75.6864 61.1287 76.3184 62.1399C77.0135 63.2142 78.4039 63.5302 79.415 62.835C80.4894 62.203 80.8053 60.8127 80.1102 59.7384C79.6678 59.1064 78.9726 58.7272 78.2143 58.7272C77.8351 58.7272 77.3927 58.8536 77.0135 59.0432ZM26.0135 65.5525C24.4336 66.1845 23.612 67.954 24.1808 69.5339C24.8128 71.1138 26.5823 71.9354 28.1622 71.3034C29.7421 70.7346 30.5637 68.9651 29.9317 67.3852C29.4894 66.1213 28.3518 65.3629 27.0879 65.3629C26.7508 65.3629 26.3927 65.4261 26.0135 65.5525ZM73.3481 66.2477C72.5265 66.8164 72.3369 68.0172 72.9057 68.8387C73.5377 69.6603 74.6752 69.8499 75.4968 69.2811C76.3184 68.6491 76.5079 67.5116 75.9392 66.69C75.56 66.1845 74.9912 65.9317 74.4224 65.9317C74.0433 65.9317 73.7273 65.9949 73.3481 66.2477ZM31.8276 71.2402C30.3741 71.6826 29.5526 73.1993 29.9949 74.7161C30.5005 76.1696 32.0172 76.9912 33.534 76.5488C34.9875 76.0432 35.8091 74.5265 35.3667 73.0729C34.9875 71.8722 33.85 71.1138 32.6492 71.1138C32.3964 71.1138 32.1226 71.156 31.8276 71.2402ZM68.1027 72.1882C67.4708 72.6938 67.4076 73.6417 67.8499 74.2105C68.3555 74.8424 69.3035 74.9688 69.8723 74.4633C70.5042 73.9577 70.6306 73.0729 70.125 72.441C69.8723 72.0618 69.4299 71.8722 68.9875 71.8722C68.6715 71.8722 68.3555 71.9986 68.1027 72.1882ZM38.9057 75.4744C37.7682 75.7904 37.0098 76.9911 37.3258 78.1919C37.6418 79.3926 38.8425 80.151 40.0433 79.835C41.244 79.519 41.9392 78.3183 41.6232 77.1175C41.3704 76.1064 40.4856 75.4112 39.4745 75.4112C39.306 75.4112 39.1164 75.4323 38.9057 75.4744ZM61.783 76.1064C61.0879 76.4224 60.7719 77.1807 61.0879 77.8759C61.4039 78.5711 62.1622 78.8871 62.8574 78.5711C63.5526 78.2551 63.8685 77.4967 63.5526 76.8016C63.2998 76.296 62.8574 75.98 62.2886 75.98C62.1201 75.98 61.9516 76.0221 61.783 76.1064ZM46.6789 77.7495C45.6678 78.0023 45.0358 78.9503 45.2254 79.9614C45.415 80.9726 46.4262 81.6045 47.3741 81.4149C48.3853 81.1622 49.0172 80.2142 48.8276 79.203C48.6381 78.3183 47.8797 77.7495 47.0581 77.7495C46.9317 77.7495 46.8053 77.7495 46.6789 77.7495ZM54.6418 78.0655C53.8202 78.1287 53.2514 78.8871 53.3778 79.6454C53.5042 80.467 54.2626 80.9726 55.021 80.9094C55.8425 80.783 56.3481 80.0246 56.2217 79.2662C56.1585 78.5079 55.5265 78.0023 54.8314 78.0023C54.7471 78.0023 54.6839 78.0234 54.6418 78.0655Z" fill="url(#paint3_linear_224_915)"/>
<path d="M50.4684 13.4126C49.5204 13.4126 48.7621 12.6543 48.7621 11.7063C48.7621 10.7584 49.5204 10 50.4684 10C51.4164 10 52.2379 10.7584 52.2379 11.7063C52.2379 12.6543 51.4164 13.4126 50.4684 13.4126ZM58.6208 12.5279C58.368 13.539 58.9368 14.5502 59.8848 14.803C60.8959 15.0558 61.9071 14.487 62.1599 13.4758C62.4126 12.5279 61.8439 11.5167 60.8327 11.2639C60.7063 11.2218 60.5589 11.2007 60.3903 11.2007C59.5688 11.2007 58.8104 11.7063 58.6208 12.5279ZM40.1041 11.2639C39.1561 11.5167 38.5242 12.5279 38.8402 13.4758C39.0929 14.487 40.1041 15.0558 41.052 14.803C42.0632 14.5502 42.632 13.539 42.3792 12.5279C42.1896 11.7063 41.4312 11.2007 40.6097 11.2007C40.4411 11.2007 40.2726 11.2218 40.1041 11.2639ZM67.2788 16.3197C67.026 17.5836 67.8476 18.8476 69.1115 19.1636C70.3755 19.4164 71.6394 18.5948 71.8922 17.3309C72.2082 16.0669 71.3866 14.803 70.1227 14.5502C69.9542 14.5081 69.7856 14.487 69.6171 14.487C68.4796 14.487 67.5316 15.2454 67.2788 16.3197ZM30.8773 14.5502C29.6134 14.803 28.7918 16.0669 29.0446 17.3309C29.3606 18.5948 30.6245 19.4164 31.8885 19.1636C33.1524 18.8476 33.974 17.5836 33.7212 16.3197C33.4684 15.2454 32.4573 14.487 31.3829 14.487C31.2144 14.487 31.0459 14.5081 30.8773 14.5502ZM23.0409 20.1115C21.461 20.3011 20.3866 21.7546 20.6394 23.3346C20.8922 24.9145 22.3457 25.9888 23.9257 25.7361C25.5056 25.4833 26.5167 24.0297 26.3271 22.4498C26.0744 21.0595 24.8736 20.0483 23.4833 20.0483C23.3147 20.0483 23.1673 20.0694 23.0409 20.1115ZM74.6729 22.4498C74.4201 24.0297 75.4944 25.4833 77.0744 25.7361C78.6543 25.9888 80.1078 24.9145 80.3606 23.3346C80.6134 21.8178 79.539 20.3643 77.9591 20.1115C77.8327 20.0694 77.6853 20.0483 77.5167 20.0483C76.1264 20.0483 74.9257 21.0595 74.6729 22.4498ZM80.0446 30.4758C79.855 32.4349 81.2454 34.1413 83.2045 34.3941C85.1636 34.5836 86.9331 33.1301 87.1227 31.171C87.3123 29.2119 85.9219 27.5056 83.9628 27.2528C83.8364 27.2528 83.71 27.2528 83.5836 27.2528C81.8141 27.2528 80.2342 28.6431 80.0446 30.4758ZM17.0372 27.2528C15.0781 27.5056 13.6245 29.2119 13.8773 31.171C14.0669 33.1301 15.8364 34.5836 17.7955 34.3941C19.7546 34.1413 21.145 32.4349 20.9554 30.4758C20.7658 28.6431 19.1859 27.2528 17.4164 27.2528C17.29 27.2528 17.1636 27.2528 17.0372 27.2528ZM83.5204 39.829C83.3941 41.9777 85.0372 43.8736 87.1859 43.9368C89.3978 44.0632 91.2305 42.4201 91.3569 40.2714C91.4833 38.0595 89.777 36.2268 87.6283 36.1004C87.544 36.1004 87.4808 36.1004 87.4387 36.1004C85.3532 36.1004 83.5836 37.7435 83.5204 39.829ZM13.3717 36.1004C11.223 36.2268 9.51673 38.0595 9.64312 40.2714C9.76952 42.4201 11.6022 44.0632 13.7509 43.9368C15.9628 43.8736 17.6059 41.9777 17.4796 39.829C17.4164 37.7435 15.6468 36.1004 13.5613 36.1004C13.5192 36.1004 13.456 36.1004 13.3717 36.1004ZM88.7026 54.2379C86.3643 54.2379 84.4052 52.2788 84.4052 49.9405C84.4052 47.539 86.3643 45.6431 88.7026 45.6431C91.1041 45.6431 93 47.539 93 49.9405C93 52.2788 91.1041 54.2379 88.7026 54.2379ZM12.2974 54.2379C9.89591 54.2379 8 52.2788 8 49.9405C8 47.539 9.89591 45.6431 12.2974 45.6431C14.6357 45.6431 16.5316 47.539 16.5316 49.9405C16.5316 52.2788 14.6357 54.2379 12.2974 54.2379ZM87.1859 55.881C85.0372 56.0074 83.3941 57.8401 83.5204 60.052C83.5836 62.2007 85.4796 63.8439 87.6283 63.7175C89.777 63.6543 91.4833 61.8216 91.3569 59.6097C91.2305 57.5242 89.5242 55.881 87.4387 55.881C87.3544 55.881 87.2701 55.881 87.1859 55.881ZM9.64312 59.6097C9.51673 61.8216 11.223 63.6543 13.3717 63.7175C15.5204 63.8439 17.3532 62.2007 17.4796 60.052C17.6059 57.8401 15.9628 56.0074 13.7509 55.881C13.7088 55.881 13.6456 55.881 13.5613 55.881C11.4758 55.881 9.76952 57.5242 9.64312 59.6097ZM83.2045 65.487C81.2454 65.6766 79.855 67.4461 80.0446 69.4052C80.2342 71.3643 82.0037 72.8178 83.9628 72.5651C85.9219 72.3755 87.3123 70.606 87.1227 68.6468C86.9331 66.8141 85.4164 65.487 83.5836 65.487C83.4573 65.487 83.3309 65.487 83.2045 65.487ZM13.8773 68.6468C13.6245 70.606 15.0781 72.3755 17.0372 72.5651C18.9963 72.8178 20.7658 71.3643 20.9554 69.4052C21.145 67.4461 19.7546 65.6766 17.7955 65.487C17.6691 65.487 17.5428 65.487 17.4164 65.487C15.5836 65.487 14.0669 66.8141 13.8773 68.6468ZM77.0744 74.145C75.4944 74.3978 74.4201 75.8513 74.6729 77.4312C74.9257 78.948 76.3792 80.0223 77.9591 79.7695C79.539 79.5167 80.6134 78.0632 80.3606 76.4833C80.1078 75.0929 78.9071 74.0818 77.5167 74.0818C77.3903 74.0818 77.2429 74.1029 77.0744 74.145ZM20.6394 76.4833C20.3866 78.0632 21.461 79.5167 23.0409 79.7695C24.5576 80.0223 26.0744 78.948 26.3271 77.4312C26.5167 75.8513 25.5056 74.3978 23.9257 74.145C23.7571 74.1029 23.6097 74.0818 23.4833 74.0818C22.0929 74.0818 20.8922 75.0929 20.6394 76.4833ZM69.1115 80.7175C67.8476 80.9703 67.026 82.2342 67.2788 83.4981C67.5948 84.8253 68.7955 85.6468 70.1227 85.3309C71.3866 85.0781 72.2082 83.8141 71.8922 82.5502C71.7026 81.4126 70.6915 80.6543 69.6171 80.6543C69.4486 80.6543 69.28 80.6753 69.1115 80.7175ZM29.0446 82.5502C28.7918 83.8141 29.6134 85.0781 30.8773 85.3309C32.1413 85.6468 33.4052 84.8253 33.7212 83.4981C33.974 82.2342 33.1524 80.9703 31.8885 80.7175C31.72 80.6753 31.5514 80.6543 31.3829 80.6543C30.3086 80.6543 29.2974 81.4126 29.0446 82.5502ZM59.8848 85.0781C58.9368 85.3309 58.368 86.342 58.6208 87.3532C58.8736 88.3011 59.8848 88.8699 60.8327 88.6171C61.8439 88.3643 62.4126 87.3532 62.1599 86.342C61.9703 85.5205 61.2119 85.0149 60.3903 85.0149C60.2218 85.0149 60.0533 85.0359 59.8848 85.0781ZM38.8402 86.342C38.5874 87.3532 39.1561 88.3643 40.1041 88.6171C41.1152 88.8699 42.1264 88.3011 42.3792 87.3532C42.632 86.342 42.0632 85.3309 41.052 85.0781C40.9257 85.0359 40.7782 85.0149 40.6097 85.0149C39.7881 85.0149 39.0297 85.5205 38.8402 86.342ZM50.4684 89.881C49.5204 89.881 48.7621 89.1227 48.7621 88.1747C48.7621 87.2268 49.5204 86.4052 50.4684 86.4052C51.4164 86.4052 52.2379 87.2268 52.2379 88.1747C52.2379 89.1227 51.4164 89.881 50.4684 89.881Z" fill="url(#paint4_linear_224_915)"/>
<defs>
<linearGradient id="paint0_linear_224_915" x1="62.1111" y1="43.6588" x2="38.8844" y2="56.1972" gradientUnits="userSpaceOnUse">
<stop stop-color="#F99D1C"/>
<stop offset="0.5" stop-color="#F37021"/>
<stop offset="1" stop-color="#F99D1C"/>
</linearGradient>
<linearGradient id="paint1_linear_224_915" x1="67.5506" y1="54.9416" x2="33.4478" y2="44.9256" gradientUnits="userSpaceOnUse">
<stop stop-color="#F99D1C"/>
<stop offset="0.5" stop-color="#F37021"/>
<stop offset="1" stop-color="#F99D1C"/>
</linearGradient>
<linearGradient id="paint2_linear_224_915" x1="67.2177" y1="66.6438" x2="33.7858" y2="33.2119" gradientUnits="userSpaceOnUse">
<stop stop-color="#F99D1C"/>
<stop offset="0.5" stop-color="#F37021"/>
<stop offset="1" stop-color="#F99D1C"/>
</linearGradient>
<linearGradient id="paint3_linear_224_915" x1="62.8473" y1="78.5654" x2="38.1494" y2="21.3076" gradientUnits="userSpaceOnUse">
<stop stop-color="#F99D1C"/>
<stop offset="0.5" stop-color="#F37021"/>
<stop offset="1" stop-color="#F99D1C"/>
</linearGradient>
<linearGradient id="paint4_linear_224_915" x1="50.4937" y1="89.864" x2="50.4937" y2="9.99937" gradientUnits="userSpaceOnUse">
<stop stop-color="#F99D1C"/>
<stop offset="0.5" stop-color="#F37021"/>
<stop offset="1" stop-color="#F99D1C"/>
</linearGradient>
</defs>
</svg>
