<svg width="100" height="100" viewBox="0 0 100 100" fill="none" xmlns="http://www.w3.org/2000/svg">
<rect x="8" y="8" width="84" height="84" rx="11" fill="white"/>
<path fill-rule="evenodd" clip-rule="evenodd" d="M82.9953 86.0432L82.9907 86.0339H83M60.9174 86.0339L43.3681 61.7033H37.4654V85.9918H18V13H45.8685C61.9409 13 75.069 23.9408 75.069 37.3914C75.069 45.6028 70.0402 52.9403 62.4036 57.4176L82.9907 86.0339H60.9174ZM55.6316 37.382C55.6362 35.779 55.3278 34.19 54.7202 32.7038C54.1127 31.2222 53.22 29.8716 52.089 28.7312C50.958 27.5956 49.6167 26.6889 48.1352 26.072C46.6583 25.4504 45.074 25.1326 43.4663 25.1232H37.4654V49.538H43.485C45.0787 49.5286 46.6537 49.2108 48.1258 48.5986C49.5933 47.9863 50.93 47.089 52.0563 45.9627C53.1826 44.8364 54.08 43.495 54.6922 42.0229C55.2998 40.5554 55.6176 38.9757 55.6316 37.382Z" fill="#662D91"/>
</svg>
