<svg width="100" height="100" viewBox="0 0 100 100" fill="none" xmlns="http://www.w3.org/2000/svg">
<path fill-rule="evenodd" clip-rule="evenodd" d="M82.7402 36.9686C84.4118 38.8017 85.7346 40.9212 86.6355 43.2334C87.5313 45.5457 87.9948 47.9985 88 50.4826C88.0052 52.9615 87.5521 55.4195 86.6616 57.7317C85.771 60.0439 84.4587 62.1739 82.7922 64.0122C79.8134 67.2983 76.5951 70.3604 73.1632 73.1726C69.7313 75.9848 66.0963 78.5365 62.2843 80.8123C58.4774 83.0829 54.5039 85.0722 50.4003 86.7595C46.2966 88.4468 42.0731 89.8321 37.7663 90.8944C35.5687 91.4465 33.2825 91.5662 31.0432 91.2486C28.7987 90.9309 26.6375 90.1862 24.6794 89.0457C22.716 87.9104 20.9975 86.4054 19.607 84.6191C18.2218 82.8277 17.1907 80.7863 16.5761 78.6095C11.3476 60.747 12.1183 40.5515 17.1594 22.6109C19.8153 13.1901 28.6841 7.27418 37.8184 9.451C54.7331 13.4818 70.6062 23.8607 82.7402 36.9686ZM58.9253 55.5184C62.1124 52.9979 62.1124 48.087 58.9253 45.4884C57.7935 44.5475 56.6339 43.6431 55.4465 42.7752C54.2592 41.9037 53.0458 41.0705 51.8063 40.2755C50.5704 39.4804 49.3101 38.7218 48.0255 37.9997C46.741 37.281 45.4356 36.6005 44.1093 35.9583C40.4483 34.2085 36.3603 36.6509 35.7718 40.8171C34.8708 47.1861 34.7094 53.6072 35.2979 59.7107C35.6937 63.9341 39.7296 66.4546 43.448 64.835C44.8332 64.2379 46.1976 63.5956 47.5412 62.9082C48.8848 62.2208 50.2041 61.4882 51.4991 60.7105C52.7941 59.9328 54.0613 59.1135 55.3007 58.2525C56.5401 57.3915 57.7483 56.4888 58.9253 55.5445V55.5184Z" fill="#85C742"/>
</svg>
