<svg width="100" height="100" viewBox="0 0 100 100" fill="none" xmlns="http://www.w3.org/2000/svg">
<path d="M25.6368 38.1834C28.9688 36.1849 33.0639 36.1585 36.7888 36.7894C39.2557 37.2654 41.8284 38.4365 43.0788 40.7371C43.6946 41.776 43.8193 42.9849 43.9477 44.1598C41.2013 44.1296 38.451 44.1447 35.7008 44.1485L35.629 44.1523C35.8633 41.8327 32.8788 41.096 31.3337 42.3011C30.6877 43.1851 30.6915 44.6131 31.6964 45.2365C35.119 46.5927 39.2444 46.6229 42.0815 49.2409C44.4464 51.5454 44.7713 55.4591 43.2639 58.3114C41.851 60.9218 38.8741 62.176 36.0673 62.5878C32.3008 63.0109 28.2246 62.7503 24.9493 60.6574C22.9281 59.4183 21.5001 57.1554 21.5455 54.7489C24.3864 54.7527 27.2273 54.7451 30.0681 54.7489C30.0644 56.9891 33.0753 57.7598 34.6657 56.6076C36.0597 55.9276 35.901 53.6269 34.4844 53.0678C31.7644 51.9345 28.7119 51.7947 26.0146 50.5971C23.8499 49.5167 22.2406 47.3105 22.1235 44.8625C21.7344 42.1614 23.3248 39.498 25.6368 38.1834Z" fill="white"/>
<path d="M47.8691 36.9706C50.4418 36.9932 53.0182 36.9932 55.5909 36.9668C55.5644 40.5141 55.6627 44.0652 55.5342 47.6088C57.918 44.4732 60.2527 41.2961 62.5987 38.1304C62.9273 37.7677 63.1578 37.0764 63.7773 37.2161C66.7278 37.2086 69.6782 37.2275 72.6249 37.2048C69.4251 41.1035 66.2782 45.0437 63.0218 48.897C66.18 53.2679 69.4213 57.5821 72.5796 61.953C69.3836 61.9304 66.1913 61.9379 62.9991 61.9492C60.4869 58.3377 58.0653 54.6657 55.5267 51.073C55.6816 54.6921 55.5456 58.315 55.606 61.9379C53.0258 61.9379 50.4456 61.9417 47.8691 61.9341C47.8616 53.6117 47.8653 45.293 47.8691 36.9706Z" fill="white"/>
<path d="M49.2029 7.5H50.8273C58.8098 7.72667 66.7507 10.0802 73.3958 14.5456C81.0344 19.57 86.9958 27.1218 90.0256 35.7578C91.6387 40.1853 92.3602 44.8887 92.5 49.5882V50.8236C92.2733 59.894 89.1831 68.8851 83.558 76.0251C77.3322 84.0982 68.1031 89.814 58.0807 91.7142C55.6969 92.228 53.2527 92.3036 50.8273 92.5H49.1916C42.962 92.2922 36.7438 90.8869 31.1564 88.0762C21.0471 83.1198 13.0987 73.9587 9.62689 63.2449C8.26311 59.2442 7.70022 55.0244 7.5 50.816V49.5656C7.63978 45.1418 8.27444 40.7142 9.71 36.5171C13.1818 25.9809 21.0093 16.9898 30.9336 12.0409C36.5776 9.15089 42.8827 7.70778 49.2029 7.5ZM25.6371 38.1831C23.3251 39.4978 21.7347 42.1611 22.1238 44.8622C22.2409 47.3102 23.8502 49.5164 26.0149 50.5969C28.7122 51.7944 31.7647 51.9342 34.4847 53.0676C35.9013 53.6267 36.06 55.9273 34.666 56.6073C33.0756 57.7596 30.0647 56.9889 30.0684 54.7487C27.2276 54.7449 24.3867 54.7524 21.5458 54.7487C21.5004 57.1551 22.9284 59.418 24.9496 60.6571C28.2249 62.75 32.3011 63.0107 36.0676 62.5876C38.8744 62.1758 41.8513 60.9216 43.2642 58.3111C44.7716 55.4589 44.4467 51.5451 42.0818 49.2407C39.2447 46.6227 35.1193 46.5924 31.6967 45.2362C30.6918 44.6129 30.688 43.1849 31.334 42.3009C32.8791 41.0958 35.8636 41.8324 35.6293 44.152L35.7011 44.1482C36.8458 44.8924 38.3191 44.3976 39.6036 44.5298C41.0391 44.3938 42.6409 44.9076 43.948 44.1596C43.8196 42.9847 43.6949 41.7758 43.0791 40.7369C41.8287 38.4362 39.256 37.2651 36.7891 36.7891C33.0642 36.1582 28.9691 36.1847 25.6371 38.1831ZM47.8693 36.9704C47.8656 45.2929 47.8618 53.6116 47.8693 61.934C50.4458 61.9416 53.026 61.9378 55.6062 61.9378C55.5458 58.3149 55.6818 54.692 55.5269 51.0729C58.0656 54.6656 60.4871 58.3376 62.9993 61.9491C66.1916 61.9378 69.3838 61.9302 72.5798 61.9529C69.4216 57.582 66.1802 53.2678 63.022 48.8969C66.2784 45.0436 69.4253 41.1033 72.6251 37.2047C69.6784 37.2273 66.728 37.2084 63.7776 37.216C63.158 37.0762 62.9276 37.7676 62.5989 38.1302C60.2529 41.296 57.9182 44.4731 55.5344 47.6087C55.6629 44.0651 55.5647 40.514 55.5911 36.9667C53.0184 36.9931 50.442 36.9931 47.8693 36.9704ZM77.1698 53.3962C75.3791 53.9516 73.9851 55.5609 73.6829 57.4082C73.1918 60.0413 75.1524 62.8029 77.7969 63.2147C80.9664 63.9249 84.17 60.8913 83.7356 57.6953C83.4711 54.6202 80.1013 52.4064 77.1698 53.3962Z" fill="#002333"/>
<path d="M35.7012 44.1487C38.4514 44.1449 41.2016 44.1298 43.9481 44.1601C42.641 44.9081 41.0392 44.3943 39.6036 44.5303C38.3192 44.3981 36.8458 44.8929 35.7012 44.1487Z" fill="#000822"/>
<path d="M77.1695 53.396C80.101 52.4063 83.4708 54.62 83.7353 57.6952C84.1697 60.8912 80.9661 63.9247 77.7966 63.2145C75.1521 62.8027 73.1915 60.0412 73.6826 57.408C73.9848 55.5607 75.3788 53.9514 77.1695 53.396Z" fill="#00FF84"/>
</svg>
