<svg width="100" height="100" viewBox="0 0 100 100" fill="none" xmlns="http://www.w3.org/2000/svg">
<g clip-path="url(#clip0_224_389)">
<path d="M0.0390625 74.5651V74.5695C0.0989112 76.7894 0.117371 79.0221 0.491814 81.2283C0.888604 83.5624 1.45581 85.8384 2.53794 87.9568C4.00093 90.8241 6.01014 93.2455 8.54632 95.2234C10.3672 96.6436 12.3564 97.771 14.5584 98.4822C17.7692 99.5179 21.0817 99.9149 24.4426 99.9343C26.5394 99.9475 28.6349 100 30.7325 99.9913C45.9658 99.9271 61.1994 100.101 76.433 99.8972C78.4545 99.8698 80.4429 99.6232 82.4268 99.2604C86.2294 98.5644 89.59 96.9419 92.4653 94.3768C95.8162 91.388 98.0771 87.7302 99.0976 83.3156C99.7655 80.4301 99.9326 77.5025 99.9612 74.5647V73.9786C99.9612 73.7513 99.8747 24.0609 99.8667 23.4042C99.8444 21.5999 99.7115 19.8093 99.3732 18.0341C98.9618 15.8708 98.3806 13.7629 97.3447 11.8057C96.2509 9.73805 94.8808 7.87885 93.1862 6.25419C90.5904 3.76503 87.5948 2.00474 84.1075 1.07359C80.9576 0.232788 77.7443 0.0466356 74.5074 0.0495503C74.5021 0.048773 74.4899 0.0159337 74.4891 0H25.4956C25.4946 0.016711 25.494 0.0334222 25.4928 0.0495503C23.6558 0.0831666 21.816 0.0693699 19.9883 0.29594C17.9861 0.544856 16.0031 0.919688 14.108 1.61961C11.1229 2.7237 8.52942 4.44338 6.31404 6.7392C3.80409 9.34029 2.03486 12.3485 1.09613 15.8514C0.258638 18.9767 0.076372 22.1642 0.0719028 25.3743" fill="#FFFC00"/>
<path d="M50.4533 84.3718C50.2458 84.3718 50.0477 84.3642 49.8972 84.357C49.7776 84.3673 49.6543 84.3718 49.5307 84.3718C45.1708 84.3718 42.2558 82.3107 39.6832 80.4907C37.8394 79.1882 36.1005 77.9586 34.0633 77.6197C33.0628 77.4538 32.0675 77.3696 31.1058 77.3696C29.3731 77.3696 28.0038 77.6384 27.004 77.8339C26.3888 77.9538 25.8584 78.0569 25.4484 78.0569C25.0189 78.0569 24.4972 77.9617 24.2798 77.2192C24.1074 76.6336 23.9838 76.0662 23.8645 75.5198C23.566 74.1543 23.3496 73.3209 22.8383 73.2418C17.3702 72.3981 14.1393 71.1553 13.4957 69.6501C13.4283 69.492 13.3906 69.3328 13.3822 69.1754C13.3572 68.7268 13.6739 68.3333 14.1162 68.26C18.4587 67.5449 22.3199 65.2497 25.5931 61.4359C28.1287 58.4833 29.3739 55.6623 29.5076 55.3508C29.5134 55.3368 29.5202 55.322 29.5272 55.3086C30.1581 54.0285 30.2837 52.9222 29.9015 52.0216C29.1969 50.36 26.8634 49.6197 25.3195 49.1298C24.9356 49.0084 24.5724 48.8933 24.2831 48.7785C22.9145 48.2379 20.6638 47.0957 20.9636 45.5193C21.182 44.3697 22.7025 43.5691 23.9314 43.5691C24.2726 43.5691 24.5749 43.629 24.8295 43.7485C26.218 44.399 27.4673 44.7288 28.5417 44.7288C29.8778 44.7288 30.5231 44.2201 30.6791 44.0755C30.6406 43.3628 30.5936 42.6092 30.5481 41.8965C30.5481 41.8957 30.5472 41.8871 30.5472 41.8871C30.2335 36.8981 29.8424 30.6894 31.4305 27.129C36.1838 16.4715 46.2643 15.6427 49.2396 15.6427C49.3189 15.6427 50.5364 15.6307 50.5364 15.6307C50.5914 15.6297 50.6511 15.6289 50.7129 15.6289C53.6964 15.6289 63.7978 16.4586 68.554 27.1226C70.1421 30.6853 69.7506 36.8993 69.436 41.8936L69.4212 42.1326C69.3781 42.8107 69.3383 43.4525 69.3046 44.0747C69.4515 44.21 70.0421 44.6763 71.2435 44.7235C72.2677 44.6843 73.4447 44.3561 74.7408 43.7493C75.1414 43.5612 75.5851 43.5221 75.8863 43.5221C76.3415 43.5221 76.8048 43.6107 77.1909 43.7718L77.2115 43.7798C78.3113 44.1701 79.0316 44.9503 79.0472 45.7699C79.061 46.534 78.4932 47.6759 75.7005 48.7789C75.4145 48.8922 75.0495 49.008 74.664 49.1302C73.1188 49.6206 70.7873 50.3606 70.0827 52.0212C69.6999 52.9218 69.8258 54.0277 70.4569 55.3074C70.4639 55.3214 70.4699 55.3356 70.4767 55.3504C70.6711 55.8059 75.3744 66.5302 85.8682 68.259C86.3102 68.3327 86.6275 68.7266 86.6023 69.1745C86.5929 69.3354 86.5541 69.4962 86.4861 69.6534C85.847 71.1502 82.6163 72.3913 77.1466 73.2362C76.6332 73.3155 76.4169 74.1452 76.1212 75.5035C75.9988 76.0644 75.8742 76.6144 75.7042 77.1922C75.545 77.7357 75.191 78.0014 74.6224 78.0014H74.5367C74.1666 78.0014 73.6421 77.9341 72.9807 77.8047C71.8245 77.5797 70.5279 77.3702 68.8789 77.3702C67.9174 77.3702 66.9224 77.4546 65.9207 77.6203C63.8856 77.9592 62.1469 79.1869 60.3064 80.488C57.7288 82.3105 54.8127 84.3718 50.4533 84.3718Z" fill="white"/>
<path d="M50.7128 16.5072C53.5216 16.5072 63.1938 17.2617 67.7518 27.4805C69.2527 30.8454 68.868 36.9409 68.5594 41.8374C68.5112 42.6144 68.4634 43.3676 68.4245 44.0868L68.4082 44.3959L68.6146 44.6262C68.6979 44.7187 69.4781 45.534 71.2133 45.601L71.2413 45.6026L71.2705 45.602C72.4177 45.5583 73.7099 45.2019 75.1132 44.5446C75.32 44.4478 75.5951 44.4006 75.8862 44.4006C76.2179 44.4006 76.5704 44.4629 76.8611 44.5854L76.905 44.6029C77.6408 44.8607 78.161 45.3469 78.169 45.7868C78.1733 46.0355 77.9873 46.9315 75.3788 47.962C75.1239 48.0626 74.7883 48.1697 74.3993 48.2923C72.7018 48.8313 70.1372 49.6447 69.2741 51.6786C68.7881 52.8243 68.9212 54.1763 69.6693 55.6966C69.9771 56.415 74.8225 67.3292 85.7257 69.1259C85.7235 69.1776 85.7103 69.2341 85.6812 69.3007C85.4964 69.736 84.3217 71.2398 77.0124 72.3676C75.8687 72.5429 75.5885 73.825 75.2636 75.3153C75.1462 75.8489 75.0269 76.3876 74.8629 76.9439C74.8128 77.112 74.8035 77.1215 74.6233 77.1215C74.5985 77.1215 74.5693 77.1215 74.5375 77.1215C74.2133 77.1215 73.7213 77.0543 73.151 76.9423C72.1124 76.7401 70.6935 76.4919 68.8796 76.4919C67.8672 76.4919 66.8244 76.5799 65.778 76.7546C63.5412 77.1265 61.7222 78.4131 59.7958 79.7748C57.2087 81.603 54.5348 83.4946 50.455 83.4946C50.2768 83.4946 50.1029 83.4886 49.9286 83.4798L49.8827 83.4779L49.8366 83.4814C49.7366 83.4901 49.6357 83.4946 49.5327 83.4946C45.4535 83.4946 42.7784 81.6035 40.1925 79.7748C38.2656 78.4131 36.4457 77.1265 34.2093 76.7546C33.1639 76.5805 32.1201 76.4919 31.1083 76.4919C29.2947 76.4919 27.8741 76.7694 26.8376 76.9721C26.2673 77.0836 25.7736 77.1792 25.4504 77.1792C25.1858 77.1792 25.1807 77.1637 25.1248 76.9725C24.9608 76.4157 24.8409 75.8643 24.7241 75.3315C24.3984 73.8395 24.118 72.5504 22.9749 72.375C15.6661 71.2462 14.4913 69.7399 14.3059 69.3058C14.277 69.2374 14.264 69.1791 14.2611 69.1274C25.164 67.3323 30.0085 56.4177 30.3172 55.6966C31.0667 54.1775 31.1996 52.8256 30.7121 51.6786C29.8489 49.6459 27.2848 48.8313 25.5884 48.2933C25.1984 48.1699 24.8626 48.0626 24.6075 47.962C22.4048 47.0916 21.7272 46.2149 21.8278 45.6836C21.9446 45.071 23.0067 44.448 23.9336 44.448C24.1419 44.448 24.3246 44.4816 24.4596 44.5448C25.965 45.2503 27.3392 45.608 28.5445 45.608C30.4393 45.608 31.2826 44.7264 31.3731 44.6258L31.5785 44.3961L31.562 44.0885C31.5237 43.3697 31.4765 42.6168 31.4268 41.8413C31.1192 36.9436 30.7344 30.8522 32.2347 27.4871C36.7758 17.3058 46.4008 16.521 49.242 16.521C49.312 16.521 50.5473 16.5084 50.5473 16.5084C50.5978 16.508 50.6539 16.5072 50.7128 16.5072ZM50.7128 14.751H50.7095C50.6448 14.751 50.584 14.751 50.5261 14.7518C50.0644 14.7564 49.3054 14.7638 49.2372 14.7646C47.5727 14.7646 44.2423 14.9997 40.665 16.5787C38.6197 17.4809 36.7799 18.7008 35.197 20.2046C33.3099 21.9964 31.7724 24.2055 30.6283 26.7716C28.9527 30.5289 29.3505 36.8575 29.67 41.9433L29.6711 41.9512C29.7053 42.4959 29.7413 43.0647 29.7741 43.6188C29.5283 43.7317 29.1298 43.8509 28.5424 43.8509C27.5972 43.8509 26.4733 43.5487 25.2027 42.9533C24.8288 42.7792 24.4021 42.6912 23.9313 42.6912C23.1748 42.6912 22.3774 42.9139 21.6856 43.3206C20.8153 43.8316 20.2529 44.5539 20.1002 45.3547C19.9995 45.8844 20.0044 46.9313 21.1674 47.993C21.807 48.5775 22.7467 49.1166 23.9597 49.5959C24.2779 49.7213 24.6557 49.841 25.0558 49.9679C26.4442 50.4091 28.5455 51.0758 29.0934 52.3655C29.3711 53.0194 29.2516 53.8798 28.7392 54.9198C28.7258 54.9481 28.7124 54.9759 28.7001 55.0051C28.5721 55.3041 27.3774 58.0101 24.927 60.864C23.5345 62.4869 22.0008 63.8432 20.3709 64.8964C18.3815 66.1822 16.2289 67.0228 13.9735 67.3943C13.0878 67.5397 12.4553 68.3288 12.5047 69.2255C12.5198 69.484 12.5804 69.7416 12.6856 69.9909C12.6863 69.9925 12.6873 69.9941 12.6881 69.9954C13.0462 70.8331 13.8765 71.5447 15.2264 72.1723C16.8759 72.9385 19.343 73.583 22.5583 74.0873C22.7207 74.3962 22.8894 75.1727 23.0062 75.7044C23.1284 76.2694 23.2559 76.8504 23.4375 77.4676C23.6336 78.1362 24.1421 78.9352 25.4485 78.9352C25.9436 78.9352 26.5129 78.8237 27.1722 78.6958C28.1378 78.5064 29.4582 78.2479 31.1061 78.2479C32.0198 78.2479 32.9667 78.3284 33.9198 78.4867C35.757 78.7926 37.3409 79.9115 39.1735 81.2071C41.8558 83.1033 44.8919 85.2495 49.5308 85.2495C49.6573 85.2495 49.7842 85.2454 49.9095 85.2366C50.0628 85.2438 50.2529 85.2495 50.4534 85.2495C55.0936 85.2495 58.129 83.1025 60.8084 81.2079L60.8127 81.204C62.6456 79.9099 64.2277 78.7926 66.0644 78.4867C67.0171 78.3286 67.9638 78.2479 68.8779 78.2479C70.4522 78.2479 71.6987 78.4487 72.8118 78.6657C73.5381 78.8087 74.1026 78.8775 74.5357 78.8775L74.5781 78.8783H74.622C75.5774 78.8783 76.2795 78.3538 76.5474 77.4361C76.7254 76.832 76.8525 76.2646 76.9778 75.69C77.0871 75.1918 77.2615 74.3931 77.424 74.0809C80.6414 73.5757 83.1075 72.9325 84.7572 72.1665C86.104 71.5418 86.9333 70.831 87.2936 69.9968C87.4016 69.7467 87.4648 69.4875 87.479 69.2236C87.5297 68.3284 86.8962 67.5377 86.0099 67.3924C75.9863 65.7403 71.4706 55.4409 71.2839 55.0033C71.2718 54.9746 71.2582 54.946 71.244 54.9182C70.7316 53.8778 70.6133 53.0184 70.8911 52.3634C71.4379 51.0749 73.5379 50.4082 74.9272 49.9671C75.3295 49.8404 75.7086 49.7199 76.0243 49.5952C77.3921 49.055 78.3697 48.4689 79.0146 47.8034C79.7849 47.01 79.9349 46.2499 79.9256 45.7524C79.9021 44.5488 78.982 43.4793 77.5184 42.9557C77.0241 42.7512 76.4604 42.6434 75.8864 42.6434C75.4956 42.6434 74.9169 42.697 74.3692 42.9527C73.1965 43.5015 72.146 43.8015 71.2442 43.8443C70.7647 43.82 70.4283 43.716 70.2105 43.6167C70.2379 43.1472 70.2682 42.665 70.2995 42.1621L70.3125 41.9468C70.6337 36.8577 71.0328 30.5242 69.3565 26.7642C68.2075 24.189 66.6646 21.9742 64.7699 20.1786C63.1808 18.6738 61.3348 17.4541 59.2821 16.5525C55.7098 14.9851 52.3796 14.751 50.7128 14.751Z" fill="#020202"/>
</g>
<defs>
<clipPath id="clip0_224_389">
<rect width="100" height="100" fill="white"/>
</clipPath>
</defs>
</svg>
