<svg width="100" height="100" viewBox="0 0 100 100" fill="none" xmlns="http://www.w3.org/2000/svg">
<path d="M0 32.0032C10.4603 32.0032 20.9206 31.9982 31.3759 32.0032C31.3759 35.0824 31.3759 38.1566 31.3759 41.2358C28.0072 41.2408 24.6386 41.2258 21.2699 41.2408C21.2749 50.139 21.2649 59.0322 21.2749 67.9255C17.5519 67.9404 13.829 67.9354 10.106 67.9305C10.111 59.0372 10.106 50.139 10.106 41.2408C6.73731 41.2258 3.36865 41.2358 0 41.2358V32.0032Z" fill="#EC1015"/>
<path d="M33.0625 32.0092C43.2284 31.9992 53.3992 32.0042 63.565 32.0042C63.565 35.0584 63.575 38.1127 63.5601 41.1669C57.1172 41.1469 50.6743 41.2717 44.2265 41.2418C44.2265 42.699 44.2265 44.1513 44.2265 45.6085C50.6743 45.5985 57.1272 45.6135 63.575 45.5985C63.5601 48.4681 63.57 51.3377 63.565 54.2073C57.1222 54.2173 50.6743 54.2023 44.2265 54.2173C44.2265 55.7095 44.2265 57.2067 44.2315 58.7038C50.6743 58.7088 57.1222 58.6988 63.565 58.7088C63.565 61.783 63.57 64.8572 63.565 67.9364C53.3992 67.9364 43.2284 67.9414 33.0625 67.9314C33.0625 55.959 33.0675 43.9816 33.0625 32.0092Z" fill="#EC1015"/>
<path d="M65.4365 32.0086C71.7446 32.0086 78.0528 31.9837 84.3659 32.0186C88.533 32.0635 92.8549 33.5457 95.6596 36.7347C98.7488 40.1732 99.9066 44.9343 99.9964 49.4557C100.071 54.2966 98.9734 59.5068 95.47 63.0701C92.0813 66.5585 87.0808 67.8411 82.3497 67.9259C76.7103 67.9509 71.0759 67.9309 65.4365 67.9359C65.4365 55.9585 65.4415 43.9811 65.4365 32.0086ZM76.5506 58.7083C79.2904 58.5636 82.1999 59.1425 84.7901 57.9797C87.4351 56.757 88.6678 53.7377 88.7975 50.9729C89.1119 47.8338 88.1837 44.1557 85.2891 42.4739C82.6741 40.832 79.4751 41.2961 76.5506 41.2312C76.5406 47.0603 76.5406 52.8843 76.5506 58.7083Z" fill="#EC1015"/>
</svg>
