<svg width="100" height="100" viewBox="0 0 100 100" fill="none" xmlns="http://www.w3.org/2000/svg">
<g clip-path="url(#clip0_224_401)">
<path d="M0 23.8023V76.1977C0.168164 91.5002 9.76875 99.7912 23.3811 100.006H76.6971C88.4148 99.8828 99.5668 93.1438 100 76.7186V23.4111C99.4672 7.4873 89.1436 0.309375 76.5732 0H22.9973C9.4127 0.326367 0.0929688 9.26152 0 23.8023Z" fill="black"/>
<path d="M44.991 17.3998C27.7832 19.801 13.0055 38.7969 20.193 60.0598L42.2945 22.0965L43.3129 22.684L51.236 8.97012L50.1996 8.37207L44.991 17.3998Z" fill="#FF3960"/>
<path d="M43.3126 22.6841C50.6913 21.6105 57.7202 22.4128 64.2339 25.9769L34.6286 77.2208L35.6511 77.8109L27.6616 91.6398L26.6856 91.0765L32.0071 81.8658C26.1382 78.0251 21.3954 72.8671 18.7476 65.2583L43.3126 22.6841Z" fill="#FF3960"/>
<path d="M67.9988 21.8496L35.5732 77.8353C43.2471 81.5426 50.1453 82.0459 56.6412 80.8869L78.6436 42.8781L79.6373 43.4514L87.5551 29.7465L86.5787 29.1832L81.1275 38.6186C78.6766 31.1053 73.8912 25.9246 67.999 21.8502L67.9988 21.8496Z" fill="#FF3960"/>
<path d="M55.0698 86.2658L79.6368 43.4512C86.5665 63.7297 73.3485 83.3381 55.0698 86.2658Z" fill="#FF3960"/>
</g>
<defs>
<clipPath id="clip0_224_401">
<rect width="100" height="100.006" fill="white"/>
</clipPath>
</defs>
</svg>
