<svg width="100" height="100" viewBox="0 0 100 100" fill="none" xmlns="http://www.w3.org/2000/svg">
<path d="M11 26.9286C11 17.5792 18.5792 10 27.9286 10H73.0714C82.4208 10 90 17.5792 90 26.9286V72.0714C90 81.4208 82.4208 89 73.0714 89H27.9286C18.5792 89 11 81.4208 11 72.0714V26.9286Z" fill="black"/>
<path d="M63.1971 55.5474L71.6594 47.488V25.3174H37.8022V55.5474H47.3228V62.603L54.7308 55.5474H63.1971Z" fill="white"/>
<path fill-rule="evenodd" clip-rule="evenodd" d="M53.6779 32.6396H49.4443V44.7314H53.6779V32.6396ZM61.0811 32.6914H65.3143V44.7816H61.0811V32.6914Z" fill="black"/>
<path fill-rule="evenodd" clip-rule="evenodd" d="M35.6862 21.2852L25.1074 31.3606V67.6384H37.8028V77.7137L48.3817 67.6384H56.8479L75.8931 49.4994V21.2852H35.6862ZM71.6599 47.4875L63.1978 55.5469H54.7313L47.3234 62.6024V55.5469H37.8028V25.3169H71.6599V47.4875Z" fill="#9147FF"/>
</svg>
