<svg width="100" height="100" viewBox="0 0 100 100" fill="none" xmlns="http://www.w3.org/2000/svg">
<path d="M92 49.5225C92 72.9946 72.9721 92.0225 49.5 92.0225C26.0279 92.0225 7 72.9946 7 49.5225C7 26.0504 26.0279 7.02246 49.5 7.02246C72.9721 7.02246 92 26.0504 92 49.5225Z" fill="white"/>
<path d="M47.296 7.0582C52.668 6.77768 58.0955 7.51209 63.1894 9.24337C71.7591 12.1268 79.3272 17.8516 84.4693 25.2849C89.0359 31.838 91.687 39.7058 92 47.688C92.3227 54.9683 90.7359 62.3329 87.4009 68.8174C84.5512 74.4254 80.418 79.3713 75.4324 83.2047C69.7726 87.569 62.9932 90.4705 55.9236 91.5228C46.6724 92.9422 36.9637 91.2061 28.8069 86.6058C20.8512 82.1753 14.398 75.1141 10.7067 66.79C6.65174 57.7567 5.93779 47.2907 8.6804 37.7807C10.6224 30.9663 14.3197 24.666 19.3077 19.6335C23.6829 15.1921 29.0513 11.7356 34.9049 9.59011C38.8768 8.12972 43.0713 7.28213 47.296 7.0582ZM31.0776 23.8028C31.086 27.4279 31.0715 31.053 31.0848 34.6781C37.237 31.0662 43.3711 27.4267 49.5173 23.8064C55.6623 27.4423 61.8193 31.059 67.9607 34.6986C67.9547 31.0602 67.9727 27.4207 67.951 23.7823C61.7989 20.1813 55.6731 16.5357 49.5269 12.9239C43.3663 16.5297 37.2261 20.1753 31.0776 23.8028ZM31.08 43.8438C31.0776 52.3509 31.0824 60.8581 31.0776 69.3652C31.1582 72.8711 32.0467 76.4637 34.1777 79.3051C36.5796 82.504 40.236 84.6506 44.1224 85.4958C47.5043 86.2278 51.0367 86.241 54.4294 85.5644C58.3387 84.771 62.0613 82.7315 64.5812 79.6024C66.1788 77.5858 67.1625 75.1334 67.6067 72.6111C68.0919 70.155 67.9366 67.6436 67.9607 65.1574C67.9607 58.0529 67.9607 50.9471 67.9607 43.8426C64.7413 43.8426 61.5207 43.8414 58.3014 43.8438C58.3086 51.466 58.3026 59.0895 58.305 66.7117C58.3905 68.9378 58.0822 71.2735 56.8289 73.1697C56.009 74.4604 54.8063 75.4921 53.4386 76.1663C51.5761 77.0741 49.3981 77.3065 47.3875 76.8117C45.2023 76.3 43.2206 74.9142 42.0612 72.9843C41.1005 71.3963 40.7116 69.5205 40.7333 67.6797C40.7296 59.7336 40.7296 51.7887 40.7333 43.8426C37.5151 43.8438 34.2981 43.8414 31.08 43.8438Z" fill="#BE32F5"/>
</svg>
