<svg width="100" height="41" viewBox="0 0 100 41" fill="none" xmlns="http://www.w3.org/2000/svg">
<path d="M37.2322 10.7161C39.058 9.99608 41.113 9.88608 43.0113 10.3786C45.6855 11.0652 47.9963 12.9727 49.2313 15.4361C50.2063 17.3211 50.5513 19.5119 50.2572 21.6102C45.7147 21.6136 41.173 21.6069 36.6313 21.6136C36.868 22.7427 37.4172 23.8527 38.3572 24.5552C39.4097 25.3636 40.8505 25.5019 42.108 25.1819C42.878 24.9902 43.5571 24.4977 43.9971 23.8411C45.9421 23.8111 47.8871 23.8361 49.8321 23.8286C49.3538 25.3627 48.4463 26.7552 47.2446 27.8194C44.8921 29.9186 41.4755 30.6361 38.4396 29.8877C37.0238 29.5402 35.6897 28.8661 34.568 27.9352C32.8438 26.5219 31.6338 24.5069 31.1647 22.3302C30.6522 19.9911 30.9746 17.4719 32.098 15.3536C33.1813 13.2627 35.0297 11.5636 37.2322 10.7161ZM38.5805 15.3252C37.5971 15.9319 37.0096 17.0086 36.7338 18.1036C39.3371 18.1052 41.9405 18.1044 44.5438 18.1044C44.2722 16.9127 43.5505 15.7836 42.4496 15.2052C41.258 14.5752 39.7297 14.6161 38.5805 15.3252Z" fill="black"/>
<path d="M78.6274 10.154C80.0983 9.9773 81.6116 10.1056 83.0183 10.5773C85.5791 11.4056 87.7641 13.319 88.9283 15.7448C90.1266 18.1715 90.2599 21.0915 89.3083 23.6231C88.5391 25.704 87.0558 27.5073 85.1691 28.6723C82.6758 30.239 79.4791 30.6023 76.6941 29.6556C73.9716 28.7565 71.6916 26.6248 70.6033 23.974C69.4099 21.1415 69.6233 17.7573 71.1833 15.1056C72.7174 12.4181 75.5508 10.519 78.6274 10.154ZM79.0449 15.4923C77.9541 15.6906 76.9566 16.3465 76.3458 17.2715C75.5749 18.4015 75.3624 19.8531 75.6133 21.1831C75.8391 22.4231 76.5708 23.5923 77.6674 24.2381C78.7024 24.864 80.0033 24.9865 81.1574 24.6548C82.2491 24.3365 83.1783 23.5406 83.6958 22.5323C84.3158 21.3373 84.4191 19.9015 84.0524 18.6123C83.7299 17.459 82.9408 16.4231 81.8633 15.8815C81.0049 15.4298 79.9924 15.329 79.0449 15.4923Z" fill="black"/>
<path d="M10.1016 10.6606C12.2699 10.6614 14.4382 10.6614 16.6066 10.6606C18.0066 13.3656 19.4149 16.0656 20.8149 18.7706C20.9441 18.9964 21.0182 19.2681 21.2266 19.4389C22.6882 16.5606 24.2041 13.7106 25.6749 10.8372C25.7174 10.7381 25.7874 10.6381 25.9132 10.6631C28.0366 10.6581 30.1599 10.6631 32.2832 10.6614C28.5849 17.1047 24.8799 23.5439 21.1924 29.9939C17.4957 23.5497 13.7907 17.1097 10.1016 10.6606Z" fill="black"/>
<path d="M49.0039 10.6615C51.1722 10.6607 53.3406 10.6607 55.5089 10.6615C57.0072 13.5315 58.4989 16.4049 59.9847 19.2807C59.9972 19.3582 60.1247 19.4924 60.1639 19.3482C61.6706 16.4599 63.1772 13.5707 64.6656 10.6732C66.8389 10.6532 69.0147 10.6532 71.1881 10.6732C67.4814 17.109 63.7922 23.5549 60.0939 29.9957C56.4072 23.5457 52.7006 17.1065 49.0039 10.6615Z" fill="black"/>
</svg>
