<svg width="100" height="100" viewBox="0 0 100 100" fill="none" xmlns="http://www.w3.org/2000/svg">
<g clip-path="url(#clip0_224_1171)">
<path d="M7.72168 64.7623C7.72168 76.408 22.8859 85.8459 41.5824 85.8459C60.2789 85.8459 75.4431 76.408 75.4431 64.7623C75.4431 53.1167 60.2789 43.6787 41.5824 43.6787C22.8859 43.6787 7.72168 53.1167 7.72168 64.7623Z" fill="white"/>
<path d="M42.3826 84.1345C25.8248 85.7764 11.5299 78.284 10.4537 67.4249C9.3774 56.5519 21.9337 46.424 38.4778 44.7821C55.0356 43.1401 69.3305 50.6325 70.3929 61.4916C71.483 72.3646 58.9267 82.5063 42.3826 84.1345ZM75.4845 48.0522C74.0771 47.6245 73.1112 47.3485 73.8425 45.4996C75.4431 41.4843 75.6087 38.0209 73.8701 35.5373C70.6275 30.9011 61.7415 31.1495 51.5584 35.4131C51.5584 35.4131 48.3572 36.8067 49.1851 34.2816C50.7443 29.2453 50.5098 25.0369 48.0813 22.5946C42.562 17.0615 27.867 22.8016 15.2692 35.3993C5.84506 44.8235 0.367188 54.8271 0.367188 63.4786C0.367188 80.0088 21.575 90.0677 42.3136 90.0677C69.5099 90.0677 87.5993 74.2688 87.5993 61.7262C87.6131 54.1372 81.2245 49.8322 75.4845 48.0522Z" fill="#E6162D"/>
<path d="M93.5462 17.7931C86.9783 10.5077 77.2919 7.73427 68.3507 9.63842C66.281 10.08 64.9702 12.1221 65.4117 14.178C65.8533 16.2477 67.8816 17.5586 69.9513 17.117C76.3123 15.7648 83.1976 17.738 87.8613 22.9123C92.5251 28.0866 93.7946 35.1375 91.7938 41.319C91.1453 43.3336 92.2492 45.4861 94.2637 46.1346C96.2782 46.7831 98.4308 45.6793 99.0793 43.6785V43.6647C101.894 34.9857 100.114 25.0648 93.5462 17.7931Z" fill="#FF9933"/>
<path d="M83.4599 26.8996C80.2587 23.3534 75.5397 22.0012 71.1933 22.9395C69.4133 23.312 68.2819 25.0782 68.6544 26.8582C69.0408 28.6381 70.7931 29.7696 72.5593 29.3832C74.6842 28.9279 77.0023 29.5902 78.5615 31.315C80.1207 33.0536 80.5485 35.413 79.8723 37.4828C79.3204 39.2075 80.2587 41.0703 81.9973 41.636C83.7358 42.188 85.5848 41.2497 86.1505 39.5111C87.5165 35.2751 86.6611 30.4457 83.4599 26.8996Z" fill="#FF9933"/>
<path d="M43.2934 64.4586C42.7139 65.4521 41.4306 65.9213 40.4372 65.5073C39.4437 65.1072 39.1401 63.9895 39.7059 63.0236C40.2854 62.0578 41.5134 61.5886 42.4931 61.975C43.4866 62.3337 43.8453 63.4514 43.2934 64.4586ZM38.0087 71.2198C36.4081 73.7724 32.9723 74.8901 30.3921 73.7172C27.8532 72.5582 27.0943 69.5916 28.6949 67.0941C30.2817 64.6104 33.5933 63.5066 36.1597 64.5828C38.7538 65.7005 39.5817 68.6395 38.0087 71.2198ZM44.0247 53.1441C36.1459 51.0882 27.2461 55.0207 23.8242 61.9612C20.3332 69.0396 23.7138 76.9046 31.6615 79.4711C39.9128 82.1341 49.6267 78.0499 53.0073 70.4195C56.3465 62.9409 52.1794 55.2553 44.0247 53.1441Z" fill="black"/>
</g>
<defs>
<clipPath id="clip0_224_1171">
<rect width="100" height="100" fill="white"/>
</clipPath>
</defs>
</svg>
